SplineFontDB: 3.0
FontName: LinBiolinumSlantedO
FullName: Linux Biolinum Slanted O
FamilyName: Linux Biolinum Slanted O
Weight: Book
Copyright: Linux Libertine by Philipp H. Poll,\nOpen Font under Terms of following Free Software Licenses:\nGPL (General Public License) with font-exception and OFL (Open Font License).\nCreated with FontForge (http://fontforge.sf.net)\nSept 2003, 2004, 2005, 2006, 2007, 2008, 2009, 2010, 2011
UComments: "2003-08-29: Created.+AAoA-2004-07-25: v(1.0) release candidate+AAoA-2005-12-28: v(1.1.0) stable+AAoA-2006-01-01: v(2.0.0) stable+AAoA-2006-09-05: v(2.2.0) stable+AAoA-2006-12-04: v(2.3.0) stable+AAoA-2007-03-11: v(2.4.0) stable+AAoA-2007-12-00: v(2.7.0) stable+AAoA-2008-06-00: v(2.8.14) stable+AAoA" 
Version: 1.0.4
ItalicAngle: 0
UnderlinePosition: -98
UnderlineWidth: 40
Ascent: 754
Descent: 246
LayerCount: 2
Layer: 0 0 "Back"  1
Layer: 1 0 "Fore"  0
NeedsXUIDChange: 1
XUID: [1021 993 1524925707 2876416]
FSType: 0
OS2Version: 0
OS2_WeightWidthSlopeOnly: 0
OS2_UseTypoMetrics: 0
CreationTime: 1156455862
ModificationTime: 1307164630
PfmFamily: 33
TTFWeight: 400
TTFWidth: 5
LineGap: 0
VLineGap: 0
OS2TypoAscent: 894
OS2TypoAOffset: 0
OS2TypoDescent: -246
OS2TypoDOffset: 0
OS2TypoLinegap: 0
OS2WinAscent: 894
OS2WinAOffset: 0
OS2WinDescent: 246
OS2WinDOffset: 0
HheadAscent: 894
HheadAOffset: 0
HheadDescent: -246
HheadDOffset: 0
OS2FamilyClass: 2050
OS2Vendor: 'PfEd'
Lookup: 3 0 0 "'aalt' Alle Alternativen zeigen"  {"'aalt' Alle Alternativen zeigen 1"  } ['aalt' ('DFLT' <'dflt' > 'cyrl' <'dflt' > 'grek' <'dflt' > 'latn' <'AZE ' 'CRT ' 'DEU ' 'MOL ' 'ROM ' 'TRK ' 'dflt' > ) ]
Lookup: 1 0 0 "'locl' Localized Forms Romaenisch"  {"'locl' Localized Forms Romaenisch 1"  } ['locl' ('latn' <'MOL ' 'ROM ' > ) ]
Lookup: 1 0 0 "'smcp' Gemeine nach Kapitaelchen i > i.sc"  {"'smcp' Gemeine nach Kapitaelchen i > i.sc 1"  } ['smcp' ('DFLT' <'dflt' > 'cyrl' <'dflt' > 'grek' <'dflt' > 'latn' <'DEU ' 'MOL ' 'ROM ' 'dflt' > ) ]

StartChar: exclam
Encoding: 33 33 0
Width: 228
VWidth: 999
Flags: HW
HStem: -10 112<76.3677 150.353> 638 20G<102 126.5>
VStem: 57 112<6.28114 82.4613> 59 110<425.857 643.461>
LayerCount: 2
Fore
SplineSet
252.862304688 658 m 0
 279.862304688 658 303.973632812 635 293.345703125 585 c 0
 279.529296875 520 254.6015625 478 226.322265625 392 c 0
 190.366210938 284 176.612304688 224 171.63671875 210 c 0
 168.298828125 199 163.385742188 190 153.385742188 190 c 0
 142.385742188 190 141.874023438 197 142.149414062 203 c 0
 144.612304688 224 158.743164062 314 167.322265625 392 c 0
 177.02734375 480 168.466796875 515 183.345703125 585 c 0
 194.823242188 639 230.862304688 658 252.862304688 658 c 0
66.3525390625 44 m 1
 67.203125 48 l 1
 82.03515625 74.5 99.8876953125 89.7998046875 132.680664062 102 c 1
 136.680664062 102 l 1
 163.44921875 91.5 175.997070312 76.2001953125 179.203125 48 c 1
 178.352539062 44 l 1
 161.30859375 11.7998046875 142.5625 -3 112.874023438 -10 c 1
 108.874023438 -10 l 1
 79.162109375 -3 68.0322265625 10.5 66.3525390625 44 c 1
EndSplineSet
Colour: ff80cc
EndChar

StartChar: quotedbl
Encoding: 34 34 1
Width: 336
VWidth: 999
Flags: HW
HStem: 426 218<85.8119 118.678> 427 218<211.812 244.678>
VStem: 63 86<487.695 633.98> 189 86<488.695 634.98>
LayerCount: 2
Fore
SplineSet
305.76171875 427 m 1
 305.76171875 427 313.55859375 586 315.470703125 595 c 0
 320.147460938 617 347.098632812 645 377.098632812 645 c 0
 403.098632812 645 408.485351562 628 405.084960938 612 c 0
 401.68359375 596 333.612304688 431 333.612304688 431 c 1
 305.76171875 427 l 1
179.548828125 426 m 1
 179.548828125 426 187.345703125 585 189.258789062 594 c 0
 193.934570312 616 220.88671875 644 250.88671875 644 c 0
 276.88671875 644 282.2734375 627 278.872070312 611 c 0
 275.470703125 595 207.399414062 430 207.399414062 430 c 1
 179.548828125 426 l 1
EndSplineSet
Colour: ff00ff
EndChar

StartChar: numbersign
Encoding: 35 35 2
Width: 470
VWidth: 520
Flags: HW
HStem: 195 51<34 123 167 276 319 408> 364 52<62 150 193 303 346 435>
DStem2: 94 14 129 14 0.158835 0.987305<5.59956 183.886 241.471 354.777 413.417 591.705> 248 14 283 14 0.155313 0.987865<5.4754 183.721 241.18 354.778 413.126 591.538>
LayerCount: 2
Fore
SplineSet
337.501953125 247 m 1
 380.370117188 364 l 1
 263.370117188 364 l 1
 219.501953125 247 l 1
 337.501953125 247 l 1
416.370117188 364 m 1
 371.501953125 247 l 1
 468.501953125 247 l 1
 449.448242188 195 l 1
 354.448242188 195 l 1
 285.975585938 14 l 1
 250.975585938 14 l 1
 317.448242188 195 l 1
 200.448242188 195 l 1
 131.975585938 14 l 1
 96.9755859375 14 l 1
 164.448242188 195 l 1
 68.4482421875 195 l 1
 86.501953125 247 l 1
 183.501953125 247 l 1
 227.370117188 364 l 1
 130.370117188 364 l 1
 150.635742188 417 l 1
 246.635742188 417 l 1
 314.108398438 598 l 1
 350.108398438 598 l 1
 281.635742188 417 l 1
 400.635742188 417 l 1
 467.108398438 598 l 1
 502.108398438 598 l 1
 434.635742188 417 l 1
 531.635742188 417 l 1
 512.370117188 364 l 1
 416.370117188 364 l 1
EndSplineSet
EndChar

StartChar: dollar
Encoding: 36 36 3
Width: 465
VWidth: 1134
Flags: HW
HStem: -9.7 42.3<137.964 193.418 232.351 297.215> 572 37.9<163.487 225.354 264.049 294.762> 674.5 20G<262.375 267.652>
VStem: 57 68<413.442 525.566> 343 79<89.5867 211.873>
DStem2: 188.555 -98.2666 225.5 -93.25 0.0548206 0.998496<5.24582 88.7146 132.002 364.794 464.299 668.611 709.533 792.87>
LayerCount: 2
Fore
SplineSet
291.646484375 365.299804688 m 1
 346.982421875 572 l 1
 345.58203125 572 l 2
 284.58203125 572 237.655273438 530 225.751953125 474 c 0
 213.40234375 415.900390625 255.100585938 383.900390625 291.646484375 365.299804688 c 1
301.21484375 264 m 1
 239.095703125 31.5 l 1
 298.073242188 36.099609375 358.133789062 71.2001953125 372.7578125 140 c 0
 389.125 217 348.73046875 242.900390625 301.21484375 264 c 1
228.14453125 -9.2001953125 m 1
 205.689453125 -93.2001953125 l 1
 197.497070312 -97.400390625 177.706054688 -98.2998046875 167.706054688 -98.2998046875 c 1
 191.337890625 -9.7001953125 l 1
 90.466796875 -5.7998046875 50.0146484375 33 50.0146484375 33 c 1
 48.65234375 36 l 1
 61.603515625 64 75.98046875 94 86.9951171875 127 c 1
 96.20703125 128 l 1
 109.315429688 77.7001953125 147.750976562 40.7001953125 202.62890625 32.599609375 c 1
 268.397460938 278.5 l 1
 198.962890625 310.799804688 132.776367188 356.5 152.650390625 450 c 0
 173.013671875 545.799804688 276.743164062 607.099609375 357.038085938 609.900390625 c 1
 378.357421875 689.5 l 1
 388.301757812 693 403.620117188 694.5 416.420898438 694.5 c 1
 393.42578125 608.900390625 l 1
 481.001953125 602.200195312 504.732421875 568 504.732421875 568 c 1
 506.094726562 565 l 1
 491.142578125 537 479.404296875 510 469.389648438 477 c 1
 459.176757812 476 l 1
 448.126953125 521.400390625 425.1328125 555.299804688 382.383789062 567.299804688 c 1
 324.443359375 350.700195312 l 1
 396.291992188 322.700195312 481.430664062 279.599609375 458.772460938 173 c 0
 448.697265625 125.599609375 417.520507812 74.900390625 370.71484375 41 c 0
 329.581054688 11.2001953125 276.331054688 -5.5 228.14453125 -9.2001953125 c 1
EndSplineSet
EndChar

StartChar: percent
Encoding: 37 37 4
Width: 680
VWidth: 1067
Flags: HW
HStem: -13 31<477 548> 240 33<522 592> 324 31<135 204> 517 40<299 490> 577 33<178 249>
VStem: 63 54<363 512> 263 33<433 539> 406 56<27 176> 607 32<100 225>
DStem2: 109 3 145 -13 0.584454 0.811427<8.22595 657.573 696.031 753.078>
LayerCount: 2
Fore
SplineSet
480.91796875 89 m 0
 469.014648438 33 493.826171875 18 513.826171875 18 c 0
 572.826171875 18 631.444335938 115 644.197265625 175 c 0
 656.100585938 231 625.013671875 240 610.013671875 240 c 0
 558.013671875 240 494.095703125 151 480.91796875 89 c 0
428.318359375 105 m 0
 445.323242188 185 526.028320312 273 605.028320312 273 c 0
 648.028320312 273 692.989257812 254 676.41015625 176 c 0
 661.10546875 104 589.236328125 -13 500.236328125 -13 c 0
 435.236328125 -13 416.203125 48 428.318359375 105 c 0
507.393554688 557 m 0
 552.393554688 557 636.944335938 569 679.509765625 614 c 1
 709.896484375 597 l 1
 142.236328125 -13 l 1
 109.637695312 3 l 1
 606.142578125 537 l 1
 561.7421875 521 519.891601562 517 487.891601562 517 c 0
 462.891601562 517 425.017578125 527 407.568359375 539 c 1
 408.080078125 532 407.166992188 523 405.041992188 513 c 0
 390.587890625 445 317.868164062 324 227.868164062 324 c 0
 161.868164062 324 145.046875 386 156.524414062 440 c 0
 173.954101562 522 255.659179688 610 332.659179688 610 c 0
 362.659179688 610 390.68359375 596 398.920898438 583 c 1
 451.181640625 556 488.393554688 557 507.393554688 557 c 0
208.336914062 425 m 0
 196.43359375 369 222.458007812 355 241.458007812 355 c 0
 300.458007812 355 358.650390625 450 371.829101562 512 c 0
 383.094726562 565 356.645507812 577 337.645507812 577 c 0
 285.645507812 577 221.514648438 487 208.336914062 425 c 0
EndSplineSet
EndChar

StartChar: parenleft
Encoding: 40 40 5
Width: 300
VWidth: 999
Flags: HW
VStem: 44 83<97.6984 405.148>
LayerCount: 2
Fore
SplineSet
97.564453125 252 m 0
 137.099609375 438 265.596679688 605 406.27734375 707 c 1
 425.451171875 689 l 1
 385.799804688 653 236.466796875 515 180.564453125 252 c 0
 124.662109375 -11 214.329101562 -149 239.251953125 -187 c 1
 212.638671875 -204 l 1
 42.8984375 -24 87.9990234375 207 97.564453125 252 c 0
EndSplineSet
Substitution2: "'c2sc' Versale nach Kapitaelchen 1" parenleft.sc
AlternateSubs2: "'aalt' Alle Alternativen zeigen 1" parenleft.sc
Substitution2: "'sinf' Wissenschaftliche Indices 1" parenleft.inferior
Substitution2: "'sups' Hochgestellte 1" parenleft.superior
Substitution2: "'case' Versalformen 1" parenleft.sc
EndChar

StartChar: parenright
Encoding: 41 41 6
Width: 300
VWidth: 999
Flags: HW
VStem: 173 83<98.8522 406.302>
LayerCount: 2
Fore
SplineSet
309.564453125 252 m 0
 270.028320312 66 141.532226562 -101 0.8505859375 -203 c 1
 -18.3232421875 -185 l 1
 21.3291015625 -149 170.662109375 -11 226.564453125 252 c 0
 282.466796875 515 192.799804688 653 167.876953125 691 c 1
 194.490234375 708 l 1
 364.229492188 528 319.12890625 297 309.564453125 252 c 0
EndSplineSet
Substitution2: "'c2sc' Versale nach Kapitaelchen 1" parenright.sc
AlternateSubs2: "'aalt' Alle Alternativen zeigen 1" parenright.sc
Substitution2: "'sinf' Wissenschaftliche Indices 1" parenright.inferior
Substitution2: "'sups' Hochgestellte 1" parenright.superior
Substitution2: "'case' Versalformen 1" parenright.sc
Colour: ff00ff
EndChar

StartChar: asterisk
Encoding: 42 42 7
Width: 433
VWidth: 999
Flags: HMW
LayerCount: 2
Fore
SplineSet
318.51953125 567 m 1
 306.157226562 570 292.370117188 571 277.370117188 571 c 0
 228.370117188 571 197.857421875 578 204.234375 608 c 0
 207.209960938 622 219.611328125 638 243.611328125 638 c 0
 277.611328125 638 288.596679688 605 328.770507812 587 c 1
 333.060546875 626 319.799804688 653 325.326171875 679 c 0
 329.790039062 700 345.615234375 718 363.615234375 718 c 0
 381.615234375 718 394.27734375 707 389.17578125 683 c 0
 383.4375 656 357.934570312 616 349.55859375 586 c 1
 399.809570312 606 422.611328125 638 455.611328125 638 c 0
 482.611328125 638 485.360351562 618 483.234375 608 c 0
 476.857421875 578 440.370117188 571 406.370117188 571 c 0
 387.370117188 571 369.157226562 570 350.51953125 567 c 1
 376.655273438 530 423.529296875 520 415.02734375 480 c 0
 411.201171875 462 393.86328125 451 379.86328125 451 c 0
 340.86328125 451 347.678710938 516 330.96875 555 c 1
 296.404296875 510 276.86328125 451 238.86328125 451 c 0
 221.86328125 451 212.625976562 464 215.814453125 479 c 0
 224.954101562 522 277.655273438 530 318.51953125 567 c 1
EndSplineSet
EndChar

StartChar: plus
Encoding: 43 43 8
Width: 527
VWidth: 999
Flags: HMW
HStem: 208 49<66 238 289 461>
VStem: 238 51<34 208 257 431>
LayerCount: 2
Fore
SplineSet
343.626953125 257 m 1
 515.626953125 257 l 1
 505.211914062 208 l 1
 333.211914062 208 l 1
 296.2265625 34 l 1
 245.2265625 34 l 1
 282.211914062 208 l 1
 110.211914062 208 l 1
 120.626953125 257 l 1
 292.626953125 257 l 1
 329.612304688 431 l 1
 380.612304688 431 l 1
 343.626953125 257 l 1
EndSplineSet
AlternateSubs2: "'aalt' Alle Alternativen zeigen 1" plus.superior plus.inferior uni2098
Substitution2: "'sinf' Wissenschaftliche Indices 1" plus.inferior
Substitution2: "'sups' Hochgestellte 1" plus.superior
EndChar

StartChar: slash
Encoding: 47 47 9
Width: 323
VWidth: 999
Flags: HW
HStem: 626 20G<245.277 293>
VStem: 15 278
DStem2: 15 -59 56 -59 0.318647 0.947874<13.0645 743.77>
LayerCount: 2
Fore
SplineSet
430.311523438 646 m 1
 43.458984375 -59 l 1
 2.458984375 -59 l 1
 389.311523438 646 l 1
 430.311523438 646 l 1
EndSplineSet
Ligature2: "'frac' Brueche 1" uni2215
AlternateSubs2: "'aalt' Alle Alternativen zeigen 1" uni2215
EndChar

StartChar: one
Encoding: 49 49 10
Width: 465
VWidth: 1054
Flags: HW
HStem: -3 21G<238 285 285 335> 497 29<112.552 147.996> 590 20G<294.5 329>
VStem: 246 80<2.80533 511.906>
LayerCount: 2
Fore
SplineSet
366.172851562 189 m 2
 349.380859375 110 340.752929688 60 335 0 c 1
 332.362304688 -3 l 1
 332.362304688 -3 305 0 285 0 c 0
 267 0 238.362304688 -3 238.362304688 -3 c 1
 238 0 l 1
 257.116210938 57 269.59375 111 286.172851562 189 c 2
 338.887695312 437 l 2
 346.5390625 473 355.041992188 513 337.041992188 513 c 0
 317.041992188 513 265.703125 502 219.640625 497 c 1
 219.8046875 526 l 1
 302.90625 550 387.196289062 589 456.659179688 610 c 1
 460.659179688 610 463.659179688 610 462.596679688 605 c 0
 457.62109375 591 443.119140625 551 420.162109375 443 c 2
 366.172851562 189 l 2
EndSplineSet
AlternateSubs2: "'aalt' Alle Alternativen zeigen 1" one.oldstyle one.superior one.fitted
Substitution2: "'sups' Hochgestellte 1" one.superior
Substitution2: "'sinf' Wissenschaftliche Indices 1" one.inferior
Substitution2: "'pnum' Proportionalziffern 1" one.fitted
Substitution2: "'onum' Minuskelziffern 1" one.taboldstyle
EndChar

StartChar: two
Encoding: 50 50 11
Width: 444
VWidth: 514
Flags: HW
HStem: 0 65<141.682 402.254> 459 21G<67.7568 87.7891> 553 57<126.812 261.557>
VStem: 307.8 85.9<362.97 505.907>
LayerCount: 2
Fore
SplineSet
319.543945312 553 m 0
 291.543945312 553 261.055664062 546 237.655273438 530 c 0
 207.940429688 509.700195312 198.640625 489 178.463867188 459 c 1
 165.576171875 460 l 1
 158.541992188 529 l 1
 187.71875 559 256.959960938 610 347.959960938 610 c 0
 459.559570312 610 509.24609375 543.599609375 489.03125 448.5 c 0
 477.000976562 391.900390625 427.655273438 327.700195312 380.190429688 278 c 0
 295.172851562 189 238.608398438 144 180.017578125 97 c 0
 171.108398438 89.900390625 158.555664062 79.2998046875 156.579101562 70 c 0
 156.154296875 68 156.255859375 66.599609375 156.715820312 65 c 1
 184.541015625 67 203.741210938 67 238.840820312 67 c 0
 334.840820312 67 366.079101562 70 423.44140625 75 c 1
 416.510742188 59.7998046875 411.995117188 44.2001953125 408.551757812 28 c 0
 406.234375 17.099609375 405.34765625 5.400390625 404.637695312 -5 c 1
 333.875 -2 304 0 232 0 c 0
 159 0 115.862304688 -3 41.6376953125 -5 c 1
 38.265625 3.599609375 36.7021484375 19.2998046875 39.912109375 34.400390625 c 0
 40.8896484375 39 42.4033203125 43.2998046875 44.390625 47 c 1
 103.416992188 93.7001953125 239.236328125 194 333.6796875 301 c 0
 368.069335938 340 391.376953125 393.200195312 400.241210938 434.900390625 c 0
 415.140625 505 371.943359375 553 319.543945312 553 c 0
EndSplineSet
AlternateSubs2: "'aalt' Alle Alternativen zeigen 1" two.oldstyle two.superior two.fitted
Substitution2: "'sups' Hochgestellte 1" two.superior
Substitution2: "'sinf' Wissenschaftliche Indices 1" two.inferior
Substitution2: "'pnum' Proportionalziffern 1" two.fitted
Substitution2: "'onum' Minuskelziffern 1" two.taboldstyle
EndChar

StartChar: three
Encoding: 51 51 12
Width: 465
VWidth: 514
Flags: HW
HStem: -10 39<136.242 277.156> 300 39<161.654 269.23> 571 39<167.892 281.532>
VStem: 319 87<401.481 534.347> 340 86<97.1333 247.867>
LayerCount: 2
Fore
SplineSet
215.1640625 29 m 0
 251.1640625 29 350.840820312 51 376.559570312 172 c 0
 384.849609375 211 379.2890625 246 357.96484375 268 c 0
 334.853515625 291 298.766601562 300 266.766601562 300 c 0
 257.766601562 300 236.766601562 300 224.341796875 298 c 1
 233.694335938 342 l 1
 247.26953125 340 258.056640625 339 270.056640625 339 c 0
 304.056640625 339 334.969726562 348 359.0078125 367 c 0
 386.684570312 389 408.486328125 421 417.838867188 465 c 0
 431.655273438 530 396.370117188 571 357.370117188 571 c 0
 297.370117188 571 259.206054688 542 223.302734375 486 c 1
 208.514648438 487 l 1
 201.119140625 551 l 1
 204.755859375 554 l 1
 234.432617188 576 297.659179688 610 374.659179688 610 c 0
 473.659179688 610 523.331054688 552 508.02734375 480 c 0
 490.384765625 397 412.056640625 339 357.505859375 327 c 1
 356.443359375 322 l 1
 431.955078125 315 481.051757812 259 464.259765625 180 c 0
 436.203125 48 289.874023438 -10 204.874023438 -10 c 0
 124.874023438 -10 87.4013671875 16 66.0771484375 38 c 1
 63.71484375 41 l 1
 101.65625 116 l 1
 116.869140625 117 l 1
 131.541015625 59 136.1640625 29 215.1640625 29 c 0
EndSplineSet
AlternateSubs2: "'aalt' Alle Alternativen zeigen 1" three.oldstyle three.superior three.fitted
Substitution2: "'sups' Hochgestellte 1" three.superior
Substitution2: "'sinf' Wissenschaftliche Indices 1" three.inferior
Substitution2: "'pnum' Proportionalziffern 1" three.fitted
Substitution2: "'onum' Minuskelziffern 1" three.taboldstyle
EndChar

StartChar: four
Encoding: 52 52 13
Width: 465
VWidth: 514
Flags: HW
HStem: -3 21G<278 326 363.5 368.5> 148 50<83 286 364 439.25> 584 20G<291 329 363.5 368.5>
VStem: 286 78<2.36826 148 198 512 562.646 601>
DStem2: 34 207 83 198 0.542919 0.839785<19.0449 392.95>
LayerCount: 2
Fore
SplineSet
317.458007812 148 m 1
 111.458007812 148 l 2
 75.4580078125 148 53.521484375 153 56.7099609375 168 c 0
 58.8349609375 178 64.1728515625 189 77.9990234375 207 c 0
 148.916992188 296 339.678710938 516 418.534179688 600 c 0
 418.74609375 601 423.383789062 604 423.383789062 604 c 1
 423.383789062 604 440.534179688 600 456.534179688 600 c 0
 471.534179688 600 487.383789062 604 496.383789062 604 c 0
 497.383789062 604 497.958984375 602 497.534179688 600 c 0
 482.755859375 554 467.08984375 485 460.075195312 452 c 2
 406.0859375 198 l 1
 470.0859375 198 l 2
 480.0859375 198 483.598632812 191 481.685546875 182 c 0
 479.34765625 171 459.458007812 148 445.458007812 148 c 2
 445.458007812 148 431.458007812 148 395.458007812 148 c 1
 383.129882812 90 378.328125 58 370 0 c 0
 369.787109375 -1 368.362304688 -3 367.362304688 -3 c 0
 358.362304688 -3 342 0 326 0 c 0
 310 0 278.362304688 -3 278.362304688 -3 c 1
 278 0 l 1
 294.840820312 51 301.091796875 71 317.458007812 148 c 1
394.829101562 512 m 1
 125.0859375 198 l 1
 328.0859375 198 l 1
 394.829101562 512 l 1
EndSplineSet
AlternateSubs2: "'aalt' Alle Alternativen zeigen 1" four.oldstyle four.superior four.fitted
Substitution2: "'sups' Hochgestellte 1" four.superior
Substitution2: "'sinf' Wissenschaftliche Indices 1" four.inferior
Substitution2: "'pnum' Proportionalziffern 1" four.fitted
Substitution2: "'onum' Minuskelziffern 1" four.taboldstyle
EndChar

StartChar: five
Encoding: 53 53 14
Width: 465
VWidth: 514
Flags: HW
HStem: -10 40<137.181 265.183> 340 40<121.341 263.666> 533 67<140.396 373.874> 539 71<140.517 216.261 220.485 265.8 269.409 373>
VStem: 318 88<100.438 281.299>
DStem2: 72 311.5 120 365 0.108023 0.994148<58.372 236.605>
LayerCount: 2
Fore
SplineSet
199.874023438 -10 m 0
 123.874023438 -10 81.1015625 24 60.77734375 46 c 1
 57.4150390625 49 l 1
 96.419921875 129 l 1
 110.6328125 130 l 1
 130.87890625 70 135.376953125 30 210.376953125 30 c 0
 278.376953125 30 336.4921875 87 356.047851562 179 c 0
 379.215820312 288 340.26953125 340 275.26953125 340 c 0
 228.668945312 340 187.98046875 325 144.6796875 309 c 1
 138.2109375 311.5 l 1
 232.809570312 606 l 1
 266.171875 603 308.534179688 600 345.534179688 600 c 0
 398.534179688 600 453.171875 603 511.659179688 610 c 1
 518.021484375 607 l 1
 487.568359375 539 l 1
 445.504882812 534 411.29296875 533 381.29296875 533 c 0
 334.29296875 533 292.142578125 537 256.206054688 542 c 1
 197.583007812 365 l 1
 221.283203125 373 268.771484375 380 309.771484375 380 c 0
 421.771484375 380 468.279296875 293 447.661132812 196 c 0
 422.579101562 78 318.874023438 -10 199.874023438 -10 c 0
EndSplineSet
AlternateSubs2: "'aalt' Alle Alternativen zeigen 1" five.oldstyle five.superior five.fitted
Substitution2: "'sups' Hochgestellte 1" five.superior
Substitution2: "'sinf' Wissenschaftliche Indices 1" five.inferior
Substitution2: "'pnum' Proportionalziffern 1" five.fitted
Substitution2: "'onum' Minuskelziffern 1" five.taboldstyle
EndChar

StartChar: six
Encoding: 54 54 15
Width: 465
VWidth: 514
Flags: HW
HStem: -9 36<196.673 304.655> 318 40<172.443 291.974> 583 28<329.2 397.75>
VStem: 46 80<113.377 324.146> 344 88<87.9184 265.783>
LayerCount: 2
Fore
SplineSet
185.877929688 277 m 1
 182.752929688 267 179.138671875 250 177.013671875 240 c 0
 139.178710938 62 207.739257812 27 260.739257812 27 c 0
 308.739257812 27 357.390625 63 380.772460938 173 c 0
 391.1875 222 396.592773438 318 295.592773438 318 c 0
 273.592773438 318 233.380859375 317 185.877929688 277 c 1
523.920898438 583 m 1
 453.432617188 576 393.606445312 558 332.19140625 509 c 0
 274.201171875 462 223.109375 391 194.041992188 306 c 1
 224.418945312 336 285.095703125 358 325.095703125 358 c 0
 481.095703125 358 480.462890625 228 470.259765625 180 c 0
 454.956054688 108 388.086914062 -9 242.086914062 -9 c 0
 165.086914062 -9 53.0146484375 33 97.6513671875 243 c 0
 118.26953125 340 172.461914062 435 260.978515625 508 c 0
 343.645507812 577 422.596679688 605 526.872070312 611 c 1
 523.920898438 583 l 1
EndSplineSet
AlternateSubs2: "'aalt' Alle Alternativen zeigen 1" six.oldstyle six.superior six.fitted
Substitution2: "'sups' Hochgestellte 1" six.superior
Substitution2: "'sinf' Wissenschaftliche Indices 1" six.inferior
Substitution2: "'pnum' Proportionalziffern 1" six.fitted
Substitution2: "'onum' Minuskelziffern 1" six.taboldstyle
EndChar

StartChar: seven
Encoding: 55 55 16
Width: 465
VWidth: 514
Flags: HW
HStem: -13 21G<124 200> 525 75<106.135 344.444> 587 20G<64 84.5 399.5 424>
LayerCount: 2
Fore
SplineSet
456.591796875 525 m 1
 391.517578125 527 247.911132812 526.5 172.678710938 516 c 1
 177.8671875 531 184.90625 550 188.094726562 565 c 0
 191.283203125 580 190.833007812 592 192.021484375 607 c 1
 233.74609375 601 321.534179688 600 470.534179688 600 c 0
 501.534179688 600 520.596679688 605 536.659179688 610 c 1
 551.534179688 600 l 1
 381.505859375 327 291.221679688 161 198.086914062 -9 c 1
 124.236328125 -13 l 1
 122.51171875 -7 l 1
 221.395507812 143 337.568359375 332 456.591796875 525 c 1
EndSplineSet
AlternateSubs2: "'aalt' Alle Alternativen zeigen 1" seven.oldstyle seven.superior seven.fitted
Substitution2: "'sups' Hochgestellte 1" seven.superior
Substitution2: "'sinf' Wissenschaftliche Indices 1" seven.inferior
Substitution2: "'pnum' Proportionalziffern 1" seven.fitted
Substitution2: "'onum' Minuskelziffern 1" seven.taboldstyle
EndChar

StartChar: nine
Encoding: 57 57 17
Width: 465
VWidth: 514
Flags: HW
HStem: -11 28<62.25 130.8> 242 40<168.026 287.557> 573 36<155.345 263.327>
VStem: 28 88<334.217 512.082> 334 80<275.854 486.623>
LayerCount: 2
Fore
SplineSet
401.65625 323 m 1
 404.78125 333 408.39453125 350 410.520507812 360 c 0
 448.35546875 538 379.794921875 573 326.794921875 573 c 0
 278.794921875 573 230.142578125 537 206.76171875 427 c 0
 196.346679688 378 190.94140625 282 291.94140625 282 c 0
 313.94140625 282 354.153320312 283 401.65625 323 c 1
63.61328125 17 m 1
 134.1015625 24 193.927734375 42 255.342773438 91 c 0
 313.333007812 138 364.424804688 209 393.491210938 294 c 1
 363.115234375 264 302.438476562 242 262.438476562 242 c 0
 106.438476562 242 107.071289062 372 117.2734375 420 c 0
 132.578125 492 199.447265625 609 345.447265625 609 c 0
 422.447265625 609 534.51953125 567 489.8828125 357 c 0
 469.264648438 260 415.072265625 165 326.555664062 92 c 0
 243.888671875 23 164.9375 -5 60.662109375 -11 c 1
 63.61328125 17 l 1
EndSplineSet
AlternateSubs2: "'aalt' Alle Alternativen zeigen 1" nine.oldstyle nine.superior nine.fitted
Substitution2: "'sups' Hochgestellte 1" nine.superior
Substitution2: "'sinf' Wissenschaftliche Indices 1" nine.inferior
Substitution2: "'pnum' Proportionalziffern 1" nine.fitted
Substitution2: "'onum' Minuskelziffern 1" nine.taboldstyle
Colour: ff00ff
EndChar

StartChar: colon
Encoding: 58 58 18
Width: 220
VWidth: 999
Flags: HW
HStem: 39 112<80.3677 154.353> 302 112<80.3677 154.353>
VStem: 61 112<55.2811 131.461 318.281 394.461>
LayerCount: 2
Fore
SplineSet
136.669921875 356 m 1
 137.520507812 360 l 1
 152.353515625 386.5 170.205078125 401.799804688 202.998046875 414 c 1
 206.998046875 414 l 1
 233.766601562 403.5 246.314453125 388.200195312 249.520507812 360 c 1
 248.669921875 356 l 1
 231.625976562 323.799804688 212.879882812 309 183.192382812 302 c 1
 179.192382812 302 l 1
 149.479492188 309 138.349609375 322.5 136.669921875 356 c 1
80.767578125 93 m 1
 81.6181640625 97 l 1
 96.451171875 123.5 114.302734375 138.799804688 147.095703125 151 c 1
 151.095703125 151 l 1
 177.864257812 140.5 190.412109375 125.200195312 193.618164062 97 c 1
 192.767578125 93 l 1
 175.723632812 60.7998046875 156.977539062 46 127.290039062 39 c 1
 123.290039062 39 l 1
 93.5771484375 46 82.447265625 59.5 80.767578125 93 c 1
EndSplineSet
Colour: ff00ff
EndChar

StartChar: less
Encoding: 60 60 19
Width: 487
VWidth: 999
Flags: HW
HStem: 73 331
DStem2: 49 263 122 239 0.940425 0.34<60.4911 397.706> 122 239 49 215 0.939653 -0.34213<0 337.557>
LayerCount: 2
Fore
SplineSet
172.80078125 239 m 1
 465.14453125 123 l 1
 454.516601562 73 l 1
 94.69921875 215 l 1
 104.90234375 263 l 1
 524.873046875 404 l 1
 514.245117188 354 l 1
 172.80078125 239 l 1
EndSplineSet
EndChar

StartChar: equal
Encoding: 61 61 20
Width: 527
VWidth: 999
Flags: HW
HStem: 144 49<66 461> 269 49<66 461>
LayerCount: 2
Fore
SplineSet
528.592773438 318 m 1
 518.177734375 269 l 1
 123.177734375 269 l 1
 133.592773438 318 l 1
 528.592773438 318 l 1
502.0234375 193 m 1
 491.608398438 144 l 1
 96.6083984375 144 l 1
 107.0234375 193 l 1
 502.0234375 193 l 1
EndSplineSet
AlternateSubs2: "'aalt' Alle Alternativen zeigen 1" equal.superior
Substitution2: "'sinf' Wissenschaftliche Indices 1" equal.inferior
Substitution2: "'sups' Hochgestellte 1" equal.superior
EndChar

StartChar: greater
Encoding: 62 62 21
Width: 487
VWidth: 999
Flags: HW
HStem: 71 331
DStem2: 366 236 439 260 0.939653 -0.34213<-337.557 0> 439 212 366 236 0.940425 0.34<-397.706 -60.4911>
LayerCount: 2
Fore
SplineSet
416.163085938 236 m 1
 123.8203125 352 l 1
 134.447265625 402 l 1
 494.264648438 260 l 1
 484.061523438 212 l 1
 64.091796875 71 l 1
 74.7197265625 121 l 1
 416.163085938 236 l 1
EndSplineSet
Colour: ff00ff
EndChar

StartChar: question
Encoding: 63 63 22
Width: 405
VWidth: 487
Flags: HW
HStem: -10 112<143.368 217.353> 619 40<136.736 250.119>
VStem: 124 112<6.28114 82.4613> 167 26<174.002 289.255> 294 75<434.552 577.274>
LayerCount: 2
Fore
SplineSet
326.572265625 619 m 0
 270.572265625 619 219.157226562 570 183.591796875 525 c 1
 170.8046875 526 l 1
 169.045898438 593 l 1
 172.896484375 597 l 1
 201.75390625 617.5 271.575195312 659 344.075195312 659 c 0
 446.075195312 659 496.321289062 599 476.978515625 508 c 0
 460.186523438 429 391.833984375 385 337.607421875 351 c 0
 310.994140625 334 287.592773438 318 274.979492188 301 c 0
 256.666015625 276 246.564453125 252 241.462890625 228 c 2
 232.110351562 184 l 2
 230.622070312 177 224.984375 174 216.984375 174 c 0
 208.984375 174 204.622070312 177 206.110351562 184 c 2
 215.887695312 230 l 2
 225.028320312 273 239.568359375 332 317.109375 391 c 0
 364.974609375 428 391.138671875 457 401.12890625 504 c 0
 414.944335938 569 383.572265625 619 326.572265625 619 c 0
133.352539062 44 m 1
 134.203125 48 l 1
 149.03515625 74.5 166.887695312 89.7998046875 199.680664062 102 c 1
 203.680664062 102 l 1
 230.44921875 91.5 242.997070312 76.2001953125 246.203125 48 c 1
 245.352539062 44 l 1
 228.30859375 11.7998046875 209.5625 -3 179.874023438 -10 c 1
 175.874023438 -10 l 1
 146.162109375 -3 135.032226562 10.5 133.352539062 44 c 1
EndSplineSet
Colour: ff80cc
EndChar

StartChar: at
Encoding: 64 64 23
Width: 895
VWidth: 999
Flags: HMW
HStem: -158 33<366.698 569.227> 27 43<368.151 451.044> 27 35<536.5 668.322> 379 31<449.098 547.769> 581 30<366.475 546.302>
VStem: 59 80<106.897 345.058> 273 73<90.7683 252.641> 760 79<177.345 388.516>
LayerCount: 2
Fore
SplineSet
636.16796875 316 m 0
 644.245117188 354 620.55859375 379 584.55859375 379 c 0
 567.55859375 379 522.645507812 370 486.056640625 339 c 0
 424.215820312 288 393.612304688 224 380.434570312 162 c 0
 370.231445312 114 375.87890625 70 438.87890625 70 c 0
 473.87890625 70 534.995117188 127 581.51171875 200 c 0
 601.100585938 231 628.94140625 282 636.16796875 316 c 0
598.729492188 74 m 0
 596.603515625 64 605.178710938 62 607.178710938 62 c 0
 709.178710938 62 783.168945312 109 818.453125 275 c 0
 862.239257812 481 707.495117188 581 582.495117188 581 c 0
 430.495117188 581 240.6015625 478 190.2265625 241 c 0
 158.342773438 91 188.430664062 -125 446.430664062 -125 c 0
 531.430664062 -125 598.319335938 -102 661.458984375 -59 c 1
 670.6328125 -77 l 1
 600.85546875 -123 533.416015625 -158 420.416015625 -158 c 0
 181.416015625 -158 61.1259765625 10 106.400390625 223 c 0
 152.099609375 438 373.872070312 611 598.872070312 611 c 0
 813.872070312 611 938.689453125 469 898.94140625 282 c 0
 874.709960938 168 774.739257812 27 556.739257812 27 c 0
 527.739257812 27 526.052734375 52 529.454101562 68 c 0
 532.642578125 83 544.53125 106 557.844726562 131 c 1
 556.057617188 132 l 1
 496.328125 58 436.1640625 29 401.1640625 29 c 0
 301.1640625 29 297.018554688 113 305.521484375 153 c 0
 335.916992188 296 487.1484375 410 593.1484375 410 c 0
 626.1484375 410 656.53515625 393 661.0078125 367 c 1
 671.109375 391 l 1
 726.873046875 404 l 1
 740.810546875 399 l 1
 625.970703125 141 l 2
 614.231445312 114 600.110351562 80.5 598.729492188 74 c 0
EndSplineSet
EndChar

StartChar: A
Encoding: 65 65 24
Width: 629
Flags: HMW
HStem: -3 21G<22 66.5 90 104.177 499.931 511.5 588 604.5> 230 44<198.642 407.322> 638 20G<263 385>
DStem2: 16 -3 178.974 228.261 0.407548 0.913184<57.2509 287.455 329.137 596.593> 339 658 306.032 521.764 0.382928 -0.923778<113.228 379.463>
AnchorPoint: "unten_punkt" 247.044 -108 basechar 0
AnchorPoint: "unten_anhang" 59.7002 8 basechar 0
AnchorPoint: "top_akzent" 491.62 798 basechar 0
AnchorPoint: "top_punkt" 470.79 700 basechar 0
LayerCount: 2
Fore
SplineSet
465.859375 275.5 m 1
 453.774414062 345.200195312 437.946289062 427.400390625 416.912109375 521.799804688 c 1
 414.912109375 521.799804688 l 1
 257.244140625 275.900390625 l 1
 288.859375 275.5 332.340820312 274 361.240234375 274 c 0
 390.940429688 274 432.7890625 274.700195312 465.859375 275.5 c 1
227.526367188 228.299804688 m 1
 173.227539062 140.799804688 124.791992188 58.2998046875 95.3623046875 -3 c 1
 84 0 62 0 51 0 c 0
 40 0 28 0 15.3623046875 -3 c 1
 163.336914062 218 307.674804688 436 450.862304688 658 c 1
 478.862304688 658 l 1
 524.3125 439 583.830078125 98 612.362304688 -3 c 1
 596 0 570 0 553 0 c 0
 536 0 520 0 502.362304688 -3 c 1
 500.981445312 19.2001953125 494.9609375 97.2001953125 473.827148438 228.299804688 c 1
 436.318359375 229.200195312 394.887695312 230 356.887695312 230 c 0
 322.387695312 230 265.717773438 229.200195312 227.526367188 228.299804688 c 1
EndSplineSet
Position2: "'cpsp' Versalabstaende 1" dx=5 dy=0 dh=10 dv=0
Substitution2: "'c2sc' Versale nach Kapitaelchen 1" a.sc
EndChar

StartChar: B
Encoding: 66 66 25
Width: 616
VWidth: 999
Flags: HW
HStem: -3 43<174.577 403.148> 328 43<190 363.242> 605 43<172.065 358.947>
VStem: 104 86<52.3754 328 371 597.325> 408 87<424.724 559.411> 455 99<94.8914 252.437>
AnchorPoint: "unten_punkt" 252.044 -108 basechar 0
AnchorPoint: "unten_anhang" 257 0 basechar 0
AnchorPoint: "top_punkt" 437.79 700 basechar 0
AnchorPoint: "top_akzent" 451.62 798 basechar 0
LayerCount: 2
Fore
SplineSet
308.819335938 559 m 2
 268.858398438 371 l 1
 346.858398438 371 l 2
 429.858398438 371 492.172851562 396 510.239257812 481 c 0
 531.920898438 583 465.596679688 605 409.596679688 605 c 0
 328.596679688 605 315.897460938 592.299804688 308.819335938 559 c 2
259.71875 328 m 1
 208.705078125 88 l 2
 201.690429688 55 225.501953125 40 295.501953125 40 c 0
 439.702148438 40 475.383789062 95.900390625 490.072265625 165 c 0
 509.202148438 255 469.71875 328 352.71875 328 c 2
 259.71875 328 l 1
284.098632812 645 m 0
 334.098632812 645 376.736328125 648 411.736328125 648 c 0
 597.736328125 648 614.03125 560 599.790039062 493 c 0
 588.099609375 438 534.833984375 385 478.520507812 360 c 1
 560.206054688 335 613.515625 280 593.110351562 184 c 0
 574.830078125 98 504.362304688 -3 305.362304688 -3 c 0
 216.362304688 -3 209 0 147 0 c 0
 112 0 94.3623046875 -3 94.3623046875 -3 c 1
 94 0 l 1
 113.478515625 54 130.569335938 125 146.51171875 200 c 2
 198.587890625 445 l 2
 214.529296875 520 226.983398438 588 231.098632812 645 c 1
 233.736328125 648 l 1
 233.736328125 648 250.098632812 645 284.098632812 645 c 0
EndSplineSet
Position2: "'cpsp' Versalabstaende 1" dx=5 dy=0 dh=10 dv=0
Substitution2: "'c2sc' Versale nach Kapitaelchen 1" b.sc
EndChar

StartChar: C
Encoding: 67 67 26
Width: 677
VWidth: 999
Flags: HW
HStem: -10 51<293.154 483.346> 611 47<286.061 475.844>
VStem: 52 103<205.515 435.455>
AnchorPoint: "unten_punkt" 361.619 -110 basechar 0
AnchorPoint: "unten_anhang" 385.512 -7 basechar 0
AnchorPoint: "top_punkt" 519.79 700 basechar 0
AnchorPoint: "top_akzent" 540.62 798 basechar 0
LayerCount: 2
Fore
SplineSet
519.862304688 658 m 0
 641.862304688 658 728.296875 613 728.296875 613 c 1
 729.659179688 610 l 1
 707.380859375 560.700195312 700.505859375 550 686.065429688 499 c 1
 675.853515625 498 l 1
 652.283203125 580 585.872070312 611 495.872070312 611 c 0
 413.872070312 611 269.142578125 537 225.994140625 334 c 0
 194.9609375 188 238.71484375 41 393.71484375 41 c 0
 486.71484375 41 541.028320312 66 628.608398438 144 c 1
 648.569335938 125 l 1
 561.65234375 36 470.874023438 -10 373.874023438 -10 c 0
 158.874023438 -10 84.7333984375 154 118.955078125 315 c 0
 160.829101562 512 350.862304688 658 519.862304688 658 c 0
EndSplineSet
Position2: "'cpsp' Versalabstaende 1" dx=5 dy=0 dh=10 dv=0
Substitution2: "'c2sc' Versale nach Kapitaelchen 1" c.sc
EndChar

StartChar: D
Encoding: 68 68 27
Width: 710
VWidth: 999
Flags: HW
HStem: -2 44<171.537 435.266> 604 44<172.393 392.698>
VStem: 104 86<49.3073 594.385> 555 103<179.784 425.325>
AnchorPoint: "unten_punkt" 259.257 -107 basechar 0
AnchorPoint: "unten_anhang" 282.851 4 basechar 0
AnchorPoint: "top_punkt" 457.79 700 basechar 0
AnchorPoint: "top_akzent" 478.62 798 basechar 0
LayerCount: 2
Fore
SplineSet
207.4296875 82 m 2
 200.627929688 50 209.927734375 42 307.927734375 42 c 0
 448.927734375 42 572.4296875 82 615.366210938 284 c 0
 648.099609375 438 618.383789062 604 402.383789062 604 c 0
 353.383789062 604 317.321289062 599 309.881835938 564 c 2
 207.4296875 82 l 2
284.098632812 645 m 0
 348.098632812 645 385.736328125 648 449.736328125 648 c 0
 641.736328125 648 763.002929688 494 723.467773438 308 c 0
 671.178710938 62 470.575195312 -2 329.575195312 -2 c 0
 226.575195312 -2 218 0 147 0 c 0
 112 0 94.3623046875 -3 94.3623046875 -3 c 1
 94 0 l 1
 113.478515625 54 130.569335938 125 146.51171875 200 c 2
 198.587890625 445 l 2
 214.529296875 520 226.983398438 588 231.098632812 645 c 1
 233.736328125 648 l 1
 233.736328125 648 250.098632812 645 284.098632812 645 c 0
EndSplineSet
Position2: "'cpsp' Versalabstaende 1" dx=5 dy=0 dh=10 dv=0
Substitution2: "'c2sc' Versale nach Kapitaelchen 1" d.sc
EndChar

StartChar: E
Encoding: 69 69 28
Width: 538
VWidth: 999
Flags: HW
HStem: 0 56<194.662 417.584> 317 50<190 404.78> 589 56<194.662 419.27>
VStem: 104 86<58.188 317 367 587.818>
AnchorPoint: "unten_anhang" 283.851 4 basechar 0
AnchorPoint: "unten_punkt" 260.257 -107 basechar 0
AnchorPoint: "top_punkt" 432.79 700 basechar 0
AnchorPoint: "top_akzent" 458.108 805 basechar 0
LayerCount: 2
Fore
SplineSet
232.51171875 200 m 2
 228.897460938 183 208.004882812 80 209.903320312 56 c 1
 343.903320312 56 494.454101562 68 494.454101562 68 c 1
 495.603515625 64 l 1
 492.903320312 56 488.71484375 41 486.588867188 31 c 0
 484.463867188 21 483.975585938 14 482 0 c 1
 479.362304688 -3 l 1
 463.787109375 -1 441 0 420 0 c 2
 147 0 l 2
 112 0 94.3623046875 -3 94.3623046875 -3 c 1
 94 0 l 1
 113.478515625 54 130.569335938 125 146.51171875 200 c 2
 198.587890625 445 l 2
 214.529296875 520 226.983398438 588 231.098632812 645 c 1
 233.736328125 648 l 1
 233.736328125 648 250.098632812 645 284.098632812 645 c 2
 547.098632812 645 l 2
 568.098632812 645 591.311523438 646 607.736328125 648 c 1
 609.098632812 645 l 1
 605.123046875 631 600.72265625 615 599.021484375 607 c 0
 597.108398438 598 596.196289062 589 595.495117188 581 c 1
 592.645507812 577 l 1
 592.645507812 577 457.196289062 589 323.196289062 589 c 1
 311.094726562 565 288.201171875 462 284.587890625 445 c 2
 268.0078125 367 l 1
 386.0078125 367 433.071289062 372 493.133789062 377 c 1
 495.49609375 374 l 1
 491.583007812 365 487.607421875 351 485.694335938 342 c 0
 483.78125 333 481.805664062 319 481.892578125 310 c 1
 478.254882812 307 l 1
 410.743164062 314 305.380859375 317 257.380859375 317 c 1
 232.51171875 200 l 2
EndSplineSet
Position2: "'cpsp' Versalabstaende 1" dx=5 dy=0 dh=10 dv=0
Substitution2: "'c2sc' Versale nach Kapitaelchen 1" e.sc
EndChar

StartChar: F
Encoding: 70 70 29
Width: 504
VWidth: 999
Flags: HW
HStem: -3 21G<94 147 147 200> 317 50<190 404.78> 589 56<194.662 419.27>
VStem: 104 86<2.67992 317 367 587.818>
AnchorPoint: "unten_anhang" 150.787 -1 basechar 0
AnchorPoint: "unten_punkt" 183.406 -111 basechar 0
AnchorPoint: "top_punkt" 441.79 700 basechar 0
AnchorPoint: "top_akzent" 461.62 798 basechar 0
LayerCount: 2
Fore
SplineSet
544.098632812 645 m 2
 568.098632812 645 591.311523438 646 607.736328125 648 c 1
 609.098632812 645 l 1
 605.123046875 631 601.572265625 619 599.872070312 611 c 0
 597.958984375 602 596.196289062 589 595.495117188 581 c 1
 592.645507812 577 l 1
 592.645507812 577 457.196289062 589 323.196289062 589 c 1
 311.094726562 565 288.201171875 462 284.587890625 445 c 2
 268.0078125 367 l 1
 386.0078125 367 433.071289062 372 493.133789062 377 c 1
 495.49609375 374 l 1
 491.583007812 365 487.607421875 351 485.694335938 342 c 0
 483.78125 333 481.805664062 319 481.892578125 310 c 1
 478.254882812 307 l 1
 410.743164062 314 305.380859375 317 257.380859375 317 c 1
 232.51171875 200 l 2
 216.569335938 125 204.116210938 57 200 0 c 1
 197.362304688 -3 l 1
 197.362304688 -3 181 0 147 0 c 0
 112 0 94.3623046875 -3 94.3623046875 -3 c 1
 94 0 l 1
 113.478515625 54 130.569335938 125 146.51171875 200 c 2
 198.587890625 445 l 2
 214.529296875 520 226.983398438 588 231.098632812 645 c 1
 233.736328125 648 l 1
 233.736328125 648 250.098632812 645 284.098632812 645 c 2
 544.098632812 645 l 2
EndSplineSet
Position2: "'cpsp' Versalabstaende 1" dx=5 dy=0 dh=10 dv=0
Substitution2: "'c2sc' Versale nach Kapitaelchen 1" f.sc
EndChar

StartChar: G
Encoding: 71 71 30
Width: 717
VWidth: 999
Flags: HMW
HStem: -10 46<296.87 519.78> 611 47<291.555 487.078>
VStem: 52 103<200.622 438.62> 546 86<83.5114 304.327>
AnchorPoint: "unten_anhang" 371.425 2 basechar 0
AnchorPoint: "unten_punkt" 357.406 -111 basechar 0
AnchorPoint: "top_punkt" 527.79 700 basechar 0
AnchorPoint: "top_akzent" 548.62 798 basechar 0
LayerCount: 2
Fore
SplineSet
570.869140625 117 m 1
 585.310546875 192 597.138671875 250 601.254882812 307 c 1
 603.892578125 310 l 1
 603.892578125 310 620.254882812 307 654.254882812 307 c 0
 689.254882812 307 706.892578125 310 706.892578125 310 c 1
 707.254882812 307 l 1
 687.989257812 254 677.061523438 212 661.120117188 137 c 2
 659.844726562 131 l 2
 657.506835938 120 653.216796875 93.7001953125 659.642578125 83 c 1
 659.004882812 80 l 1
 579.473632812 23.400390625 490.374023438 -10 373.874023438 -10 c 0
 172.874023438 -10 82.6083984375 144 119.380859375 317 c 0
 166.142578125 537 368.862304688 658 540.862304688 658 c 0
 662.862304688 658 759.296875 613 759.296875 613 c 1
 760.659179688 610 l 1
 738.380859375 560.700195312 729.380859375 540 714.940429688 489 c 1
 704.727539062 488 l 1
 675.881835938 564 606.872070312 611 516.872070312 611 c 0
 381.872070312 611 261.703125 502 224.505859375 327 c 0
 196.448242188 195 228.65234375 36 406.65234375 36 c 0
 460.65234375 36 520.927734375 42 561.729492188 74 c 1
 570.869140625 117 l 1
EndSplineSet
Position2: "'cpsp' Versalabstaende 1" dx=5 dy=0 dh=10 dv=0
Substitution2: "'c2sc' Versale nach Kapitaelchen 1" g.sc
EndChar

StartChar: grave
Encoding: 96 96 31
Width: 392
VWidth: 999
Flags: HW
LayerCount: 2
Fore
SplineSet
326.577148438 699 m 1
 369.794921875 573 l 2
 372.668945312 563 372.181640625 556 370.693359375 549 c 0
 369.630859375 544 361.35546875 538 353.35546875 538 c 0
 347.35546875 538 341.41796875 543 328.606445312 558 c 2
 237.775390625 667 l 1
 242.11328125 678 l 1
 251.388671875 684 278.001953125 701 312.001953125 701 c 0
 317.001953125 701 322.790039062 700 326.577148438 699 c 1
EndSplineSet
Substitution2: "'case' Versalformen 1" grave.cap
Colour: ff00ff
EndChar

StartChar: ograve
Encoding: 242 242 32
Width: 500
VWidth: 999
Flags: HW
HStem: -10 40<195.326 314.337> 399 40<184.058 317.876>
VStem: 38 88<109.697 316.694> 374 88<108.595 325.77>
LayerCount: 2
Fore
SplineSet
376.625 671 m 1
 419.84375 545 l 2
 422.717773438 535 422.229492188 528 420.7421875 521 c 0
 419.678710938 516 411.404296875 510 403.404296875 510 c 0
 397.404296875 510 391.466796875 515 378.655273438 530 c 2
 287.823242188 639 l 1
 292.162109375 650 l 1
 301.4375 656 328.05078125 673 362.05078125 673 c 0
 367.05078125 673 372.837890625 672 376.625 671 c 1
81.57421875 205 m 0
 111.756835938 347 216.3125 439 347.3125 439 c 0
 482.3125 439 536.39453125 350 507.487304688 214 c 0
 479.642578125 83 379.874023438 -10 247.874023438 -10 c 0
 114.874023438 -10 56.0673828125 85 81.57421875 205 c 0
331.810546875 399 m 0
 237.810546875 399 191.6796875 309 173.1875 222 c 0
 156.8203125 145 159.376953125 30 265.376953125 30 c 0
 332.376953125 30 395.447265625 100.900390625 415.661132812 196 c 0
 441.380859375 317 437.810546875 399 331.810546875 399 c 0
EndSplineSet
Substitution2: "'smcp' Gemeine nach Kapitaelchen 1" ograve.sc
AlternateSubs2: "'aalt' Alle Alternativen zeigen 1" ograve.sc
Colour: ff00ff
EndChar

StartChar: oacute
Encoding: 243 243 33
Width: 500
VWidth: 999
Flags: HW
HStem: -10 40<195.326 314.337> 399 40<184.058 317.876>
VStem: 38 88<109.697 316.694> 374 88<108.595 325.77>
LayerCount: 2
Fore
SplineSet
422.625 671 m 1
 425.837890625 672 432.05078125 673 437.05078125 673 c 0
 443.450195312 673 468.837890625 672 487.162109375 650 c 1
 487.823242188 639 l 1
 349.655273438 530 l 2
 331.466796875 515 322.616210938 511 315.616210938 511 c 0
 308.616210938 511 302.891601562 517 304.379882812 524 c 0
 306.760742188 535.200195312 310.91015625 539.200195312 321.731445312 552 c 2
 422.625 671 l 1
81.57421875 205 m 0
 111.756835938 347 216.3125 439 347.3125 439 c 0
 482.3125 439 536.39453125 350 507.487304688 214 c 0
 479.642578125 83 379.874023438 -10 247.874023438 -10 c 0
 114.874023438 -10 56.0673828125 85 81.57421875 205 c 0
331.810546875 399 m 0
 237.810546875 399 191.6796875 309 173.1875 222 c 0
 156.8203125 145 159.376953125 30 265.376953125 30 c 0
 332.376953125 30 395.447265625 100.900390625 415.661132812 196 c 0
 441.380859375 317 437.810546875 399 331.810546875 399 c 0
EndSplineSet
Substitution2: "'smcp' Gemeine nach Kapitaelchen 1" oacute.sc
AlternateSubs2: "'aalt' Alle Alternativen zeigen 1" oacute.sc
Colour: ff00ff
EndChar

StartChar: ocircumflex
Encoding: 244 244 34
Width: 500
VWidth: 999
Flags: HW
HStem: -10 40<195.326 314.337> 399 40<184.058 317.876>
VStem: 38 88<109.697 316.694> 125 253<517 517> 374 88<108.595 325.77>
LayerCount: 2
Fore
SplineSet
414.311523438 646 m 1
 433.321289062 599 460.393554688 557 487.891601562 517 c 1
 463.916015625 503 l 1
 431.080078125 532 403.393554688 557 377.045898438 593 c 1
 331.96875 555 294.655273438 530 250.916015625 503 c 1
 233.891601562 517 l 1
 278.393554688 557 325.534179688 600 364.311523438 646 c 1
 414.311523438 646 l 1
81.57421875 205 m 0
 111.756835938 347 216.3125 439 347.3125 439 c 0
 482.3125 439 536.39453125 350 507.487304688 214 c 0
 479.642578125 83 379.874023438 -10 247.874023438 -10 c 0
 114.874023438 -10 56.0673828125 85 81.57421875 205 c 0
331.810546875 399 m 0
 237.810546875 399 191.6796875 309 173.1875 222 c 0
 156.8203125 145 159.376953125 30 265.376953125 30 c 0
 332.376953125 30 395.447265625 100.900390625 415.661132812 196 c 0
 441.380859375 317 437.810546875 399 331.810546875 399 c 0
EndSplineSet
Substitution2: "'smcp' Gemeine nach Kapitaelchen 1" ocircumflex.sc
AlternateSubs2: "'aalt' Alle Alternativen zeigen 1" ocircumflex.sc
Colour: ff00ff
EndChar

StartChar: otilde
Encoding: 245 245 35
Width: 500
VWidth: 999
Flags: HW
HStem: -10 40<195.326 314.337> 399 40<184.058 317.876> 526 44<263 350> 574 46<145 236> 613 10
VStem: 38 88<109.697 316.694> 374 88<108.595 325.77>
LayerCount: 2
Fore
SplineSet
435.157226562 570 m 0
 457.157226562 570 473.283203125 580 496.209960938 622 c 1
 518.934570312 616 l 1
 494.181640625 556 458.8046875 526 412.8046875 526 c 0
 390.8046875 526 372.35546875 538 354.331054688 552 c 0
 338.668945312 563 322.0078125 574 305.0078125 574 c 0
 279.0078125 574 262.819335938 559 245.8046875 526 c 1
 222.8671875 531 l 1
 249.408203125 590 278.78515625 620 321.78515625 620 c 0
 351.78515625 620 370.809570312 606 387.833007812 592 c 0
 401.283203125 580 416.157226562 570 435.157226562 570 c 0
81.57421875 205 m 0
 111.756835938 347 216.3125 439 347.3125 439 c 0
 482.3125 439 536.39453125 350 507.487304688 214 c 0
 479.642578125 83 379.874023438 -10 247.874023438 -10 c 0
 114.874023438 -10 56.0673828125 85 81.57421875 205 c 0
331.810546875 399 m 0
 237.810546875 399 191.6796875 309 173.1875 222 c 0
 156.8203125 145 159.376953125 30 265.376953125 30 c 0
 332.376953125 30 395.447265625 100.900390625 415.661132812 196 c 0
 441.380859375 317 437.810546875 399 331.810546875 399 c 0
EndSplineSet
Substitution2: "'smcp' Gemeine nach Kapitaelchen 1" otilde.sc
AlternateSubs2: "'aalt' Alle Alternativen zeigen 1" otilde.sc
Colour: ff00ff
EndChar

StartChar: odieresis
Encoding: 246 246 36
Width: 500
VWidth: 999
Flags: HW
HStem: -10 40<195.326 314.337> 399 40<184.058 317.876> 527 95<120.016 197.984 289.016 366.984>
VStem: 38 88<109.697 316.694> 112 94<534.394 614.312> 281 94<534.394 614.312> 374 88<108.595 325.77>
LayerCount: 2
Fore
SplineSet
234.0078125 574 m 0
 239.534179688 600 265.209960938 622 291.209960938 622 c 0
 317.209960938 622 333.534179688 600 328.0078125 574 c 0
 322.481445312 548 297.017578125 527 271.017578125 527 c 0
 245.017578125 527 228.481445312 548 234.0078125 574 c 0
403.0078125 574 m 0
 408.534179688 600 434.209960938 622 460.209960938 622 c 0
 486.209960938 622 502.534179688 600 497.0078125 574 c 0
 491.481445312 548 466.017578125 527 440.017578125 527 c 0
 414.017578125 527 397.481445312 548 403.0078125 574 c 0
81.57421875 205 m 0
 111.756835938 347 216.3125 439 347.3125 439 c 0
 482.3125 439 536.39453125 350 507.487304688 214 c 0
 479.642578125 83 379.874023438 -10 247.874023438 -10 c 0
 114.874023438 -10 56.0673828125 85 81.57421875 205 c 0
331.810546875 399 m 0
 237.810546875 399 191.6796875 309 173.1875 222 c 0
 156.8203125 145 159.376953125 30 265.376953125 30 c 0
 332.376953125 30 395.447265625 100.900390625 415.661132812 196 c 0
 441.380859375 317 437.810546875 399 331.810546875 399 c 0
EndSplineSet
Substitution2: "'smcp' Gemeine nach Kapitaelchen 1" odieresis.sc
AlternateSubs2: "'aalt' Alle Alternativen zeigen 1" odieresis.sc
Colour: ff00ff
EndChar

StartChar: divide
Encoding: 247 247 37
Width: 527
VWidth: 999
Flags: HW
HStem: 53.6 93.9<234.492 296.502> 208 49<66 461> 321.6 93.9<234.492 296.502>
VStem: 218.3 93.9<67.2645 131.114> 218.3 93.9<335.264 399.114>
LayerCount: 2
Fore
SplineSet
296.287109375 366.900390625 m 1
 296.98828125 370.200195312 l 1
 309.506835938 392.400390625 324.227539062 405.200195312 351.817382812 415.5 c 1
 355.216796875 415.5 l 1
 377.646484375 406.700195312 388.026367188 393.900390625 390.788085938 370.200195312 c 1
 390.086914062 366.900390625 l 1
 375.748046875 339.900390625 360.211914062 327.5 335.2578125 321.599609375 c 1
 331.858398438 321.599609375 l 1
 306.912109375 327.5 297.614257812 338.799804688 296.287109375 366.900390625 c 1
239.322265625 98.900390625 m 1
 240.0234375 102.200195312 l 1
 252.541992188 124.400390625 267.262695312 137.200195312 294.852539062 147.5 c 1
 298.251953125 147.5 l 1
 320.681640625 138.700195312 331.060546875 125.900390625 333.823242188 102.200195312 c 1
 333.122070312 98.900390625 l 1
 318.783203125 71.900390625 303.247070312 59.5 278.29296875 53.599609375 c 1
 274.892578125 53.599609375 l 1
 249.947265625 59.5 240.649414062 70.7998046875 239.322265625 98.900390625 c 1
515.626953125 257 m 1
 505.211914062 208 l 1
 110.211914062 208 l 1
 120.626953125 257 l 1
 515.626953125 257 l 1
EndSplineSet
Colour: ff00ff
EndChar

StartChar: ugrave
Encoding: 249 249 38
Width: 537
VWidth: 999
Flags: HW
HStem: -10 56<180.062 284.965> -3 21<380 389.667 455.5 464> 412 20<73 81 165 173 357 365 449 457>
VStem: 83 80<63.2634 426.335> 367 80<119.835 426.335>
LayerCount: 2
Fore
SplineSet
370.625 671 m 1
 413.84375 545 l 2
 416.717773438 535 416.229492188 528 414.7421875 521 c 0
 413.678710938 516 405.404296875 510 397.404296875 510 c 0
 391.404296875 510 385.466796875 515 372.655273438 530 c 2
 281.823242188 639 l 1
 286.162109375 650 l 1
 295.4375 656 322.05078125 673 356.05078125 673 c 0
 361.05078125 673 366.837890625 672 370.625 671 c 1
384.555664062 92 m 1
 340.71484375 41 273.874023438 -10 211.874023438 -10 c 0
 112.874023438 -10 95.7529296875 60 110.419921875 129 c 2
 135.926757812 249 l 2
 152.081054688 325 161.071289062 372 165.186523438 429 c 1
 167.82421875 432 l 1
 179.399414062 430 202.186523438 429 214.186523438 429 c 0
 226.186523438 429 249.399414062 430 261.82421875 432 c 1
 263.186523438 429 l 1
 243.920898438 376 231.868164062 324 215.926757812 249 c 2
 194.883789062 150 l 2
 175.116210938 57 205.27734375 46 239.77734375 46 c 0
 288.77734375 46 357.649414062 99.5 399.095703125 151 c 1
 419.926757812 249 l 2
 436.081054688 325 444.828125 371.799804688 449.186523438 429 c 1
 451.82421875 432 l 1
 463.399414062 430 486.186523438 429 498.186523438 429 c 0
 510.186523438 429 533.399414062 430 545.82421875 432 c 1
 547.186523438 429 l 1
 527.920898438 376 515.868164062 324 499.926757812 249 c 2
 487.810546875 192 l 2
 471.869140625 117 465.139648438 43 464 0 c 1
 461.362304688 -3 l 1
 448.787109375 -1 430.099609375 0 417.5 0 c 0
 403 0 396.0234375 -1.2998046875 382.362304688 -3 c 0
 376.362304688 -3 373.575195312 -2 374 0 c 2
 387.91796875 89 l 1
 384.555664062 92 l 1
EndSplineSet
Substitution2: "'smcp' Gemeine nach Kapitaelchen 1" ugrave.sc
AlternateSubs2: "'aalt' Alle Alternativen zeigen 1" ugrave.sc
Colour: ff00ff
EndChar

StartChar: uacute
Encoding: 250 250 39
Width: 537
VWidth: 999
Flags: HW
HStem: -10 56<180.062 284.965> -3 21<380 389.667 455.5 464> 412 20<73 81 165 173 357 365 449 457>
VStem: 83 80<63.2634 426.335> 367 80<119.835 426.335>
LayerCount: 2
Fore
SplineSet
448.625 671 m 1
 451.837890625 672 458.05078125 673 463.05078125 673 c 0
 469.450195312 673 494.837890625 672 513.162109375 650 c 1
 513.823242188 639 l 1
 375.655273438 530 l 2
 357.466796875 515 348.616210938 511 341.616210938 511 c 0
 334.616210938 511 328.891601562 517 330.379882812 524 c 0
 332.760742188 535.200195312 336.91015625 539.200195312 347.731445312 552 c 2
 448.625 671 l 1
384.555664062 92 m 1
 340.71484375 41 273.874023438 -10 211.874023438 -10 c 0
 112.874023438 -10 95.7529296875 60 110.419921875 129 c 2
 135.926757812 249 l 2
 152.081054688 325 161.071289062 372 165.186523438 429 c 1
 167.82421875 432 l 1
 179.399414062 430 202.186523438 429 214.186523438 429 c 0
 226.186523438 429 249.399414062 430 261.82421875 432 c 1
 263.186523438 429 l 1
 243.920898438 376 231.868164062 324 215.926757812 249 c 2
 194.883789062 150 l 2
 175.116210938 57 205.27734375 46 239.77734375 46 c 0
 288.77734375 46 357.649414062 99.5 399.095703125 151 c 1
 419.926757812 249 l 2
 436.081054688 325 444.828125 371.799804688 449.186523438 429 c 1
 451.82421875 432 l 1
 463.399414062 430 486.186523438 429 498.186523438 429 c 0
 510.186523438 429 533.399414062 430 545.82421875 432 c 1
 547.186523438 429 l 1
 527.920898438 376 515.868164062 324 499.926757812 249 c 2
 487.810546875 192 l 2
 471.869140625 117 465.139648438 43 464 0 c 1
 461.362304688 -3 l 1
 448.787109375 -1 430.099609375 0 417.5 0 c 0
 403 0 396.0234375 -1.2998046875 382.362304688 -3 c 0
 376.362304688 -3 373.575195312 -2 374 0 c 2
 387.91796875 89 l 1
 384.555664062 92 l 1
EndSplineSet
Substitution2: "'smcp' Gemeine nach Kapitaelchen 1" uacute.sc
AlternateSubs2: "'aalt' Alle Alternativen zeigen 1" uacute.sc
Colour: ff00ff
EndChar

StartChar: ucircumflex
Encoding: 251 251 40
Width: 537
VWidth: 999
Flags: HW
HStem: -10 56<180.062 284.965> -3 21<380 389.667 455.5 464> 412 20<73 81 165 173 357 365 449 457>
VStem: 83 80<63.2634 426.335> 129 253<517 517> 367 80<119.835 426.335>
LayerCount: 2
Fore
SplineSet
418.311523438 646 m 1
 437.321289062 599 464.393554688 557 491.891601562 517 c 1
 467.916015625 503 l 1
 435.080078125 532 407.393554688 557 381.045898438 593 c 1
 335.96875 555 298.655273438 530 254.916015625 503 c 1
 237.891601562 517 l 1
 282.393554688 557 329.534179688 600 368.311523438 646 c 1
 418.311523438 646 l 1
384.555664062 92 m 1
 340.71484375 41 273.874023438 -10 211.874023438 -10 c 0
 112.874023438 -10 95.7529296875 60 110.419921875 129 c 2
 135.926757812 249 l 2
 152.081054688 325 161.071289062 372 165.186523438 429 c 1
 167.82421875 432 l 1
 179.399414062 430 202.186523438 429 214.186523438 429 c 0
 226.186523438 429 249.399414062 430 261.82421875 432 c 1
 263.186523438 429 l 1
 243.920898438 376 231.868164062 324 215.926757812 249 c 2
 194.883789062 150 l 2
 175.116210938 57 205.27734375 46 239.77734375 46 c 0
 288.77734375 46 357.649414062 99.5 399.095703125 151 c 1
 419.926757812 249 l 2
 436.081054688 325 444.828125 371.799804688 449.186523438 429 c 1
 451.82421875 432 l 1
 463.399414062 430 486.186523438 429 498.186523438 429 c 0
 510.186523438 429 533.399414062 430 545.82421875 432 c 1
 547.186523438 429 l 1
 527.920898438 376 515.868164062 324 499.926757812 249 c 2
 487.810546875 192 l 2
 471.869140625 117 465.139648438 43 464 0 c 1
 461.362304688 -3 l 1
 448.787109375 -1 430.099609375 0 417.5 0 c 0
 403 0 396.0234375 -1.2998046875 382.362304688 -3 c 0
 376.362304688 -3 373.575195312 -2 374 0 c 2
 387.91796875 89 l 1
 384.555664062 92 l 1
EndSplineSet
Substitution2: "'smcp' Gemeine nach Kapitaelchen 1" ucircumflex.sc
AlternateSubs2: "'aalt' Alle Alternativen zeigen 1" ucircumflex.sc
Colour: ff00ff
EndChar

StartChar: ebreve
Encoding: 277 277 41
Width: 453
VWidth: 999
Flags: HW
HStem: -10 59<180.536 330.136> 233 40<125 322.997> 399 40<187.844 285.398> 501 57<163.292 295.981>
VStem: 34 88<110.038 233 273 312.177> 93 27<613.641 639.111> 323 89<244.5 350.727> 336 27<612.798 639.111>
LayerCount: 2
Fore
SplineSet
257.736328125 648 m 1
 257.470703125 595 292.606445312 558 346.606445312 558 c 0
 398.606445312 558 451.408203125 590 473.736328125 648 c 1
 498.185546875 636 l 1
 467.90625 550 393.491210938 501 334.491210938 501 c 0
 264.491210938 501 224.119140625 551 228.185546875 636 c 1
 257.736328125 648 l 1
183.028320312 273 m 1
 367.028320312 273 l 2
 377.028320312 273 382.090820312 278 384.00390625 287 c 0
 399.9453125 362 359.810546875 399 323.810546875 399 c 0
 300.810546875 399 222.133789062 377 183.028320312 273 c 1
414.10546875 104 m 1
 428.791992188 79 l 1
 379.739257812 27 307.874023438 -10 235.874023438 -10 c 0
 168.474609375 -10 116.524414062 14.7001953125 90.9033203125 56 c 0
 65.9482421875 96.2001953125 66.3720703125 152.299804688 78.4248046875 209 c 0
 109.669921875 356 237.3125 439 332.3125 439 c 0
 464.3125 439 482.994140625 334 465.138671875 250 c 0
 462.80078125 239 454.525390625 233 443.525390625 233 c 2
 171.525390625 233 l 1
 159.17578125 174.900390625 156.904296875 134.099609375 168.53125 106 c 0
 186.678710938 62 231.21484375 49 265.415039062 49 c 0
 320.415039062 49 371.028320312 66 414.10546875 104 c 1
EndSplineSet
Colour: ff00ff
EndChar

StartChar: Edotaccent
Encoding: 278 278 42
Width: 538
VWidth: 999
Flags: HW
HStem: 0 56<194.662 417.584> 317 50<190 404.78> 589 56<194.662 419.27> 729 104<234.542 317.458>
VStem: 104 86<58.188 317 367 587.818> 224 104<739.542 822.458>
LayerCount: 2
Fore
SplineSet
390.006835938 781 m 0
 395.958007812 809 425.059570312 833 453.059570312 833 c 0
 481.059570312 833 499.958007812 809 494.006835938 781 c 0
 488.0546875 753 458.954101562 729 430.954101562 729 c 0
 402.954101562 729 384.0546875 753 390.006835938 781 c 0
232.51171875 200 m 2
 228.897460938 183 208.004882812 80 209.903320312 56 c 1
 343.903320312 56 494.454101562 68 494.454101562 68 c 1
 495.603515625 64 l 1
 492.903320312 56 488.71484375 41 486.588867188 31 c 0
 484.463867188 21 483.975585938 14 482 0 c 1
 479.362304688 -3 l 1
 463.787109375 -1 441 0 420 0 c 2
 147 0 l 2
 112 0 94.3623046875 -3 94.3623046875 -3 c 1
 94 0 l 1
 113.478515625 54 130.569335938 125 146.51171875 200 c 2
 198.587890625 445 l 2
 214.529296875 520 226.983398438 588 231.098632812 645 c 1
 233.736328125 648 l 1
 233.736328125 648 250.098632812 645 284.098632812 645 c 2
 547.098632812 645 l 2
 568.098632812 645 591.311523438 646 607.736328125 648 c 1
 609.098632812 645 l 1
 605.123046875 631 600.72265625 615 599.021484375 607 c 0
 597.108398438 598 596.196289062 589 595.495117188 581 c 1
 592.645507812 577 l 1
 592.645507812 577 457.196289062 589 323.196289062 589 c 1
 311.094726562 565 288.201171875 462 284.587890625 445 c 2
 268.0078125 367 l 1
 386.0078125 367 433.071289062 372 493.133789062 377 c 1
 495.49609375 374 l 1
 491.583007812 365 487.607421875 351 485.694335938 342 c 0
 483.78125 333 481.805664062 319 481.892578125 310 c 1
 478.254882812 307 l 1
 410.743164062 314 305.380859375 317 257.380859375 317 c 1
 232.51171875 200 l 2
EndSplineSet
Position2: "'cpsp' Versalabstaende 1" dx=5 dy=0 dh=10 dv=0
Colour: ff00ff
EndChar

StartChar: edotaccent
Encoding: 279 279 43
Width: 453
VWidth: 999
Flags: HW
HStem: -10 59<180.536 330.136> 233 40<125 322.997> 399 40<187.844 285.398> 546 102<188.735 271.265>
VStem: 34 88<110.038 233 273 312.177> 179 102<555.735 638.265> 323 89<244.5 350.727>
LayerCount: 2
Fore
SplineSet
305.896484375 597 m 0
 311.635742188 624 340.736328125 648 367.736328125 648 c 0
 394.736328125 648 413.635742188 624 407.896484375 597 c 0
 402.157226562 570 373.055664062 546 346.055664062 546 c 0
 319.055664062 546 300.157226562 570 305.896484375 597 c 0
183.028320312 273 m 1
 367.028320312 273 l 2
 377.028320312 273 382.090820312 278 384.00390625 287 c 0
 399.9453125 362 359.810546875 399 323.810546875 399 c 0
 300.810546875 399 222.133789062 377 183.028320312 273 c 1
414.10546875 104 m 1
 428.791992188 79 l 1
 379.739257812 27 307.874023438 -10 235.874023438 -10 c 0
 168.474609375 -10 116.524414062 14.7001953125 90.9033203125 56 c 0
 65.9482421875 96.2001953125 66.3720703125 152.299804688 78.4248046875 209 c 0
 109.669921875 356 237.3125 439 332.3125 439 c 0
 464.3125 439 482.994140625 334 465.138671875 250 c 0
 462.80078125 239 454.525390625 233 443.525390625 233 c 2
 171.525390625 233 l 1
 159.17578125 174.900390625 156.904296875 134.099609375 168.53125 106 c 0
 186.678710938 62 231.21484375 49 265.415039062 49 c 0
 320.415039062 49 371.028320312 66 414.10546875 104 c 1
EndSplineSet
Colour: ff00ff
EndChar

StartChar: Eogonek
Encoding: 280 280 44
Width: 538
VWidth: 999
Flags: HW
HStem: -224 39<325.181 408.941> 0 25<394.256 430.88> 0 56<194.662 417.584> 317 50<190 404.78> 589 56<194.662 419.27>
VStem: 104 86<58.188 317 367 587.818> 251 60<-173.091 -74.5789>
LayerCount: 2
Fore
SplineSet
296.387695312 -224 m 0
 243.387695312 -224 209.9765625 -193 221.455078125 -139 c 0
 231.55078125 -91.5 283.900390625 -33.400390625 351.200195312 0 c 1
 147 0 l 2
 112 0 94.3623046875 -3 94.3623046875 -3 c 1
 94 0 l 1
 113.478515625 54 130.569335938 125 146.51171875 200 c 2
 198.587890625 445 l 2
 214.529296875 520 226.983398438 588 231.098632812 645 c 1
 233.736328125 648 l 1
 233.736328125 648 250.098632812 645 284.098632812 645 c 2
 547.098632812 645 l 2
 568.098632812 645 591.311523438 646 607.736328125 648 c 1
 609.098632812 645 l 1
 605.123046875 631 600.72265625 615 599.021484375 607 c 0
 597.108398438 598 596.196289062 589 595.495117188 581 c 1
 592.645507812 577 l 1
 592.645507812 577 457.196289062 589 323.196289062 589 c 1
 311.094726562 565 288.201171875 462 284.587890625 445 c 2
 268.0078125 367 l 1
 386.0078125 367 433.071289062 372 493.133789062 377 c 1
 495.49609375 374 l 1
 491.583007812 365 487.607421875 351 485.694335938 342 c 0
 483.78125 333 481.805664062 319 481.892578125 310 c 1
 478.254882812 307 l 1
 410.743164062 314 305.380859375 317 257.380859375 317 c 1
 232.51171875 200 l 2
 228.897460938 183 208.004882812 80 209.903320312 56 c 1
 343.903320312 56 494.454101562 68 494.454101562 68 c 1
 495.603515625 64 l 1
 492.903320312 56 488.71484375 41 486.588867188 31 c 0
 484.463867188 21 483.975585938 14 482 0 c 1
 479.362304688 -3 l 1
 468.16015625 -1.599609375 453.372070312 -0.599609375 438.157226562 -0.2001953125 c 1
 361.458007812 -4.900390625 294.697265625 -76.7001953125 284.217773438 -126 c 0
 277.416015625 -158 293.676757812 -185 329.676757812 -185 c 0
 359.676757812 -185 382.865234375 -170 407.329101562 -149 c 1
 420.62890625 -157 l 1
 386.638671875 -204 332.387695312 -224 296.387695312 -224 c 0
EndSplineSet
Position2: "'cpsp' Versalabstaende 1" dx=5 dy=0 dh=10 dv=0
Substitution2: "'c2sc' Versale nach Kapitaelchen 1" eogonek.sc
Colour: ff80cc
EndChar

StartChar: eogonek
Encoding: 281 281 45
Width: 453
VWidth: 999
Flags: HW
HStem: -193 44<294.832 363.751> -10 59<180.536 330.136> 233 40<125 322.997> 399 40<187.844 285.398>
VStem: 34 88<110.038 233 273 312.177> 223 66<-143.553 -49.2913> 323 89<244.5 350.727>
LayerCount: 2
Fore
SplineSet
183.028320312 273 m 1
 367.028320312 273 l 2
 377.028320312 273 382.090820312 278 384.00390625 287 c 0
 399.9453125 362 359.810546875 399 323.810546875 399 c 0
 300.810546875 399 222.133789062 377 183.028320312 273 c 1
414.10546875 104 m 1
 428.791992188 79 l 1
 414.704101562 64 398.712890625 50.400390625 381.362304688 38.400390625 c 1
 382.864257812 37 l 1
 316.38671875 -17 277.734375 -53 266.46875 -106 c 0
 262.004882812 -127 273.329101562 -149 299.329101562 -149 c 0
 316.329101562 -149 341.517578125 -134 358.706054688 -119 c 1
 361.493164062 -120 l 1
 371.879882812 -137 l 1
 337.865234375 -170 294.9765625 -193 260.9765625 -193 c 0
 211.9765625 -193 188.140625 -164 198.130859375 -117 c 0
 206.930664062 -75.599609375 239.022460938 -38 278.3671875 -5.7998046875 c 1
 264.29296875 -8.5 250.07421875 -10 235.874023438 -10 c 0
 168.474609375 -10 116.524414062 14.7001953125 90.9033203125 56 c 0
 65.9482421875 96.2001953125 66.3720703125 152.299804688 78.4248046875 209 c 0
 109.669921875 356 237.3125 439 332.3125 439 c 0
 464.3125 439 482.994140625 334 465.138671875 250 c 0
 462.80078125 239 454.525390625 233 443.525390625 233 c 2
 171.525390625 233 l 1
 159.17578125 174.900390625 156.904296875 134.099609375 168.53125 106 c 0
 186.678710938 62 231.21484375 49 265.415039062 49 c 0
 320.415039062 49 371.028320312 66 414.10546875 104 c 1
EndSplineSet
AlternateSubs2: "'aalt' Alle Alternativen zeigen 1" eogonek.sc
Substitution2: "'smcp' Gemeine nach Kapitaelchen 1" eogonek.sc
Colour: ff00ff
EndChar

StartChar: Ecaron
Encoding: 282 282 46
Width: 538
VWidth: 999
Flags: HW
HStem: 0 56<194.662 417.584> 317 50<190 404.78> 589 56<194.662 419.27> 697 115
VStem: 104 86<58.188 317 367 587.818> 167 244
LayerCount: 2
Fore
SplineSet
416.15234375 697 m 1
 394.016601562 734 365.393554688 764 335.344726562 792 c 1
 355.595703125 812 l 1
 390.982421875 795 420.944335938 776 448.629882812 751 c 1
 491.15625 777 527.1953125 796 568.595703125 812 c 1
 579.344726562 792 l 1
 535.180664062 763 496.37890625 731 459.15234375 697 c 1
 416.15234375 697 l 1
232.51171875 200 m 2
 228.897460938 183 208.004882812 80 209.903320312 56 c 1
 343.903320312 56 494.454101562 68 494.454101562 68 c 1
 495.603515625 64 l 1
 492.903320312 56 488.71484375 41 486.588867188 31 c 0
 484.463867188 21 483.975585938 14 482 0 c 1
 479.362304688 -3 l 1
 463.787109375 -1 441 0 420 0 c 2
 147 0 l 2
 112 0 94.3623046875 -3 94.3623046875 -3 c 1
 94 0 l 1
 113.478515625 54 130.569335938 125 146.51171875 200 c 2
 198.587890625 445 l 2
 214.529296875 520 226.983398438 588 231.098632812 645 c 1
 233.736328125 648 l 1
 233.736328125 648 250.098632812 645 284.098632812 645 c 2
 547.098632812 645 l 2
 568.098632812 645 591.311523438 646 607.736328125 648 c 1
 609.098632812 645 l 1
 605.123046875 631 600.72265625 615 599.021484375 607 c 0
 597.108398438 598 596.196289062 589 595.495117188 581 c 1
 592.645507812 577 l 1
 592.645507812 577 457.196289062 589 323.196289062 589 c 1
 311.094726562 565 288.201171875 462 284.587890625 445 c 2
 268.0078125 367 l 1
 386.0078125 367 433.071289062 372 493.133789062 377 c 1
 495.49609375 374 l 1
 491.583007812 365 487.607421875 351 485.694335938 342 c 0
 483.78125 333 481.805664062 319 481.892578125 310 c 1
 478.254882812 307 l 1
 410.743164062 314 305.380859375 317 257.380859375 317 c 1
 232.51171875 200 l 2
EndSplineSet
Position2: "'cpsp' Versalabstaende 1" dx=5 dy=0 dh=10 dv=0
Substitution2: "'c2sc' Versale nach Kapitaelchen 1" ecaron.sc
Colour: ff00ff
EndChar

StartChar: ecaron
Encoding: 283 283 47
Width: 453
VWidth: 999
Flags: HW
HStem: -10 59<180.536 330.136> 233 40<125 322.997> 399 40<187.844 285.398>
VStem: 34 88<110.038 233 273 312.177> 323 89<244.5 350.727>
LayerCount: 2
Fore
SplineSet
305.491210938 501 m 1
 286.481445312 548 259.045898438 593 232.123046875 631 c 1
 254.88671875 644 l 1
 287.72265625 615 315.408203125 590 341.755859375 554 c 1
 386.833007812 592 426.147460938 617 468.88671875 644 c 1
 485.123046875 631 l 1
 441.833007812 592 394.268554688 547 355.491210938 501 c 1
 305.491210938 501 l 1
183.028320312 273 m 1
 367.028320312 273 l 2
 377.028320312 273 382.090820312 278 384.00390625 287 c 0
 399.9453125 362 359.810546875 399 323.810546875 399 c 0
 300.810546875 399 222.133789062 377 183.028320312 273 c 1
414.10546875 104 m 1
 428.791992188 79 l 1
 379.739257812 27 307.874023438 -10 235.874023438 -10 c 0
 168.474609375 -10 116.524414062 14.7001953125 90.9033203125 56 c 0
 65.9482421875 96.2001953125 66.3720703125 152.299804688 78.4248046875 209 c 0
 109.669921875 356 237.3125 439 332.3125 439 c 0
 464.3125 439 482.994140625 334 465.138671875 250 c 0
 462.80078125 239 454.525390625 233 443.525390625 233 c 2
 171.525390625 233 l 1
 159.17578125 174.900390625 156.904296875 134.099609375 168.53125 106 c 0
 186.678710938 62 231.21484375 49 265.415039062 49 c 0
 320.415039062 49 371.028320312 66 414.10546875 104 c 1
EndSplineSet
AlternateSubs2: "'aalt' Alle Alternativen zeigen 1" ecaron.sc
Substitution2: "'smcp' Gemeine nach Kapitaelchen 1" ecaron.sc
Colour: ff00ff
EndChar

StartChar: Gcircumflex
Encoding: 284 284 48
Width: 717
VWidth: 999
Flags: HW
HStem: -10 46<296.87 519.78> 611 47<291.555 487.078> 690 115
VStem: 52 103<200.622 438.62> 243 243 546 86<83.5114 304.327>
LayerCount: 2
Fore
SplineSet
556.108398438 805 m 1
 578.456054688 769 606.8671875 738 637.127929688 711 c 1
 616.6640625 690 l 1
 581.490234375 708 551.528320312 727 523.842773438 752 c 1
 481.103515625 725 445.27734375 707 403.6640625 690 c 1
 394.127929688 711 l 1
 437.079101562 739 474.880859375 771 513.108398438 805 c 1
 556.108398438 805 l 1
570.869140625 117 m 1
 585.310546875 192 597.138671875 250 601.254882812 307 c 1
 603.892578125 310 l 1
 603.892578125 310 620.254882812 307 654.254882812 307 c 0
 689.254882812 307 706.892578125 310 706.892578125 310 c 1
 707.254882812 307 l 1
 687.989257812 254 677.061523438 212 661.120117188 137 c 2
 659.844726562 131 l 2
 657.506835938 120 653.216796875 93.7001953125 659.642578125 83 c 1
 659.004882812 80 l 1
 579.473632812 23.400390625 490.374023438 -10 373.874023438 -10 c 0
 172.874023438 -10 82.6083984375 144 119.380859375 317 c 0
 166.142578125 537 368.862304688 658 540.862304688 658 c 0
 662.862304688 658 759.296875 613 759.296875 613 c 1
 760.659179688 610 l 1
 738.380859375 560.700195312 729.380859375 540 714.940429688 489 c 1
 704.727539062 488 l 1
 675.881835938 564 606.872070312 611 516.872070312 611 c 0
 381.872070312 611 261.703125 502 224.505859375 327 c 0
 196.448242188 195 228.65234375 36 406.65234375 36 c 0
 460.65234375 36 520.927734375 42 561.729492188 74 c 1
 570.869140625 117 l 1
EndSplineSet
Position2: "'cpsp' Versalabstaende 1" dx=5 dy=0 dh=10 dv=0
Colour: ff00ff
EndChar

StartChar: gcircumflex
Encoding: 285 285 49
Width: 499
VWidth: 999
Flags: HW
HStem: -238 43<152.38 341.299> -15 62<136.804 254.33> -12 66<172.816 367.191> 136 40<164.987 285.592> 401 38<167.383 278.422>
VStem: 32 69<-151.838 -60.0017> 55 78<208.338 363.302> 64 56<52.877 127.278> 103 253<516 516> 312 78<207.087 369.596> 400 73<-145.237 -43.25>
LayerCount: 2
Fore
SplineSet
392.098632812 645 m 1
 411.108398438 598 438.181640625 556 465.678710938 516 c 1
 441.703125 502 l 1
 408.8671875 531 381.181640625 556 354.833007812 592 c 1
 309.755859375 554 272.442382812 529 228.703125 502 c 1
 211.678710938 516 l 1
 256.181640625 556 303.321289062 599 342.098632812 645 c 1
 392.098632812 645 l 1
78.89453125 -104 m 0
 64.4404296875 -172 156.551757812 -195 190.551757812 -195 c 0
 276.551757812 -195 365.565429688 -162 378.532226562 -101 c 0
 384.05859375 -75 380.22265625 -46 354.8359375 -29 c 0
 330.858398438 -12.900390625 300.44921875 -12 252.44921875 -12 c 0
 238.649414062 -12 192.311523438 -15 162.811523438 -15 c 1
 123.7734375 -34 85.9296875 -70.900390625 78.89453125 -104 c 0
451.428710938 289 m 0
 433.57421875 205 363.907226562 136 252.907226562 136 c 0
 222.807617188 136 193.395507812 143 181.883789062 150 c 1
 155.844726562 131 144.231445312 114 139.98046875 94 c 0
 130.840820312 51 159.990234375 47 187.990234375 47 c 0
 192.990234375 47 203.203125 48 217.415039062 49 c 0
 241.052734375 52 284.478515625 54 301.478515625 54 c 0
 336.478515625 54 404.765625 53 435.463867188 21 c 0
 458.383789062 -2.900390625 465.793945312 -33.900390625 456.420898438 -78 c 0
 433.46484375 -186 282.411132812 -238 153.411132812 -238 c 0
 80.4111328125 -238 -12.849609375 -211 5.642578125 -124 c 0
 9.6181640625 -105.299804688 26.1328125 -77 42.671875 -58 c 1
 72.8232421875 -38 113.749023438 -20 138.348632812 -7.2998046875 c 1
 86.4248046875 2 72.0771484375 38 80.7919921875 79 c 0
 88.0185546875 113 127.182617188 142 160.434570312 162 c 1
 135.834960938 178 100.061523438 212 116.00390625 287 c 0
 137.068359375 386.099609375 239.3125 439 318.3125 439 c 0
 339.8125 439 361.07421875 436 377.784179688 430.400390625 c 1
 453.212890625 434.299804688 490.766601562 444.900390625 539.4375 449 c 1
 541.799804688 446 l 1
 537.887695312 437 535.186523438 429 533.2734375 420 c 0
 531.360351562 411 530.66015625 403 530.747070312 394 c 1
 527.109375 391 l 1
 486.802734375 395.200195312 454.509765625 399 424.919921875 401.400390625 c 1
 445.046875 386 466.095703125 358 451.428710938 289 c 0
372.366210938 284 m 0
 387.458007812 355 371.235351562 401 306.235351562 401 c 0
 248.235351562 401 209.095703125 358 195.06640625 292 c 0
 179.549804688 219 194.41015625 176 266.41015625 176 c 0
 330.41015625 176 358.549804688 219 372.366210938 284 c 0
EndSplineSet
Colour: ff00ff
EndChar

StartChar: Gbreve
Encoding: 286 286 50
Width: 717
VWidth: 999
Flags: HW
HStem: -10 46<296.87 519.78> 611 47<291.555 487.078> 693 52<292.738 450.488> 786 20<236 268 476.5 508>
VStem: 52 103<200.622 438.62> 236 28<781.047 806> 480 28<780.76 806> 546 86<83.5114 304.327>
LayerCount: 2
Fore
SplineSet
679.3203125 806 m 1
 658.229492188 735 585.301757812 693 519.301757812 693 c 0
 446.301757812 693 397.44140625 736 407.3203125 806 c 1
 435.3203125 806 l 1
 435.03125 767 477.354492188 745 530.354492188 745 c 0
 579.354492188 745 636.03125 767 651.3203125 806 c 1
 679.3203125 806 l 1
570.869140625 117 m 1
 585.310546875 192 597.138671875 250 601.254882812 307 c 1
 603.892578125 310 l 1
 603.892578125 310 620.254882812 307 654.254882812 307 c 0
 689.254882812 307 706.892578125 310 706.892578125 310 c 1
 707.254882812 307 l 1
 687.989257812 254 677.061523438 212 661.120117188 137 c 2
 659.844726562 131 l 2
 657.506835938 120 653.216796875 93.7001953125 659.642578125 83 c 1
 659.004882812 80 l 1
 579.473632812 23.400390625 490.374023438 -10 373.874023438 -10 c 0
 172.874023438 -10 82.6083984375 144 119.380859375 317 c 0
 166.142578125 537 368.862304688 658 540.862304688 658 c 0
 662.862304688 658 759.296875 613 759.296875 613 c 1
 760.659179688 610 l 1
 738.380859375 560.700195312 729.380859375 540 714.940429688 489 c 1
 704.727539062 488 l 1
 675.881835938 564 606.872070312 611 516.872070312 611 c 0
 381.872070312 611 261.703125 502 224.505859375 327 c 0
 196.448242188 195 228.65234375 36 406.65234375 36 c 0
 460.65234375 36 520.927734375 42 561.729492188 74 c 1
 570.869140625 117 l 1
EndSplineSet
Position2: "'cpsp' Versalabstaende 1" dx=5 dy=0 dh=10 dv=0
Substitution2: "'c2sc' Versale nach Kapitaelchen 1" gbreve.sc
Colour: ff00ff
EndChar

StartChar: gbreve
Encoding: 287 287 51
Width: 499
VWidth: 999
Flags: HW
HStem: -238 43<152.38 341.299> -15 62<136.804 254.33> -12 66<172.816 367.191> 136 40<164.987 285.592> 401 38<167.383 278.422> 497 57<155.292 287.981>
VStem: 32 69<-151.838 -60.0017> 55 78<208.338 363.302> 64 56<52.877 127.278> 85 27<609.641 635.111> 312 78<207.087 369.596> 328 27<608.798 635.111> 400 73<-145.237 -43.25>
LayerCount: 2
Fore
SplineSet
248.88671875 644 m 1
 248.62109375 591 283.755859375 554 337.755859375 554 c 0
 389.755859375 554 442.55859375 586 464.88671875 644 c 1
 489.3359375 632 l 1
 459.055664062 546 384.640625 497 325.640625 497 c 0
 255.640625 497 215.268554688 547 219.3359375 632 c 1
 248.88671875 644 l 1
78.89453125 -104 m 0
 64.4404296875 -172 156.551757812 -195 190.551757812 -195 c 0
 276.551757812 -195 365.565429688 -162 378.532226562 -101 c 0
 384.05859375 -75 380.22265625 -46 354.8359375 -29 c 0
 330.858398438 -12.900390625 300.44921875 -12 252.44921875 -12 c 0
 238.649414062 -12 192.311523438 -15 162.811523438 -15 c 1
 123.7734375 -34 85.9296875 -70.900390625 78.89453125 -104 c 0
451.428710938 289 m 0
 433.57421875 205 363.907226562 136 252.907226562 136 c 0
 222.807617188 136 193.395507812 143 181.883789062 150 c 1
 155.844726562 131 144.231445312 114 139.98046875 94 c 0
 130.840820312 51 159.990234375 47 187.990234375 47 c 0
 192.990234375 47 203.203125 48 217.415039062 49 c 0
 241.052734375 52 284.478515625 54 301.478515625 54 c 0
 336.478515625 54 404.765625 53 435.463867188 21 c 0
 458.383789062 -2.900390625 465.793945312 -33.900390625 456.420898438 -78 c 0
 433.46484375 -186 282.411132812 -238 153.411132812 -238 c 0
 80.4111328125 -238 -12.849609375 -211 5.642578125 -124 c 0
 9.6181640625 -105.299804688 26.1328125 -77 42.671875 -58 c 1
 72.8232421875 -38 113.749023438 -20 138.348632812 -7.2998046875 c 1
 86.4248046875 2 72.0771484375 38 80.7919921875 79 c 0
 88.0185546875 113 127.182617188 142 160.434570312 162 c 1
 135.834960938 178 100.061523438 212 116.00390625 287 c 0
 137.068359375 386.099609375 239.3125 439 318.3125 439 c 0
 339.8125 439 361.07421875 436 377.784179688 430.400390625 c 1
 453.212890625 434.299804688 490.766601562 444.900390625 539.4375 449 c 1
 541.799804688 446 l 1
 537.887695312 437 535.186523438 429 533.2734375 420 c 0
 531.360351562 411 530.66015625 403 530.747070312 394 c 1
 527.109375 391 l 1
 486.802734375 395.200195312 454.509765625 399 424.919921875 401.400390625 c 1
 445.046875 386 466.095703125 358 451.428710938 289 c 0
372.366210938 284 m 0
 387.458007812 355 371.235351562 401 306.235351562 401 c 0
 248.235351562 401 209.095703125 358 195.06640625 292 c 0
 179.549804688 219 194.41015625 176 266.41015625 176 c 0
 330.41015625 176 358.549804688 219 372.366210938 284 c 0
EndSplineSet
AlternateSubs2: "'aalt' Alle Alternativen zeigen 1" gbreve.sc
Substitution2: "'smcp' Gemeine nach Kapitaelchen 1" gbreve.sc
Colour: ff00ff
EndChar

StartChar: Gdotaccent
Encoding: 288 288 52
Width: 717
VWidth: 999
Flags: HW
HStem: -10 46<296.87 519.78> 611 47<291.555 487.078> 729 104<334.542 417.458>
VStem: 52 103<200.622 438.62> 324 104<739.542 822.458> 546 86<83.5114 304.327>
LayerCount: 2
Fore
SplineSet
490.006835938 781 m 0
 495.958007812 809 525.059570312 833 553.059570312 833 c 0
 581.059570312 833 599.958007812 809 594.006835938 781 c 0
 588.0546875 753 558.954101562 729 530.954101562 729 c 0
 502.954101562 729 484.0546875 753 490.006835938 781 c 0
570.869140625 117 m 1
 585.310546875 192 597.138671875 250 601.254882812 307 c 1
 603.892578125 310 l 1
 603.892578125 310 620.254882812 307 654.254882812 307 c 0
 689.254882812 307 706.892578125 310 706.892578125 310 c 1
 707.254882812 307 l 1
 687.989257812 254 677.061523438 212 661.120117188 137 c 2
 659.844726562 131 l 2
 657.506835938 120 653.216796875 93.7001953125 659.642578125 83 c 1
 659.004882812 80 l 1
 579.473632812 23.400390625 490.374023438 -10 373.874023438 -10 c 0
 172.874023438 -10 82.6083984375 144 119.380859375 317 c 0
 166.142578125 537 368.862304688 658 540.862304688 658 c 0
 662.862304688 658 759.296875 613 759.296875 613 c 1
 760.659179688 610 l 1
 738.380859375 560.700195312 729.380859375 540 714.940429688 489 c 1
 704.727539062 488 l 1
 675.881835938 564 606.872070312 611 516.872070312 611 c 0
 381.872070312 611 261.703125 502 224.505859375 327 c 0
 196.448242188 195 228.65234375 36 406.65234375 36 c 0
 460.65234375 36 520.927734375 42 561.729492188 74 c 1
 570.869140625 117 l 1
EndSplineSet
Position2: "'cpsp' Versalabstaende 1" dx=5 dy=0 dh=10 dv=0
Colour: ff00ff
EndChar

StartChar: gdotaccent
Encoding: 289 289 53
Width: 499
VWidth: 999
Flags: HW
HStem: -238 43<152.38 341.299> -15 62<136.804 254.33> -12 66<172.816 367.191> 136 40<164.987 285.592> 401 38<167.383 278.422> 546 102<182.735 265.265>
VStem: 32 69<-151.838 -60.0017> 55 78<208.338 363.302> 64 56<52.877 127.278> 173 102<555.735 638.265> 312 78<207.087 369.596> 400 73<-145.237 -43.25>
LayerCount: 2
Fore
SplineSet
299.896484375 597 m 0
 305.635742188 624 334.736328125 648 361.736328125 648 c 0
 388.736328125 648 407.635742188 624 401.896484375 597 c 0
 396.157226562 570 367.055664062 546 340.055664062 546 c 0
 313.055664062 546 294.157226562 570 299.896484375 597 c 0
78.89453125 -104 m 0
 64.4404296875 -172 156.551757812 -195 190.551757812 -195 c 0
 276.551757812 -195 365.565429688 -162 378.532226562 -101 c 0
 384.05859375 -75 380.22265625 -46 354.8359375 -29 c 0
 330.858398438 -12.900390625 300.44921875 -12 252.44921875 -12 c 0
 238.649414062 -12 192.311523438 -15 162.811523438 -15 c 1
 123.7734375 -34 85.9296875 -70.900390625 78.89453125 -104 c 0
451.428710938 289 m 0
 433.57421875 205 363.907226562 136 252.907226562 136 c 0
 222.807617188 136 193.395507812 143 181.883789062 150 c 1
 155.844726562 131 144.231445312 114 139.98046875 94 c 0
 130.840820312 51 159.990234375 47 187.990234375 47 c 0
 192.990234375 47 203.203125 48 217.415039062 49 c 0
 241.052734375 52 284.478515625 54 301.478515625 54 c 0
 336.478515625 54 404.765625 53 435.463867188 21 c 0
 458.383789062 -2.900390625 465.793945312 -33.900390625 456.420898438 -78 c 0
 433.46484375 -186 282.411132812 -238 153.411132812 -238 c 0
 80.4111328125 -238 -12.849609375 -211 5.642578125 -124 c 0
 9.6181640625 -105.299804688 26.1328125 -77 42.671875 -58 c 1
 72.8232421875 -38 113.749023438 -20 138.348632812 -7.2998046875 c 1
 86.4248046875 2 72.0771484375 38 80.7919921875 79 c 0
 88.0185546875 113 127.182617188 142 160.434570312 162 c 1
 135.834960938 178 100.061523438 212 116.00390625 287 c 0
 137.068359375 386.099609375 239.3125 439 318.3125 439 c 0
 339.8125 439 361.07421875 436 377.784179688 430.400390625 c 1
 453.212890625 434.299804688 490.766601562 444.900390625 539.4375 449 c 1
 541.799804688 446 l 1
 537.887695312 437 535.186523438 429 533.2734375 420 c 0
 531.360351562 411 530.66015625 403 530.747070312 394 c 1
 527.109375 391 l 1
 486.802734375 395.200195312 454.509765625 399 424.919921875 401.400390625 c 1
 445.046875 386 466.095703125 358 451.428710938 289 c 0
372.366210938 284 m 0
 387.458007812 355 371.235351562 401 306.235351562 401 c 0
 248.235351562 401 209.095703125 358 195.06640625 292 c 0
 179.549804688 219 194.41015625 176 266.41015625 176 c 0
 330.41015625 176 358.549804688 219 372.366210938 284 c 0
EndSplineSet
Colour: ff00ff
EndChar

StartChar: Gcommaaccent
Encoding: 290 290 54
Width: 717
VWidth: 999
Flags: HW
HStem: -247 24<326.315 356.976> -144 82<331.324 396.34> -10 46<296.87 519.78> 611 47<291.555 487.078>
VStem: 52 103<200.622 438.62> 398 39<-198.408 -120.958> 546 86<83.5114 304.327>
LayerCount: 2
Fore
SplineSet
361.821289062 -62 m 0
 399.821289062 -62 416.594726562 -96 405.541992188 -148 c 0
 392.788085938 -208 337.411132812 -238 278.498046875 -247 c 1
 273.7734375 -241 273.686523438 -232 275.599609375 -223 c 1
 326.938476562 -212 358.0390625 -188 361.865234375 -170 c 0
 366.116210938 -150 353.966796875 -146 336.391601562 -144 c 1
 320.029296875 -141 296.942382812 -132 302.681640625 -105 c 0
 307.783203125 -81 332.821289062 -62 361.821289062 -62 c 0
570.869140625 117 m 1
 585.310546875 192 597.138671875 250 601.254882812 307 c 1
 603.892578125 310 l 1
 603.892578125 310 620.254882812 307 654.254882812 307 c 0
 689.254882812 307 706.892578125 310 706.892578125 310 c 1
 707.254882812 307 l 1
 687.989257812 254 677.061523438 212 661.120117188 137 c 2
 659.844726562 131 l 2
 657.506835938 120 653.216796875 93.7001953125 659.642578125 83 c 1
 659.004882812 80 l 1
 579.473632812 23.400390625 490.374023438 -10 373.874023438 -10 c 0
 172.874023438 -10 82.6083984375 144 119.380859375 317 c 0
 166.142578125 537 368.862304688 658 540.862304688 658 c 0
 662.862304688 658 759.296875 613 759.296875 613 c 1
 760.659179688 610 l 1
 738.380859375 560.700195312 729.380859375 540 714.940429688 489 c 1
 704.727539062 488 l 1
 675.881835938 564 606.872070312 611 516.872070312 611 c 0
 381.872070312 611 261.703125 502 224.505859375 327 c 0
 196.448242188 195 228.65234375 36 406.65234375 36 c 0
 460.65234375 36 520.927734375 42 561.729492188 74 c 1
 570.869140625 117 l 1
EndSplineSet
Position2: "'cpsp' Versalabstaende 1" dx=5 dy=0 dh=10 dv=0
Colour: ff00ff
EndChar

StartChar: gcommaaccent
Encoding: 291 291 55
Width: 499
VWidth: 999
Flags: HW
HStem: -238 43<152.38 341.299> -15 62<136.804 254.33> -12 66<172.816 367.191> 136 40<164.987 285.592> 401 38<167.383 278.422> 511 82<200.44 272.661> 673 20<246.927 275.524>
VStem: 32 69<-151.838 -60.0017> 55 78<208.338 363.302> 64 56<52.877 127.278> 166 34<566 641.371> 312 78<207.087 369.596> 400 73<-145.237 -43.25>
LayerCount: 2
Fore
SplineSet
336.616210938 511 m 0
 297.616210938 511 282.481445312 548 290.1328125 584 c 0
 295.234375 608 306.91015625 630 327.162109375 650 c 0
 348.546875 671.099609375 380.239257812 688 419.301757812 693 c 1
 422.451171875 689 421.538085938 680 420.05078125 673 c 1
 360.5 661 333.698242188 629 328.809570312 606 c 0
 324.643554688 586.400390625 330.845703125 593 355.045898438 593 c 0
 395.045898438 593 399.944335938 569 396.331054688 552 c 0
 392.930664062 536 371.616210938 511 336.616210938 511 c 0
78.89453125 -104 m 0
 64.4404296875 -172 156.551757812 -195 190.551757812 -195 c 0
 276.551757812 -195 365.565429688 -162 378.532226562 -101 c 0
 384.05859375 -75 380.22265625 -46 354.8359375 -29 c 0
 330.858398438 -12.900390625 300.44921875 -12 252.44921875 -12 c 0
 238.649414062 -12 192.311523438 -15 162.811523438 -15 c 1
 123.7734375 -34 85.9296875 -70.900390625 78.89453125 -104 c 0
451.428710938 289 m 0
 433.57421875 205 363.907226562 136 252.907226562 136 c 0
 222.807617188 136 193.395507812 143 181.883789062 150 c 1
 155.844726562 131 144.231445312 114 139.98046875 94 c 0
 130.840820312 51 159.990234375 47 187.990234375 47 c 0
 192.990234375 47 203.203125 48 217.415039062 49 c 0
 241.052734375 52 284.478515625 54 301.478515625 54 c 0
 336.478515625 54 404.765625 53 435.463867188 21 c 0
 458.383789062 -2.900390625 465.793945312 -33.900390625 456.420898438 -78 c 0
 433.46484375 -186 282.411132812 -238 153.411132812 -238 c 0
 80.4111328125 -238 -12.849609375 -211 5.642578125 -124 c 0
 9.6181640625 -105.299804688 26.1328125 -77 42.671875 -58 c 1
 72.8232421875 -38 113.749023438 -20 138.348632812 -7.2998046875 c 1
 86.4248046875 2 72.0771484375 38 80.7919921875 79 c 0
 88.0185546875 113 127.182617188 142 160.434570312 162 c 1
 135.834960938 178 100.061523438 212 116.00390625 287 c 0
 137.068359375 386.099609375 239.3125 439 318.3125 439 c 0
 339.8125 439 361.07421875 436 377.784179688 430.400390625 c 1
 453.212890625 434.299804688 490.766601562 444.900390625 539.4375 449 c 1
 541.799804688 446 l 1
 537.887695312 437 535.186523438 429 533.2734375 420 c 0
 531.360351562 411 530.66015625 403 530.747070312 394 c 1
 527.109375 391 l 1
 486.802734375 395.200195312 454.509765625 399 424.919921875 401.400390625 c 1
 445.046875 386 466.095703125 358 451.428710938 289 c 0
372.366210938 284 m 0
 387.458007812 355 371.235351562 401 306.235351562 401 c 0
 248.235351562 401 209.095703125 358 195.06640625 292 c 0
 179.549804688 219 194.41015625 176 266.41015625 176 c 0
 330.41015625 176 358.549804688 219 372.366210938 284 c 0
EndSplineSet
Colour: ff00ff
EndChar

StartChar: Hcircumflex
Encoding: 292 292 56
Width: 726
VWidth: 999
Flags: HW
HStem: -3 21<94 101 192 200 526 533 624 632> 321 44<190 536> 628 20<94 102 193 200 526 534 625 632> 688 115
VStem: 104 86<2.67992 321 365 642.32> 226 243 536 86<2.67992 321 365 642.32>
LayerCount: 2
Fore
SplineSet
630.587890625 445 m 2
 646.529296875 520 658.983398438 588 663.098632812 645 c 1
 665.736328125 648 l 1
 677.311523438 646 704.098632812 645 716.098632812 645 c 0
 728.098632812 645 756.311523438 646 768.736328125 648 c 1
 769.098632812 645 l 1
 749.833007812 592 732.529296875 520 716.587890625 445 c 2
 664.51171875 200 l 2
 648.569335938 125 636.116210938 57 632 0 c 1
 629.362304688 -3 l 1
 617.787109375 -1 591 0 579 0 c 0
 567 0 538.787109375 -1 526.362304688 -3 c 1
 526 0 l 1
 545.478515625 54 562.569335938 125 578.51171875 200 c 2
 604.23046875 321 l 1
 258.23046875 321 l 1
 232.51171875 200 l 2
 216.569335938 125 204.116210938 57 200 0 c 1
 197.362304688 -3 l 1
 185.787109375 -1 159 0 147 0 c 0
 135 0 106.787109375 -1 94.3623046875 -3 c 1
 94 0 l 1
 113.478515625 54 130.569335938 125 146.51171875 200 c 2
 198.587890625 445 l 2
 214.529296875 520 226.983398438 588 231.098632812 645 c 1
 233.736328125 648 l 1
 245.311523438 646 272.098632812 645 284.098632812 645 c 0
 296.098632812 645 324.311523438 646 336.736328125 648 c 1
 337.098632812 645 l 1
 317.833007812 592 300.529296875 520 284.587890625 445 c 2
 267.583007812 365 l 1
 613.583007812 365 l 1
 630.587890625 445 l 2
538.682617188 803 m 1
 561.03125 767 589.44140625 736 619.702148438 709 c 1
 599.239257812 688 l 1
 564.064453125 706 534.103515625 725 506.416992188 750 c 1
 463.678710938 723 427.852539062 705 386.239257812 688 c 1
 376.702148438 709 l 1
 419.654296875 737 457.456054688 769 495.682617188 803 c 1
 538.682617188 803 l 1
EndSplineSet
Position2: "'cpsp' Versalabstaende 1" dx=5 dy=0 dh=10 dv=0
Colour: ff00ff
EndChar

StartChar: hcircumflex
Encoding: 293 293 57
Width: 549
VWidth: 999
Flags: HW
HStem: -3 21<81 89 171 179 378 386 468 476> 379 60<258.668 370.026> 678 20<157.465 173.167> 717 115
VStem: 90 80<2.67606 320.103 352 672.976> 144 243 387 80<2.67606 363.729>
LayerCount: 2
Fore
SplineSet
462.846679688 832 m 1
 485.1953125 796 513.60546875 765 543.8671875 738 c 1
 523.403320312 717 l 1
 488.229492188 735 458.267578125 754 430.58203125 779 c 1
 387.842773438 752 352.016601562 734 310.403320312 717 c 1
 300.8671875 738 l 1
 343.818359375 766 381.620117188 798 419.846679688 832 c 1
 462.846679688 832 l 1
244.8203125 352 m 1
 246.182617188 349 l 1
 326.124023438 424 400.3125 439 438.3125 439 c 0
 528.3125 439 550.833984375 385 528.728515625 281 c 0
 521.926757812 249 512.061523438 212 505.259765625 180 c 0
 489.10546875 104 480.158203125 57.2001953125 476 0 c 1
 473.362304688 -3 l 1
 461.787109375 -1 439 0 427 0 c 0
 415 0 391.787109375 -1 379.362304688 -3 c 1
 378 0 l 1
 397.435546875 53.7998046875 409.318359375 105 425.259765625 180 c 2
 446.090820312 278 l 2
 463.307617188 359 446.55859375 379 395.55859375 379 c 0
 360.05859375 379 296.8828125 357 233.12890625 297 c 1
 208.259765625 180 l 2
 192.10546875 104 183.658203125 57.2001953125 179 0 c 1
 176.362304688 -3 l 1
 164.787109375 -1 142 0 130 0 c 0
 118 0 94.787109375 -1 82.3623046875 -3 c 1
 81 0 l 1
 100.703125 56 112.424804688 105.5 128.259765625 180 c 2
 192.239257812 481 l 2
 208.393554688 557 223.099609375 632.299804688 224.475585938 675 c 1
 227.11328125 678 l 1
 268.250976562 681 291.138671875 688 318.364257812 698 c 1
 324.6640625 698 326.7265625 695 325.239257812 688 c 0
 307.366210938 626.5 292.219726562 575 276.491210938 501 c 2
 244.8203125 352 l 1
EndSplineSet
Colour: ff00ff
EndChar

StartChar: Hbar
Encoding: 294 294 58
Width: 726
VWidth: 999
Flags: HW
HStem: -3 21<94 101 192 200 526 533 624 632> 321 44<190 536> 512 34<41 656> 628 20<94 102 193 200 526 534 625 632>
VStem: 104 86<2.67992 321 365 642.32> 536 86<2.67992 321 365 642.32>
LayerCount: 2
Fore
SplineSet
307.755859375 546 m 1
 650.255859375 546 l 1
 656.34375 581.700195312 660.901367188 614.900390625 663.098632812 645 c 1
 665.736328125 648 l 1
 677.311523438 646 704.098632812 645 716.098632812 645 c 0
 728.098632812 645 756.311523438 646 768.736328125 648 c 1
 769.098632812 645 l 1
 758.762695312 616.599609375 749.078125 582.799804688 739.755859375 546 c 1
 772.055664062 546 l 1
 764.829101562 512 l 1
 731.529296875 512 l 1
 726.395507812 490.200195312 721.43359375 467.799804688 716.587890625 445 c 2
 664.51171875 200 l 2
 648.569335938 125 636.116210938 57 632 0 c 1
 629.362304688 -3 l 1
 617.787109375 -1 591 0 579 0 c 0
 567 0 538.787109375 -1 526.362304688 -3 c 1
 526 0 l 1
 545.478515625 54 562.569335938 125 578.51171875 200 c 2
 604.23046875 321 l 1
 258.23046875 321 l 1
 232.51171875 200 l 2
 216.569335938 125 204.116210938 57 200 0 c 1
 197.362304688 -3 l 1
 185.787109375 -1 159 0 147 0 c 0
 135 0 106.787109375 -1 94.3623046875 -3 c 1
 94 0 l 1
 113.478515625 54 130.569335938 125 146.51171875 200 c 2
 198.587890625 445 l 2
 203.4765625 468 208.038085938 490.400390625 212.12890625 512 c 1
 149.829101562 512 l 1
 157.055664062 546 l 1
 218.255859375 546 l 1
 224.34375 581.700195312 228.901367188 614.900390625 231.098632812 645 c 1
 233.736328125 648 l 1
 245.311523438 646 272.098632812 645 284.098632812 645 c 0
 296.098632812 645 324.311523438 646 336.736328125 648 c 1
 337.098632812 645 l 1
 326.762695312 616.599609375 317.078125 582.799804688 307.755859375 546 c 1
299.529296875 512 m 1
 294.395507812 490.200195312 289.43359375 467.799804688 284.587890625 445 c 2
 267.583007812 365 l 1
 613.583007812 365 l 1
 630.587890625 445 l 2
 635.4765625 468 640.038085938 490.400390625 644.12890625 512 c 1
 299.529296875 512 l 1
EndSplineSet
Position2: "'cpsp' Versalabstaende 1" dx=5 dy=0 dh=10 dv=0
Colour: ff80cc
EndChar

StartChar: hbar
Encoding: 295 295 59
Width: 549
VWidth: 999
Flags: HW
HStem: -3 21<81 89 171 179 378 386 468 476> 379 60<258.668 370.026> 530 39<26 341> 678 20<157.465 173.167>
VStem: 90 80<2.67606 320.103 352 672.976> 387 80<2.67606 363.729>
LayerCount: 2
Fore
SplineSet
244.8203125 352 m 1
 246.182617188 349 l 1
 326.124023438 424 400.3125 439 438.3125 439 c 0
 528.3125 439 550.833984375 385 528.728515625 281 c 0
 521.926757812 249 512.061523438 212 505.259765625 180 c 0
 489.10546875 104 480.158203125 57.2001953125 476 0 c 1
 473.362304688 -3 l 1
 461.787109375 -1 439 0 427 0 c 0
 415 0 391.787109375 -1 379.362304688 -3 c 1
 378 0 l 1
 397.435546875 53.7998046875 409.318359375 105 425.259765625 180 c 2
 446.090820312 278 l 2
 463.307617188 359 446.55859375 379 395.55859375 379 c 0
 360.05859375 379 296.8828125 357 233.12890625 297 c 1
 208.259765625 180 l 2
 192.10546875 104 183.658203125 57.2001953125 179 0 c 1
 176.362304688 -3 l 1
 164.787109375 -1 142 0 130 0 c 0
 118 0 94.787109375 -1 82.3623046875 -3 c 1
 81 0 l 1
 100.703125 56 112.424804688 105.5 128.259765625 180 c 2
 192.239257812 481 l 2
 195.747070312 497.5 199.232421875 513.900390625 202.455078125 530 c 1
 138.655273438 530 l 1
 146.944335938 569 l 1
 210.044921875 569 l 1
 217.978515625 611.5 223.591796875 649.200195312 224.475585938 675 c 1
 227.11328125 678 l 1
 268.250976562 681 291.138671875 688 318.364257812 698 c 1
 324.6640625 698 326.7265625 695 325.239257812 688 c 0
 313.345703125 647.099609375 302.6875 610.599609375 292.245117188 569 c 1
 461.944335938 569 l 1
 453.655273438 530 l 1
 282.854492188 530 l 1
 280.778320312 520.700195312 278.637695312 511.099609375 276.491210938 501 c 2
 244.8203125 352 l 1
EndSplineSet
Colour: ff80cc
EndChar

StartChar: Itilde
Encoding: 296 296 60
Width: 294
VWidth: 999
Flags: HW
HStem: -3 21<94 102 192 200> 628 20<94 102 192 200> 697 44<162 249> 745 46<44 135> 784 10
VStem: 104 86<2.67992 642.32>
LayerCount: 2
Fore
SplineSet
370.504882812 741 m 0
 392.504882812 741 408.629882812 751 431.557617188 793 c 1
 454.282226562 787 l 1
 429.528320312 727 394.15234375 697 348.15234375 697 c 0
 326.15234375 697 307.702148438 709 289.678710938 723 c 0
 274.016601562 734 257.354492188 745 240.354492188 745 c 0
 214.354492188 745 198.166015625 730 181.15234375 697 c 1
 158.21484375 702 l 1
 184.755859375 761 214.131835938 791 257.131835938 791 c 0
 287.131835938 791 306.15625 777 323.180664062 763 c 0
 336.629882812 751 351.504882812 741 370.504882812 741 c 0
198.587890625 445 m 2
 214.529296875 520 226.983398438 588 231.098632812 645 c 1
 233.736328125 648 l 1
 245.311523438 646 272.098632812 645 284.098632812 645 c 0
 296.098632812 645 323.311523438 646 335.736328125 648 c 1
 337.098632812 645 l 1
 317.833007812 592 300.529296875 520 284.587890625 445 c 2
 232.51171875 200 l 2
 216.569335938 125 204.116210938 57 200 0 c 1
 197.362304688 -3 l 1
 185.787109375 -1 159 0 147 0 c 0
 135 0 107.787109375 -1 95.3623046875 -3 c 1
 94 0 l 1
 113.478515625 54 130.569335938 125 146.51171875 200 c 2
 198.587890625 445 l 2
EndSplineSet
Position2: "'cpsp' Versalabstaende 1" dx=5 dy=0 dh=10 dv=0
Colour: ff00ff
EndChar

StartChar: itilde
Encoding: 297 297 61
Width: 260
VWidth: 999
Flags: HW
HStem: -3 21<81 89 171 179> 413 20<158.667 173.917> 526 44<149.2 227.5> 574 46<43 124.9> 613 10
VStem: 90 80<2.65714 420.159>
LayerCount: 2
Fore
SplineSet
316.256835938 570 m 0
 336.057617188 570 350.783203125 580 372.310546875 622 c 1
 392.634765625 616 l 1
 369.081054688 556 336.604492188 526 295.205078125 526 c 0
 275.404296875 526 259.055664062 538 243.130859375 552 c 0
 229.26953125 563 214.5078125 574 199.20703125 574 c 0
 175.807617188 574 160.918945312 559 144.904296875 526 c 1
 124.3671875 531 l 1
 149.508789062 590 176.584960938 620 215.28515625 620 c 0
 242.28515625 620 259.109375 606 274.133789062 592 c 0
 285.982421875 580 299.157226562 570 316.256835938 570 c 0
139.951171875 235 m 2
 155.892578125 310 169.389648438 386.200195312 172.186523438 429 c 1
 174.82421875 432 l 1
 195.663085938 430.299804688 238.84765625 430.700195312 262.037109375 433 c 0
 269.836914062 433 270.82421875 432 268.911132812 423 c 0
 249.4453125 362 239.29296875 326 223.3515625 251 c 2
 208.259765625 180 l 2
 192.10546875 104 183.873046875 56.7998046875 179 0 c 1
 176.362304688 -3 l 1
 164.787109375 -1 142 0 130 0 c 0
 118 0 94.787109375 -1 82.3623046875 -3 c 1
 81 0 l 1
 99.677734375 54 112.318359375 105 128.259765625 180 c 2
 139.951171875 235 l 2
EndSplineSet
Colour: ff00ff
EndChar

StartChar: Imacron
Encoding: 298 298 62
Width: 294
VWidth: 999
Flags: HW
HStem: -3 21<94 102 192 200> 628 20<94 102 192 200> 733 44<9.088 287.515>
VStem: 8 281<733.205 777> 104 86<2.67992 642.32>
LayerCount: 2
Fore
SplineSet
420.803710938 733 m 2
 176.803710938 733 l 2
 167.803710938 733 165.504882812 741 166.9921875 748 c 0
 169.54296875 760 184.15625 777 195.15625 777 c 2
 440.15625 777 l 2
 450.15625 777 452.456054688 769 451.180664062 763 c 0
 448.629882812 751 433.803710938 733 420.803710938 733 c 2
198.587890625 445 m 2
 214.529296875 520 226.983398438 588 231.098632812 645 c 1
 233.736328125 648 l 1
 245.311523438 646 272.098632812 645 284.098632812 645 c 0
 296.098632812 645 323.311523438 646 335.736328125 648 c 1
 337.098632812 645 l 1
 317.833007812 592 300.529296875 520 284.587890625 445 c 2
 232.51171875 200 l 2
 216.569335938 125 204.116210938 57 200 0 c 1
 197.362304688 -3 l 1
 185.787109375 -1 159 0 147 0 c 0
 135 0 107.787109375 -1 95.3623046875 -3 c 1
 94 0 l 1
 113.478515625 54 130.569335938 125 146.51171875 200 c 2
 198.587890625 445 l 2
EndSplineSet
Position2: "'cpsp' Versalabstaende 1" dx=5 dy=0 dh=10 dv=0
Colour: ff00ff
EndChar

StartChar: imacron
Encoding: 299 299 63
Width: 260
VWidth: 999
Flags: HW
HStem: -3 21<81 89 171 179> 413 20<158.667 173.917> 538 44<9.5792 260.164>
VStem: 8.6 252.9<538.205 582> 90 80<2.65714 420.159>
LayerCount: 2
Fore
SplineSet
354.255859375 538 m 2
 134.655273438 538 l 2
 126.555664062 538 124.65625 546 126.143554688 553 c 0
 128.694335938 565 142.208007812 582 152.108398438 582 c 2
 372.608398438 582 l 2
 381.608398438 582 383.5078125 574 382.232421875 568 c 0
 379.681640625 556 365.955078125 538 354.255859375 538 c 2
139.951171875 235 m 2
 155.892578125 310 169.389648438 386.200195312 172.186523438 429 c 1
 174.82421875 432 l 1
 195.663085938 430.299804688 238.84765625 430.700195312 262.037109375 433 c 0
 269.836914062 433 270.82421875 432 268.911132812 423 c 0
 249.4453125 362 239.29296875 326 223.3515625 251 c 2
 208.259765625 180 l 2
 192.10546875 104 183.873046875 56.7998046875 179 0 c 1
 176.362304688 -3 l 1
 164.787109375 -1 142 0 130 0 c 0
 118 0 94.787109375 -1 82.3623046875 -3 c 1
 81 0 l 1
 99.677734375 54 112.318359375 105 128.259765625 180 c 2
 139.951171875 235 l 2
EndSplineSet
Colour: ff00ff
EndChar

StartChar: Ibreve
Encoding: 300 300 64
Width: 294
VWidth: 999
Flags: HW
HStem: -3 21<94 102 192 200> 628 20<94 102 192 200> 692 52<69.738 227.488> 785 20<13 45 253.5 285>
VStem: 13 28<780.047 805> 104 86<2.67992 642.32> 257 28<779.76 805>
LayerCount: 2
Fore
SplineSet
456.108398438 805 m 1
 435.016601562 734 362.088867188 692 296.088867188 692 c 0
 223.088867188 692 174.229492188 735 184.108398438 805 c 1
 212.108398438 805 l 1
 211.818359375 766 254.141601562 744 307.141601562 744 c 0
 356.141601562 744 412.818359375 766 428.108398438 805 c 1
 456.108398438 805 l 1
198.587890625 445 m 2
 214.529296875 520 226.983398438 588 231.098632812 645 c 1
 233.736328125 648 l 1
 245.311523438 646 272.098632812 645 284.098632812 645 c 0
 296.098632812 645 323.311523438 646 335.736328125 648 c 1
 337.098632812 645 l 1
 317.833007812 592 300.529296875 520 284.587890625 445 c 2
 232.51171875 200 l 2
 216.569335938 125 204.116210938 57 200 0 c 1
 197.362304688 -3 l 1
 185.787109375 -1 159 0 147 0 c 0
 135 0 107.787109375 -1 95.3623046875 -3 c 1
 94 0 l 1
 113.478515625 54 130.569335938 125 146.51171875 200 c 2
 198.587890625 445 l 2
EndSplineSet
Position2: "'cpsp' Versalabstaende 1" dx=5 dy=0 dh=10 dv=0
Colour: ff00ff
EndChar

StartChar: ibreve
Encoding: 301 301 65
Width: 260
VWidth: 999
Flags: HW
HStem: -3 21<81 89 171 179> 413 20<158.667 173.917> 503 57<78.1628 197.583>
VStem: 14.9 24.3<615.641 641.111> 90 80<2.65714 420.159> 233.6 24.3<614.798 641.111>
LayerCount: 2
Fore
SplineSet
177.361328125 650 m 1
 175.99609375 597 206.83203125 560 255.431640625 560 c 0
 302.231445312 560 350.43359375 592 371.76171875 650 c 1
 393.510742188 638 l 1
 364.431640625 552 296.416015625 503 243.31640625 503 c 0
 180.31640625 503 145.043945312 553 150.510742188 638 c 1
 177.361328125 650 l 1
139.951171875 235 m 2
 155.892578125 310 169.389648438 386.200195312 172.186523438 429 c 1
 174.82421875 432 l 1
 195.663085938 430.299804688 238.84765625 430.700195312 262.037109375 433 c 0
 269.836914062 433 270.82421875 432 268.911132812 423 c 0
 249.4453125 362 239.29296875 326 223.3515625 251 c 2
 208.259765625 180 l 2
 192.10546875 104 183.873046875 56.7998046875 179 0 c 1
 176.362304688 -3 l 1
 164.787109375 -1 142 0 130 0 c 0
 118 0 94.787109375 -1 82.3623046875 -3 c 1
 81 0 l 1
 99.677734375 54 112.318359375 105 128.259765625 180 c 2
 139.951171875 235 l 2
EndSplineSet
Colour: ff00ff
EndChar

StartChar: Iogonek
Encoding: 302 302 66
Width: 294
VWidth: 999
Flags: HW
HStem: -225 39<73.1814 157.134> -3 21<94 102 192 200> -1 25<142.256 178.88> 628 20<94 102 192 200>
VStem: -1 60<-174.091 -75.5789> 104 86<2.67992 642.32>
LayerCount: 2
Fore
SplineSet
44.1748046875 -225 m 0
 -8.8251953125 -225 -42.236328125 -194 -30.7578125 -140 c 0
 -20.8525390625 -93.400390625 29.841796875 -36.5 95.283203125 -2.900390625 c 1
 94 0 l 1
 113.478515625 54 130.569335938 125 146.51171875 200 c 2
 198.587890625 445 l 2
 214.529296875 520 226.983398438 588 231.098632812 645 c 1
 233.736328125 648 l 1
 245.311523438 646 272.098632812 645 284.098632812 645 c 0
 296.098632812 645 323.311523438 646 335.736328125 648 c 1
 337.098632812 645 l 1
 317.833007812 592 300.529296875 520 284.587890625 445 c 2
 232.51171875 200 l 2
 216.569335938 125 204.116210938 57 200 0 c 1
 197.362304688 -3 l 1
 193.790039062 -2.400390625 188.817382812 -1.7998046875 183.202148438 -1.400390625 c 0
 107.584960938 -7.599609375 42.3564453125 -78.2998046875 32.0048828125 -127 c 0
 25.203125 -159 41.46484375 -186 77.46484375 -186 c 0
 107.46484375 -186 131.65234375 -171 155.116210938 -150 c 1
 168.416015625 -158 l 1
 134.42578125 -205 80.1748046875 -225 44.1748046875 -225 c 0
EndSplineSet
Position2: "'cpsp' Versalabstaende 1" dx=5 dy=0 dh=10 dv=0
Colour: ff80cc
EndChar

StartChar: iogonek
Encoding: 303 303 67
Width: 260
VWidth: 999
Flags: HW
HStem: -225 39<52.2133 135.045> -3 21<81 89 171 179> -1 25<119.395 156.6> 413 20<158.667 173.917> 546 102<89.735 172.265>
VStem: -23 60<-174.091 -75.5789> 80 102<555.735 638.265> 90 80<2.65714 420.159>
LayerCount: 2
Fore
SplineSet
22.1748046875 -225 m 0
 -31.8251953125 -225 -64.236328125 -194 -52.7578125 -140 c 0
 -42.427734375 -91.400390625 11.7041015625 -31.5 81.498046875 1.400390625 c 1
 99.869140625 54.900390625 112.446289062 105.599609375 128.259765625 180 c 2
 139.951171875 235 l 2
 155.892578125 310 169.389648438 386.200195312 172.186523438 429 c 1
 174.82421875 432 l 1
 195.663085938 430.299804688 238.84765625 430.700195312 262.037109375 433 c 0
 269.836914062 433 270.82421875 432 268.911132812 423 c 0
 249.4453125 362 239.29296875 326 223.3515625 251 c 2
 208.259765625 180 l 2
 192.10546875 104 183.873046875 56.7998046875 179 0 c 1
 176.362304688 -3 l 1
 172.510742188 -2.2998046875 167.338867188 -1.7001953125 161.723632812 -1.2998046875 c 0
 85.576171875 -6.7001953125 20.44140625 -77.900390625 10.0048828125 -127 c 0
 3.203125 -159 19.46484375 -186 55.46484375 -186 c 0
 84.46484375 -186 108.65234375 -171 132.116210938 -150 c 1
 146.416015625 -158 l 1
 112.42578125 -205 57.1748046875 -225 22.1748046875 -225 c 0
206.896484375 597 m 0
 212.635742188 624 241.736328125 648 268.736328125 648 c 0
 295.736328125 648 314.635742188 624 308.896484375 597 c 0
 303.157226562 570 274.055664062 546 247.055664062 546 c 0
 220.055664062 546 201.157226562 570 206.896484375 597 c 0
EndSplineSet
Colour: ff80cc
EndChar

StartChar: Idotaccent
Encoding: 304 304 68
Width: 294
VWidth: 999
Flags: HW
HStem: -3 21<94 102 192 200> 628 20<94 102 192 200> 729 104<107.542 190.458>
VStem: 97 104<739.542 822.458> 104 86<2.67992 642.32>
LayerCount: 2
Fore
SplineSet
263.006835938 781 m 0
 268.958007812 809 298.059570312 833 326.059570312 833 c 0
 354.059570312 833 372.958007812 809 367.006835938 781 c 0
 361.0546875 753 331.954101562 729 303.954101562 729 c 0
 275.954101562 729 257.0546875 753 263.006835938 781 c 0
198.587890625 445 m 2
 214.529296875 520 226.983398438 588 231.098632812 645 c 1
 233.736328125 648 l 1
 245.311523438 646 272.098632812 645 284.098632812 645 c 0
 296.098632812 645 323.311523438 646 335.736328125 648 c 1
 337.098632812 645 l 1
 317.833007812 592 300.529296875 520 284.587890625 445 c 2
 232.51171875 200 l 2
 216.569335938 125 204.116210938 57 200 0 c 1
 197.362304688 -3 l 1
 185.787109375 -1 159 0 147 0 c 0
 135 0 107.787109375 -1 95.3623046875 -3 c 1
 94 0 l 1
 113.478515625 54 130.569335938 125 146.51171875 200 c 2
 198.587890625 445 l 2
EndSplineSet
Substitution2: "'c2sc' Versale nach Kapitaelchen 1" idotaccent.sc
Position2: "'cpsp' Versalabstaende 1" dx=5 dy=0 dh=10 dv=0
Colour: ff00ff
EndChar

StartChar: afii10057
Encoding: 1032 1032 69
Width: 385
VWidth: 999
Flags: HW
HStem: -10 60<57.8935 169.935> 628 20G<200 253 253 306>
VStem: 210 86<132.814 642.32>
AnchorPoint: "top_akzent" 423.32 806 basechar 0
AnchorPoint: "top_punkt" 404.679 723 basechar 0
LayerCount: 2
Fore
SplineSet
264.83984375 258 m 2
 304.587890625 445 l 2
 320.529296875 520 332.983398438 588 337.098632812 645 c 1
 339.736328125 648 l 1
 339.736328125 648 356.098632812 645 390.098632812 645 c 0
 425.098632812 645 442.736328125 648 442.736328125 648 c 1
 443.098632812 645 l 1
 423.833007812 592 406.529296875 520 390.587890625 445 c 2
 355.515625 280 l 2
 331.177734375 165.5 314.6953125 135 247.028320312 66 c 0
 194.55078125 12 135.874023438 -10 72.8740234375 -10 c 0
 53.8740234375 -10 36.724609375 -6 29.787109375 -1 c 1
 29.4248046875 2 l 1
 44.4638671875 21 62.1162109375 57 74.8544921875 84 c 1
 86.0673828125 85 l 1
 92.81640625 65 107.627929688 50 136.627929688 50 c 0
 215.627929688 50 246.134765625 170 264.83984375 258 c 2
EndSplineSet
EndChar

StartChar: afii10061
Encoding: 1036 1036 70
Width: 632
VWidth: 999
Flags: HW
HStem: -4 21<443 478.5 586.5 596> -3 21<94 102 192 200> 312 45<187 249.712> 569 89<450.534 559.69> 628 20<94 102 192 200> 698 122
VStem: 104 86<2.67992 642.32> 288 201
LayerCount: 2
Fore
SplineSet
601.295898438 820 m 1
 627.069335938 806.700195312 644.071289062 789.299804688 652.243164062 768 c 1
 495.915039062 710 l 2
 473.001953125 701 460.364257812 698 451.364257812 698 c 0
 442.364257812 698 437.852539062 705 439.552734375 713 c 0
 441.041015625 720 444.103515625 725 459.016601562 734 c 2
 601.295898438 820 l 1
198.587890625 445 m 2
 214.529296875 520 226.983398438 588 231.098632812 645 c 1
 233.736328125 648 l 1
 245.311523438 646 272.098632812 645 284.098632812 645 c 0
 296.098632812 645 323.311523438 646 335.736328125 648 c 1
 337.098632812 645 l 1
 317.833007812 592 300.529296875 520 284.587890625 445 c 2
 265.8828125 357 l 1
 357.365234375 358.799804688 379.862304688 443 459.8671875 531 c 0
 516.3671875 593.099609375 588.862304688 658 666.862304688 658 c 0
 693.862304688 658 697.224609375 655 721.736328125 648 c 1
 725.4609375 642 l 1
 677.119140625 551 l 1
 664.481445312 548 l 1
 647.45703125 562 631.944335938 569 603.944335938 569 c 0
 580.944335938 569 540.90625 550 494.703125 502 c 0
 437.719726562 442.799804688 404.520507812 360 357.26953125 340 c 1
 356.631835938 337 l 1
 426.081054688 325 440.12890625 297 479.375976562 237 c 0
 543.7578125 140 530.91796875 89 596 0 c 1
 592.149414062 -4 l 1
 579.575195312 -2 541 0 516 0 c 0
 490 0 489.575195312 -2 466.149414062 -4 c 1
 434.516601562 73 423.869140625 117 406.921875 169 c 0
 381.752929688 246.299804688 364.1171875 304 256.275390625 311.799804688 c 1
 232.51171875 200 l 2
 216.569335938 125 204.116210938 57 200 0 c 1
 197.362304688 -3 l 1
 185.787109375 -1 159 0 147 0 c 0
 135 0 107.787109375 -1 95.3623046875 -3 c 1
 94 0 l 1
 113.478515625 54 130.569335938 125 146.51171875 200 c 2
 198.587890625 445 l 2
EndSplineSet
LCarets2: 1 0 
Colour: ff00ff
EndChar

StartChar: uni040D
Encoding: 1037 1037 71
Width: 728
VWidth: 999
Flags: HW
HStem: -3 21<94 102 192 200 528 536 626 634> 0 21<159.81 211.762> 625.2 20<516.891 570.882> 628 20<94 102 192 200 528 536 626 634> 698 120
VStem: 104 86<2.67992 642.32> 223 212 538 86<2.67992 642.32>
DStem2: 159.81 18.0518 200 0 0.50693 0.861987<4.81334 727.544>
LayerCount: 2
Fore
SplineSet
198.587890625 445 m 2
 214.529296875 520 226.983398438 588 231.098632812 645 c 1
 233.736328125 648 l 1
 245.311523438 646 272.098632812 645 284.098632812 645 c 0
 296.098632812 645 323.311523438 646 335.736328125 648 c 1
 337.098632812 645 l 1
 317.833007812 592 300.529296875 520 284.587890625 445 c 2
 232.51171875 200 l 2
 223.03125 155.400390625 214.76171875 113.200195312 208.814453125 74.400390625 c 1
 665.029296875 644.200195312 l 2
 665.092773438 644.5 665.03515625 644.700195312 665.098632812 645 c 2
 667.736328125 648 l 1
 679.311523438 646 706.098632812 645 718.098632812 645 c 0
 730.098632812 645 757.311523438 646 769.736328125 648 c 1
 771.098632812 645 l 1
 751.833007812 592 734.529296875 520 718.587890625 445 c 2
 666.51171875 200 l 2
 650.569335938 125 638.116210938 57 634 0 c 1
 631.362304688 -3 l 1
 619.787109375 -1 593 0 581 0 c 0
 569 0 541.787109375 -1 529.362304688 -3 c 1
 528 0 l 1
 547.478515625 54 564.569335938 125 580.51171875 200 c 2
 632.587890625 445 l 2
 642.00390625 489.299804688 650.209960938 531.200195312 656.21484375 569.799804688 c 1
 200 0 l 1
 197.362304688 -3 l 1
 185.787109375 -1 159 0 147 0 c 0
 135 0 107.787109375 -1 95.3623046875 -3 c 1
 94 0 l 1
 113.478515625 54 130.569335938 125 146.51171875 200 c 2
 198.587890625 445 l 2
472.87109375 818 m 1
 576.016601562 734 l 2
 585.31640625 726 588.041015625 720 586.552734375 713 c 0
 584.852539062 705 576.364257812 698 568.364257812 698 c 0
 560.364257812 698 547.001953125 701 527.915039062 710 c 2
 387.306640625 773 l 1
 409.368164062 790.700195312 436.206054688 806.400390625 472.87109375 818 c 1
EndSplineSet
LCarets2: 1 0 
Colour: ff00ff
EndChar

StartChar: afii10062
Encoding: 1038 1038 72
Width: 580
VWidth: 999
Flags: HW
HStem: -22 69<145.475 228.079> 645 21<97.5 114.5 520.5 531.5> 697 31<264.585 355.415>
VStem: 185 69<734.873 803.004> 366 69<736.589 803.004>
DStem2: 278.595 138.281 342 161 0.410131 0.912027<-105.377 13.9627 113.393 328.053>
LayerCount: 2
Fore
SplineSet
464.741210938 728 m 0
 497.741210938 728 524.354492188 745 527.967773438 762 c 0
 529.03125 767 529.306640625 773 529.731445312 775 c 0
 532.919921875 790 546.108398438 805 569.108398438 805 c 0
 596.108398438 805 603.131835938 791 599.09375 772 c 0
 588.041015625 720 524.15234375 697 458.15234375 697 c 0
 392.15234375 697 338.041015625 720 349.09375 772 c 0
 353.131835938 791 366.108398438 805 393.108398438 805 c 0
 416.108398438 805 422.919921875 790 419.731445312 775 c 0
 419.306640625 773 417.03125 767 415.967773438 762 c 0
 412.354492188 745 431.741210938 728 464.741210938 728 c 0
145.165039062 115.099609375 m 1
 144.3671875 85 162.690429688 47 204.990234375 47 c 0
 247.690429688 47 271.138671875 81.099609375 307.99609375 138.299804688 c 1
 264.547851562 339.900390625 206.389648438 567.799804688 183.736328125 648 c 1
 200.098632812 645 226.098632812 645 243.098632812 645 c 0
 260.098632812 645 281.098632812 645 298.736328125 648 c 1
 300.959960938 618 324.022460938 470.099609375 374.745117188 242.5 c 1
 466.637695312 386.900390625 564.940429688 546.400390625 613.736328125 648 c 1
 625.098632812 645 652.098632812 645 663.098632812 645 c 0
 674.098632812 645 686.098632812 645 698.736328125 648 c 1
 376.221679688 161 l 2
 305.399414062 54.099609375 239.32421875 -22 149.32421875 -22 c 0
 105.32421875 -22 58.419921875 -3.2001953125 44.05078125 20 c 1
 44.9443359375 24.2001953125 l 1
 70.294921875 44.2001953125 105.84375 86.2998046875 131.881835938 118 c 1
 145.165039062 115.099609375 l 1
EndSplineSet
LCarets2: 1 0 
Colour: ff00ff
EndChar

StartChar: afii10020
Encoding: 1043 1043 73
Width: 481
VWidth: 999
Flags: HW
HStem: -3 21<88 142 142 195> 591 54<189.662 412.584>
VStem: 99 86<2.67992 589.791>
LayerCount: 2
Fore
SplineSet
279.587890625 445 m 2
 227.51171875 200 l 2
 211.569335938 125 198.265625 53 195 0 c 1
 193.362304688 -3 l 1
 193.362304688 -3 177 0 142 0 c 0
 108 0 89.3623046875 -3 89.3623046875 -3 c 1
 88 0 l 1
 108.116210938 57 125.569335938 125 141.51171875 200 c 2
 193.587890625 445 l 2
 209.529296875 520 222.62109375 591 226.098632812 645 c 1
 227.736328125 648 l 1
 227.736328125 648 245.098632812 645 279.098632812 645 c 2
 552.098632812 645 l 2
 573.098632812 645 596.311523438 646 612.736328125 648 c 1
 614.098632812 645 l 1
 610.123046875 631 608.060546875 626 605.934570312 616 c 0
 603.809570312 606 601.62109375 591 600.920898438 583 c 1
 598.0703125 579 l 1
 598.0703125 579 452.62109375 591 318.62109375 591 c 1
 306.51953125 567 283.201171875 462 279.587890625 445 c 2
EndSplineSet
Colour: ff00ff
EndChar

StartChar: afii10021
Encoding: 1044 1044 74
Width: 708
VWidth: 999
Flags: HW
HStem: 0 44<192.009 452.856> 601 44<276.411 452.674>
VStem: 39 36<-138 -59.5127> 461 86<60.1801 586.818> 570 36<-138 -59.5127>
LayerCount: 2
Fore
SplineSet
434.352539062 44 m 2
 452.352539062 44 460.627929688 50 465.541015625 59 c 0
 477.642578125 83 499.897460938 183 503.51171875 200 c 2
 555.587890625 445 l 2
 559.201171875 462 579.881835938 564 577.983398438 588 c 1
 572.896484375 597 569.74609375 601 554.74609375 601 c 2
 440.74609375 601 l 2
 413.74609375 601 401.62109375 591 394.306640625 566 c 0
 364.838867188 465 327.733398438 361 301.279296875 293 c 0
 254.41015625 176 208.3671875 77 203.903320312 56 c 0
 201.352539062 44 214.352539062 44 228.352539062 44 c 2
 434.352539062 44 l 2
178 0 m 2
 98 0 72.18359375 -65 45.6669921875 -138 c 1
 43.029296875 -141 l 1
 11.029296875 -141 l 1
 9.6669921875 -138 l 1
 29.337890625 11 l 2
 31.4638671875 21 38.1640625 29 63.8017578125 32 c 0
 84.412109375 34.400390625 104.801757812 32 121.990234375 47 c 0
 153.516601562 73 186.8203125 145 251.979492188 301 c 1
 298.2109375 415 332.104492188 518 345.495117188 581 c 0
 350.171875 603 351.84765625 625 353.098632812 645 c 1
 354.736328125 648 l 1
 354.736328125 648 381.098632812 645 415.098632812 645 c 2
 641.098632812 645 l 2
 675.098632812 645 693.736328125 648 693.736328125 648 c 1
 694.098632812 645 l 1
 674.62109375 591 657.529296875 520 641.587890625 445 c 2
 589.51171875 200 l 2
 566.129882812 90 561.439453125 35 594.801757812 32 c 0
 619.376953125 30 622.463867188 21 620.337890625 11 c 2
 576.666992188 -138 l 1
 574.029296875 -141 l 1
 542.029296875 -141 l 1
 540.666992188 -138 l 1
 545.18359375 -65 547 0 467 0 c 2
 178 0 l 2
EndSplineSet
EndChar

StartChar: afii10024
Encoding: 1046 1046 75
Width: 924
VWidth: 999
Flags: HW
HStem: -4 21G<35 44.5 147 181 743 777 879.5 889> -3 21<407 415 505 513> 312 45<364.57 424 500 559.43> 569 89<70.0289 172.306 751.694 853.971> 628 20<407 415 505 513>
VStem: 417 86<2.67992 642.32>
LayerCount: 2
Fore
SplineSet
284.921875 169 m 0
 247.869140625 117 219.516601562 73 157.149414062 -4 c 1
 135.575195312 -2 136 0 111 0 c 0
 88 0 50.5751953125 -2 37.1494140625 -4 c 1
 35 0 l 1
 133.91796875 89 142.7578125 140 244.375976562 237 c 0
 307.12890625 297 331.081054688 325 402.631835938 337 c 1
 403.26953125 340 l 1
 366.520507812 360 369.162109375 443 339.703125 502 c 0
 315.90625 550 285.944335938 569 263.944335938 569 c 0
 236.944335938 569 219.45703125 562 197.481445312 548 c 1
 187.119140625 551 l 1
 178.4609375 642 l 1
 184.736328125 648 l 1
 211.224609375 655 214.862304688 658 240.862304688 658 c 0
 314.862304688 658 357.045898438 593 384.8671875 531 c 0
 423.860351562 444.400390625 411.560546875 361.599609375 492.924804688 357.200195312 c 1
 511.587890625 445 l 2
 527.529296875 520 539.983398438 588 544.098632812 645 c 1
 546.736328125 648 l 1
 558.311523438 646 585.098632812 645 597.098632812 645 c 0
 609.098632812 645 636.311523438 646 648.736328125 648 c 1
 650.098632812 645 l 1
 630.833007812 592 613.529296875 520 597.587890625 445 c 2
 578.8828125 357 l 1
 665.38671875 358.900390625 687.862304688 443 764.8671875 531 c 0
 819.045898438 593 888.862304688 658 962.862304688 658 c 0
 988.862304688 658 991.224609375 655 1014.73632812 648 c 1
 1018.4609375 642 l 1
 971.119140625 551 l 1
 959.481445312 548 l 1
 943.45703125 562 928.944335938 569 901.944335938 569 c 0
 879.944335938 569 841.90625 550 797.703125 502 c 0
 743.162109375 443 710.520507812 360 665.26953125 340 c 1
 664.631835938 337 l 1
 731.081054688 325 743.12890625 297 780.375976562 237 c 0
 840.7578125 140 827.91796875 89 889 0 c 1
 885.149414062 -4 l 1
 872.575195312 -2 836 0 813 0 c 0
 788 0 787.575195312 -2 765.149414062 -4 c 1
 735.516601562 73 725.869140625 117 710.921875 169 c 0
 687.752929688 246.299804688 671.196289062 303.900390625 569.275390625 311.799804688 c 1
 545.51171875 200 l 2
 529.569335938 125 517.116210938 57 513 0 c 1
 510.362304688 -3 l 1
 498.787109375 -1 472 0 460 0 c 0
 448 0 420.787109375 -1 408.362304688 -3 c 1
 407 0 l 1
 426.478515625 54 443.569335938 125 459.51171875 200 c 2
 483.2109375 311.5 l 1
 380.977539062 302.400390625 340.240234375 245.299804688 284.921875 169 c 0
EndSplineSet
Colour: ff80cc
EndChar

StartChar: afii10025
Encoding: 1047 1047 76
Width: 542
VWidth: 999
Flags: HW
HStem: -12 37<172.536 324.196> 336 37<158.005 306.843> 469 21G<49 91> 624 34<165.85 309.892>
VStem: 49 30<470.533 513.383> 375 80<432.684 569.184> 405 92<100.605 254.446>
LayerCount: 2
Fore
SplineSet
253.313476562 25 m 0
 323.313476562 25 419.454101562 68 442.41015625 176 c 0
 453.25 227 437.418945312 336 320.418945312 336 c 2
 247.418945312 336 l 2
 236.418945312 336 230.907226562 343 233.245117188 354 c 0
 235.583007812 365 244.283203125 373 255.283203125 373 c 2
 302.283203125 373 l 2
 421.283203125 373 470.86328125 451 482.553710938 506 c 0
 496.794921875 573 443.635742188 624 381.635742188 624 c 0
 258.635742188 624 219.90625 550 178.689453125 469 c 1
 149.114257812 471 l 1
 206.311523438 646 l 1
 293.311523438 646 330.862304688 658 390.862304688 658 c 0
 483.862304688 658 584.872070312 611 564.678710938 516 c 0
 547.887695312 437 494.259765625 387 416.520507812 360 c 1
 483.26953125 340 560.5546875 299 537.810546875 192 c 0
 505.71484375 41 360.44921875 -12 242.44921875 -12 c 0
 161.44921875 -12 119.0390625 19 93.1396484375 43 c 0
 70.603515625 64 55.3427734375 91 61.08203125 118 c 0
 66.6083984375 144 82.072265625 165 105.072265625 165 c 0
 133.072265625 165 140.30859375 152 144.506835938 120 c 0
 152.541015625 59 177.313476562 25 253.313476562 25 c 0
EndSplineSet
EndChar

StartChar: afii10026
Encoding: 1048 1048 77
Width: 728
VWidth: 999
Flags: HW
HStem: -3 21<94 102 192 200 528 536 626 634> 0 21G<159.81 211.762> 625.2 20G<516.891 570.882> 628 20<94 102 192 200 528 536 626 634>
VStem: 104 86<2.67992 642.32> 538 86<2.67992 642.32>
DStem2: 159.81 18.0518 200 0 0.50693 0.861987<4.81334 727.544>
LayerCount: 2
Fore
SplineSet
198.587890625 445 m 2
 214.529296875 520 226.983398438 588 231.098632812 645 c 1
 233.736328125 648 l 1
 245.311523438 646 272.098632812 645 284.098632812 645 c 0
 296.098632812 645 323.311523438 646 335.736328125 648 c 1
 337.098632812 645 l 1
 317.833007812 592 300.529296875 520 284.587890625 445 c 2
 232.51171875 200 l 2
 223.03125 155.400390625 214.76171875 113.200195312 208.814453125 74.400390625 c 1
 665.029296875 644.200195312 l 2
 665.092773438 644.5 665.03515625 644.700195312 665.098632812 645 c 2
 667.736328125 648 l 1
 679.311523438 646 706.098632812 645 718.098632812 645 c 0
 730.098632812 645 757.311523438 646 769.736328125 648 c 1
 771.098632812 645 l 1
 751.833007812 592 734.529296875 520 718.587890625 445 c 2
 666.51171875 200 l 2
 650.569335938 125 638.116210938 57 634 0 c 1
 631.362304688 -3 l 1
 619.787109375 -1 593 0 581 0 c 0
 569 0 541.787109375 -1 529.362304688 -3 c 1
 528 0 l 1
 547.478515625 54 564.569335938 125 580.51171875 200 c 2
 632.587890625 445 l 2
 642.00390625 489.299804688 650.209960938 531.200195312 656.21484375 569.799804688 c 1
 200 0 l 1
 197.362304688 -3 l 1
 185.787109375 -1 159 0 147 0 c 0
 135 0 107.787109375 -1 95.3623046875 -3 c 1
 94 0 l 1
 113.478515625 54 130.569335938 125 146.51171875 200 c 2
 198.587890625 445 l 2
EndSplineSet
EndChar

StartChar: afii10027
Encoding: 1049 1049 78
Width: 728
VWidth: 999
Flags: HW
HStem: -3 21<94 102 192 200 528 536 626 634> 0 21<159.81 211.762> 625.2 20<516.891 570.882> 628 20<94 102 192 200 528 536 626 634> 697 31<304.585 395.415>
VStem: 104 86<2.67992 642.32> 225 69<734.873 803.004> 406 69<736.589 803.004> 538 86<2.67992 642.32>
DStem2: 159.81 18.0518 200 0 0.50693 0.861987<4.81334 727.544>
LayerCount: 2
Fore
SplineSet
504.741210938 728 m 0
 537.741210938 728 564.354492188 745 567.967773438 762 c 0
 569.03125 767 569.306640625 773 569.731445312 775 c 0
 572.919921875 790 586.108398438 805 609.108398438 805 c 0
 636.108398438 805 643.131835938 791 639.09375 772 c 0
 628.041015625 720 564.15234375 697 498.15234375 697 c 0
 432.15234375 697 378.041015625 720 389.09375 772 c 0
 393.131835938 791 406.108398438 805 433.108398438 805 c 0
 456.108398438 805 462.919921875 790 459.731445312 775 c 0
 459.306640625 773 457.03125 767 455.967773438 762 c 0
 452.354492188 745 471.741210938 728 504.741210938 728 c 0
198.587890625 445 m 2
 214.529296875 520 226.983398438 588 231.098632812 645 c 1
 233.736328125 648 l 1
 245.311523438 646 272.098632812 645 284.098632812 645 c 0
 296.098632812 645 323.311523438 646 335.736328125 648 c 1
 337.098632812 645 l 1
 317.833007812 592 300.529296875 520 284.587890625 445 c 2
 232.51171875 200 l 2
 223.03125 155.400390625 214.76171875 113.200195312 208.814453125 74.400390625 c 1
 665.029296875 644.200195312 l 2
 665.092773438 644.5 665.03515625 644.700195312 665.098632812 645 c 2
 667.736328125 648 l 1
 679.311523438 646 706.098632812 645 718.098632812 645 c 0
 730.098632812 645 757.311523438 646 769.736328125 648 c 1
 771.098632812 645 l 1
 751.833007812 592 734.529296875 520 718.587890625 445 c 2
 666.51171875 200 l 2
 650.569335938 125 638.116210938 57 634 0 c 1
 631.362304688 -3 l 1
 619.787109375 -1 593 0 581 0 c 0
 569 0 541.787109375 -1 529.362304688 -3 c 1
 528 0 l 1
 547.478515625 54 564.569335938 125 580.51171875 200 c 2
 632.587890625 445 l 2
 642.00390625 489.299804688 650.209960938 531.200195312 656.21484375 569.799804688 c 1
 200 0 l 1
 197.362304688 -3 l 1
 185.787109375 -1 159 0 147 0 c 0
 135 0 107.787109375 -1 95.3623046875 -3 c 1
 94 0 l 1
 113.478515625 54 130.569335938 125 146.51171875 200 c 2
 198.587890625 445 l 2
EndSplineSet
LCarets2: 1 0 
Colour: ff00ff
EndChar

StartChar: afii10033
Encoding: 1055 1055 79
Width: 708
VWidth: 999
Flags: HW
HStem: -3 21<90 144 144 197 511 564 564 618> 601 44<195.326 512.674>
VStem: 101 86<2.67992 586.818> 521 86<2.67992 586.818>
LayerCount: 2
Fore
SplineSet
701.098632812 645 m 2
 735.098632812 645 753.736328125 648 753.736328125 648 c 1
 754.098632812 645 l 1
 734.62109375 591 717.529296875 520 701.587890625 445 c 2
 649.51171875 200 l 2
 633.569335938 125 622.116210938 57 618 0 c 1
 615.362304688 -3 l 1
 615.362304688 -3 598 0 564 0 c 0
 529 0 511.362304688 -3 511.362304688 -3 c 1
 511 0 l 1
 530.265625 53 547.569335938 125 563.51171875 200 c 2
 615.587890625 445 l 2
 619.201171875 462 639.881835938 564 637.983398438 588 c 1
 632.896484375 597 629.74609375 601 614.74609375 601 c 2
 348.74609375 601 l 2
 333.74609375 601 328.896484375 597 319.983398438 588 c 1
 307.881835938 564 285.201171875 462 281.587890625 445 c 2
 229.51171875 200 l 2
 213.569335938 125 200.265625 53 197 0 c 1
 195.362304688 -3 l 1
 195.362304688 -3 179 0 144 0 c 0
 110 0 91.3623046875 -3 91.3623046875 -3 c 1
 90 0 l 1
 110.116210938 57 127.569335938 125 143.51171875 200 c 2
 195.587890625 445 l 2
 211.529296875 520 224.62109375 591 228.098632812 645 c 1
 229.736328125 648 l 1
 229.736328125 648 247.098632812 645 281.098632812 645 c 2
 701.098632812 645 l 2
EndSplineSet
Colour: ff00ff
EndChar

StartChar: afii10034
Encoding: 1056 1056 80
Width: 559
VWidth: 999
Flags: HW
HStem: -3 21<94 102 192 200> 276 43<190.832 365.053> 609 43<172.409 371.18>
VStem: 104 86<2.67993 286 323.159 597.325> 422 97<391.757 557.83>
LayerCount: 2
Fore
SplineSet
310.094726562 565 m 2
 259.930664062 329 l 1
 271.443359375 322 311.805664062 319 336.805664062 319 c 0
 433.805664062 319 497.669921875 356 522.114257812 471 c 0
 547.408203125 590 478.447265625 609 409.447265625 609 c 0
 337.447265625 609 316.258789062 594 310.094726562 565 c 2
198.587890625 445 m 2
 214.529296875 520 226.983398438 588 231.098632812 645 c 1
 233.736328125 648 l 1
 245.311523438 646 272.098632812 645 284.098632812 645 c 0
 314.098632812 645 399.586914062 652 425.586914062 652 c 0
 610.586914062 652 635.90625 550 620.176757812 476 c 0
 602.109375 391 514.666015625 276 332.666015625 276 c 0
 297.666015625 276 271.303710938 279 250.791015625 286 c 1
 232.51171875 200 l 2
 216.569335938 125 204.116210938 57 200 0 c 1
 197.362304688 -3 l 1
 185.787109375 -1 159 0 147 0 c 0
 135 0 107.787109375 -1 95.3623046875 -3 c 1
 94 0 l 1
 113.478515625 54 130.569335938 125 146.51171875 200 c 2
 198.587890625 445 l 2
EndSplineSet
Colour: ff00ff
EndChar

StartChar: afii10035
Encoding: 1057 1057 81
Width: 677
VWidth: 999
Flags: HW
HStem: -10 51<293.154 483.346> 611 47<286.061 475.844>
VStem: 52 103<205.515 435.455>
LayerCount: 2
Fore
SplineSet
519.862304688 658 m 0
 641.862304688 658 728.296875 613 728.296875 613 c 1
 729.659179688 610 l 1
 707.380859375 560.700195312 700.505859375 550 686.065429688 499 c 1
 675.853515625 498 l 1
 652.283203125 580 585.872070312 611 495.872070312 611 c 0
 413.872070312 611 269.142578125 537 225.994140625 334 c 0
 194.9609375 188 238.71484375 41 393.71484375 41 c 0
 486.71484375 41 541.028320312 66 628.608398438 144 c 1
 648.569335938 125 l 1
 561.65234375 36 470.874023438 -10 373.874023438 -10 c 0
 158.874023438 -10 84.7333984375 154 118.955078125 315 c 0
 160.829101562 512 350.862304688 658 519.862304688 658 c 0
EndSplineSet
Colour: ff00ff
EndChar

StartChar: afii10036
Encoding: 1058 1058 82
Width: 540
VWidth: 999
Flags: HW
HStem: -3 21<217 225 315 323> 589 56<17.7551 222.338 317.662 522.245>
VStem: 227 86<2.67992 587.818>
LayerCount: 2
Fore
SplineSet
321.587890625 445 m 2
 325.201171875 462 346.094726562 565 344.196289062 589 c 1
 210.196289062 589 139.219726562 575 139.219726562 575 c 1
 138.0703125 579 l 1
 143.258789062 594 148.147460938 617 152.098632812 645 c 1
 154.736328125 648 l 1
 170.311523438 646 193.098632812 645 214.098632812 645 c 2
 600.098632812 645 l 2
 621.098632812 645 644.311523438 646 660.736328125 648 c 1
 662.098632812 645 l 1
 654.147460938 617 649.258789062 594 648.0703125 579 c 1
 645.219726562 575 l 1
 645.219726562 575 580.196289062 589 446.196289062 589 c 1
 434.094726562 565 411.201171875 462 407.587890625 445 c 2
 355.51171875 200 l 2
 339.569335938 125 327.116210938 57 323 0 c 1
 320.362304688 -3 l 1
 308.787109375 -1 282 0 270 0 c 0
 258 0 230.787109375 -1 218.362304688 -3 c 1
 217 0 l 1
 236.478515625 54 253.569335938 125 269.51171875 200 c 2
 321.587890625 445 l 2
EndSplineSet
Colour: ff00ff
EndChar

StartChar: afii10037
Encoding: 1059 1059 83
Width: 580
VWidth: 999
Flags: HW
HStem: -22 69<145.475 228.079> 645 21G<97.5 114.5 520.5 531.5>
DStem2: 278.595 138.281 342 161 0.410131 0.912027<-105.377 13.9627 113.393 328.053>
LayerCount: 2
Fore
SplineSet
145.165039062 115.099609375 m 1
 144.3671875 85 162.690429688 47 204.990234375 47 c 0
 247.690429688 47 271.138671875 81.099609375 307.99609375 138.299804688 c 1
 264.547851562 339.900390625 206.389648438 567.799804688 183.736328125 648 c 1
 200.098632812 645 226.098632812 645 243.098632812 645 c 0
 260.098632812 645 281.098632812 645 298.736328125 648 c 1
 300.959960938 618 324.022460938 470.099609375 374.745117188 242.5 c 1
 466.637695312 386.900390625 564.940429688 546.400390625 613.736328125 648 c 1
 625.098632812 645 652.098632812 645 663.098632812 645 c 0
 674.098632812 645 686.098632812 645 698.736328125 648 c 1
 376.221679688 161 l 2
 305.399414062 54.099609375 239.32421875 -22 149.32421875 -22 c 0
 105.32421875 -22 58.419921875 -3.2001953125 44.05078125 20 c 1
 44.9443359375 24.2001953125 l 1
 70.294921875 44.2001953125 105.84375 86.2998046875 131.881835938 118 c 1
 145.165039062 115.099609375 l 1
EndSplineSet
EndChar

StartChar: afii10039
Encoding: 1061 1061 84
Width: 581
VWidth: 999
Flags: HW
HStem: -3 21<28.5 36.6457 101.5 134.298 419.617 457 520.843 555> 628 20<36.5 41.2125 132 156.316 436.407 469.5 525.709 542.5>
LayerCount: 2
Fore
SplineSet
563.362304688 -3 m 1
 546 0 524 0 506 0 c 0
 488 0 466 0 447.362304688 -3 c 1
 416.403320312 97.400390625 376.19921875 178.299804688 332.83203125 274.900390625 c 1
 258.315429688 189.200195312 180.314453125 95.099609375 106.362304688 -3 c 1
 96 0 77 0 65 0 c 0
 54 0 34 0 22.3623046875 -3 c 1
 312.23046875 321 l 1
 165.736328125 648 l 1
 182.098632812 645 204.098632812 645 221.098632812 645 c 0
 238.098632812 645 260.098632812 645 278.736328125 648 c 1
 294.826171875 588.200195312 340.908203125 491.200195312 385.067382812 390.799804688 c 1
 494.38671875 511.799804688 526.23828125 547.799804688 601.736328125 648 c 1
 612.098632812 645 632.098632812 645 643.098632812 645 c 0
 654.098632812 645 674.098632812 645 685.736328125 648 c 1
 629.61328125 587.200195312 524.841796875 479.599609375 404.916992188 345.400390625 c 1
 463.340820312 211.900390625 506.678710938 111.400390625 563.362304688 -3 c 1
EndSplineSet
Colour: ff00ff
EndChar

StartChar: afii10040
Encoding: 1062 1062 85
Width: 702
VWidth: 999
Flags: HW
HStem: 0 44<195.144 512.856> 628 20G<90 144 144 197 511 564 564 618>
VStem: 101 86<60.1801 642.32> 521 86<60.1801 642.32> 629 36<-138 -59.6869>
LayerCount: 2
Fore
SplineSet
649.51171875 200 m 2
 626.129882812 90 620.639648438 35 653.801757812 32 c 0
 678.234375 29.7998046875 681.400390625 20.7001953125 679.337890625 11 c 2
 635.666992188 -138 l 1
 633.029296875 -141 l 1
 601.029296875 -141 l 1
 599.666992188 -138 l 1
 604.19921875 -65.400390625 605.700195312 0 526 0 c 2
 144 0 l 2
 110 0 91.3623046875 -3 91.3623046875 -3 c 1
 91 0 l 1
 110.478515625 54 127.569335938 125 143.51171875 200 c 2
 195.587890625 445 l 2
 211.529296875 520 222.983398438 588 227.098632812 645 c 1
 229.736328125 648 l 1
 229.736328125 648 247.098632812 645 281.098632812 645 c 0
 316.098632812 645 333.736328125 648 333.736328125 648 c 1
 334.098632812 645 l 1
 314.833007812 592 297.529296875 520 281.587890625 445 c 2
 229.51171875 200 l 2
 225.897460938 183 205.642578125 83 207.541015625 59 c 0
 208.627929688 50 214.352539062 44 232.352539062 44 c 2
 494.352539062 44 l 2
 512.352539062 44 520.627929688 50 525.541015625 59 c 0
 537.642578125 83 559.897460938 183 563.51171875 200 c 2
 615.587890625 445 l 2
 631.529296875 520 644.833007812 592 648.098632812 645 c 1
 649.736328125 648 l 1
 649.736328125 648 666.098632812 645 701.098632812 645 c 0
 735.098632812 645 753.736328125 648 753.736328125 648 c 1
 755.098632812 645 l 1
 734.983398438 588 717.529296875 520 701.587890625 445 c 2
 649.51171875 200 l 2
EndSplineSet
EndChar

StartChar: afii10041
Encoding: 1063 1063 86
Width: 633
VWidth: 999
Flags: HW
HStem: -3 21<434 442 532 540> 244 64<213.903 364.049> 628 20G<84 137 137 190 434 442 532 540>
VStem: 94 86<340.66 642.32> 444 86<2.67992 642.32>
LayerCount: 2
Fore
SplineSet
274.587890625 445 m 2
 268.635742188 417 l 2
 251.206054688 335 285.467773438 308 357.467773438 308 c 0
 385.666992188 308 447.975585938 311.799804688 518.755859375 351.700195312 c 1
 538.587890625 445 l 2
 554.529296875 520 566.983398438 588 571.098632812 645 c 1
 573.736328125 648 l 1
 585.311523438 646 612.098632812 645 624.098632812 645 c 0
 636.098632812 645 663.311523438 646 675.736328125 648 c 1
 677.098632812 645 l 1
 657.833007812 592 640.529296875 520 624.587890625 445 c 2
 572.51171875 200 l 2
 556.569335938 125 544.116210938 57 540 0 c 1
 537.362304688 -3 l 1
 525.787109375 -1 499 0 487 0 c 0
 475 0 447.787109375 -1 435.362304688 -3 c 1
 434 0 l 1
 453.478515625 54 470.569335938 125 486.51171875 200 c 2
 509.3828125 307.599609375 l 1
 428.015625 259.299804688 358.563476562 244 301.864257812 244 c 0
 187.864257812 244 162.65625 323 183.69921875 422 c 2
 188.587890625 445 l 2
 204.529296875 520 216.983398438 588 221.098632812 645 c 1
 223.736328125 648 l 1
 223.736328125 648 240.098632812 645 274.098632812 645 c 0
 309.098632812 645 326.736328125 648 326.736328125 648 c 1
 327.098632812 645 l 1
 307.833007812 592 290.529296875 520 274.587890625 445 c 2
EndSplineSet
EndChar

StartChar: afii10042
Encoding: 1064 1064 87
Width: 960
VWidth: 999
Flags: HW
HStem: 0 44<197.144 430.533 531.144 766.533> 628 20G<92 146 146 199 426 480 480 533 763 816 816 870>
VStem: 103 86<60.1801 642.32> 437 86<60.1801 642.32> 773 86<47.6754 642.32>
CounterMasks: 1 38
LayerCount: 2
Fore
SplineSet
901.51171875 200 m 2
 885.869140625 125 873.116210938 57 869 0 c 1
 866.362304688 -3 l 1
 866.362304688 -3 850 0 816 0 c 2
 147 0 l 2
 112 0 93.3623046875 -3 93.3623046875 -3 c 1
 93 0 l 1
 112.478515625 54 129.569335938 125 145.51171875 200 c 2
 197.587890625 445 l 2
 213.529296875 520 224.983398438 588 229.098632812 645 c 1
 231.736328125 648 l 1
 231.736328125 648 249.098632812 645 283.098632812 645 c 0
 318.098632812 645 335.736328125 648 335.736328125 648 c 1
 336.098632812 645 l 1
 316.833007812 592 299.529296875 520 283.587890625 445 c 2
 231.51171875 200 l 2
 227.897460938 183 207.642578125 83 209.541015625 59 c 0
 210.627929688 50 216.352539062 44 234.352539062 44 c 2
 410.352539062 44 l 2
 428.352539062 44 436.627929688 50 441.541015625 59 c 0
 453.642578125 83 475.897460938 183 479.51171875 200 c 2
 531.587890625 445 l 2
 547.529296875 520 558.983398438 588 563.098632812 645 c 1
 565.736328125 648 l 1
 565.736328125 648 583.098632812 645 617.098632812 645 c 0
 652.098632812 645 669.736328125 648 669.736328125 648 c 1
 670.098632812 645 l 1
 650.833007812 592 633.529296875 520 617.587890625 445 c 2
 565.51171875 200 l 2
 561.897460938 183 541.642578125 83 543.541015625 59 c 0
 544.627929688 50 550.352539062 44 568.352539062 44 c 2
 746.352539062 44 l 2
 764.352539062 44 772.627929688 50 777.541015625 59 c 0
 789.642578125 83 811.897460938 183 815.51171875 200 c 2
 867.587890625 445 l 2
 883.529296875 520 896.833007812 592 900.098632812 645 c 1
 901.736328125 648 l 1
 901.736328125 648 918.098632812 645 953.098632812 645 c 0
 987.098632812 645 1005.73632812 648 1005.73632812 648 c 1
 1007.09863281 645 l 1
 986.983398438 588 969.529296875 520 953.587890625 445 c 2
 901.51171875 200 l 2
EndSplineSet
EndChar

StartChar: afii10043
Encoding: 1065 1065 88
Width: 948
VWidth: 999
Flags: HW
HStem: 0 44<197.144 430.533 531.144 766.533> 628 20G<92 146 146 199 426 480 480 533 763 816 816 870>
VStem: 103 86<60.1801 642.32> 437 86<60.1801 642.32> 773 86<46.9378 642.32> 881 36<-138 -59.6869>
LayerCount: 2
Fore
SplineSet
147 0 m 2
 112 0 93.3623046875 -3 93.3623046875 -3 c 1
 93 0 l 1
 112.478515625 54 129.569335938 125 145.51171875 200 c 2
 197.587890625 445 l 2
 213.529296875 520 224.983398438 588 229.098632812 645 c 1
 231.736328125 648 l 1
 231.736328125 648 249.098632812 645 283.098632812 645 c 0
 318.098632812 645 335.736328125 648 335.736328125 648 c 1
 336.098632812 645 l 1
 316.833007812 592 299.529296875 520 283.587890625 445 c 2
 231.51171875 200 l 2
 227.897460938 183 207.642578125 83 209.541015625 59 c 0
 210.627929688 50 216.352539062 44 234.352539062 44 c 2
 410.352539062 44 l 2
 428.352539062 44 436.627929688 50 441.541015625 59 c 0
 453.642578125 83 475.897460938 183 479.51171875 200 c 2
 531.587890625 445 l 2
 547.529296875 520 558.983398438 588 563.098632812 645 c 1
 565.736328125 648 l 1
 565.736328125 648 583.098632812 645 617.098632812 645 c 0
 652.098632812 645 669.736328125 648 669.736328125 648 c 1
 670.098632812 645 l 1
 650.833007812 592 633.529296875 520 617.587890625 445 c 2
 565.51171875 200 l 2
 561.897460938 183 541.642578125 83 543.541015625 59 c 0
 544.627929688 50 550.352539062 44 568.352539062 44 c 2
 746.352539062 44 l 2
 764.352539062 44 772.627929688 50 777.541015625 59 c 0
 789.642578125 83 811.897460938 183 815.51171875 200 c 2
 867.587890625 445 l 2
 883.529296875 520 896.833007812 592 900.098632812 645 c 1
 901.736328125 648 l 1
 901.736328125 648 918.098632812 645 953.098632812 645 c 0
 987.098632812 645 1005.73632812 648 1005.73632812 648 c 1
 1007.09863281 645 l 1
 986.983398438 588 969.529296875 520 953.587890625 445 c 2
 901.51171875 200 l 2
 878.129882812 90 872.639648438 35 905.801757812 32 c 0
 930.234375 29.7998046875 933.400390625 20.7001953125 931.337890625 11 c 2
 887.666992188 -138 l 1
 885.029296875 -141 l 1
 853.029296875 -141 l 1
 851.666992188 -138 l 1
 856.19921875 -65.400390625 857.700195312 0 778 0 c 2
 147 0 l 2
EndSplineSet
EndChar

StartChar: afii10044
Encoding: 1066 1066 89
Width: 723
VWidth: 999
Flags: HW
HStem: -2 35<330.638 507.646> 329 44<348 522.934> 581 64<52.7551 257.32>
VStem: 262 86<37.7419 329 373 578.197> 587 100<98.5818 271.869>
LayerCount: 2
Fore
SplineSet
417.930664062 329 m 1
 365.854492188 84 l 2
 358.840820312 51 357.014648438 33 412.014648438 33 c 0
 564.014648438 33 610.168945312 109 625.897460938 183 c 0
 640.989257812 254 630.930664062 329 502.930664062 329 c 2
 417.930664062 329 l 1
439.098632812 645 m 2
 477.098632812 645 494.736328125 648 494.736328125 648 c 1
 495.098632812 645 l 1
 475.833007812 592 460.629882812 520 442.587890625 445 c 1
 427.283203125 373 l 1
 505.283203125 373 l 2
 721.283203125 373 752.404296875 303 725.897460938 183 c 0
 689.000976562 16 549.575195312 -2 428.575195312 -2 c 0
 392.575195312 -2 336 0 307 0 c 0
 273 0 252.362304688 -3 252.362304688 -3 c 1
 252 0 l 1
 271.478515625 54 288.569335938 125 304.51171875 200 c 2
 356.587890625 445 l 2
 360.000976562 462 379.393554688 557 377.495117188 581 c 1
 243.495117188 581 172.944335938 569 172.944335938 569 c 1
 171.794921875 573 l 1
 176.983398438 588 183.147460938 617 187.098632812 645 c 1
 189.736328125 648 l 1
 205.311523438 646 228.098632812 645 249.098632812 645 c 2
 439.098632812 645 l 2
EndSplineSet
EndChar

StartChar: afii10045
Encoding: 1067 1067 90
Width: 786
VWidth: 999
Flags: HW
HStem: -2 21<586 594 684 692> -2 35<193.897 347.346> 329 44<189 366.218> 628 20<92 146 146 199> 629 20<586 594 684 692>
VStem: 103 86<37.7419 329 373 642.32> 428 100<97.9571 270.351> 596 86<3.67992 643.32>
LayerCount: 2
Fore
SplineSet
690.799804688 446 m 2
 706.7421875 521 719.196289062 589 723.311523438 646 c 1
 725.94921875 649 l 1
 737.524414062 647 764.311523438 646 776.311523438 646 c 0
 788.311523438 646 815.524414062 647 827.94921875 649 c 1
 829.311523438 646 l 1
 810.045898438 593 792.7421875 521 776.799804688 446 c 2
 724.723632812 201 l 2
 708.782226562 126 696.328125 58 692.212890625 1 c 1
 689.575195312 -2 l 1
 678 0 651.212890625 1 639.212890625 1 c 0
 627.212890625 1 600 0 587.575195312 -2 c 1
 586.212890625 1 l 1
 605.690429688 55 622.782226562 126 638.723632812 201 c 2
 690.799804688 446 l 2
148 0 m 0
 114 0 93.3623046875 -3 93.3623046875 -3 c 1
 93 0 l 1
 112.478515625 54 129.569335938 125 145.51171875 200 c 2
 197.587890625 445 l 2
 213.529296875 520 224.983398438 588 229.098632812 645 c 1
 231.736328125 648 l 1
 231.736328125 648 249.098632812 645 283.098632812 645 c 0
 318.098632812 645 335.736328125 648 335.736328125 648 c 1
 336.098632812 645 l 1
 316.833007812 592 299.529296875 520 283.587890625 445 c 2
 268.283203125 373 l 1
 346.283203125 373 l 2
 592.283203125 373 585.815429688 272 566.897460938 183 c 0
 530.975585938 14 394 0 249.575195312 -2 c 0
 213.46875 -2.5 177 0 148 0 c 0
258.930664062 329 m 1
 206.854492188 84 l 2
 199.840820312 51 198.014648438 33 253.014648438 33 c 0
 405.014648438 33 451.59375 111 466.897460938 183 c 0
 481.138671875 250 471.930664062 329 343.930664062 329 c 2
 258.930664062 329 l 1
EndSplineSet
Colour: ff00ff
EndChar

StartChar: afii10046
Encoding: 1068 1068 91
Width: 558
VWidth: 999
Flags: HW
HStem: -2 35<193.897 347.346> 329 44<189 366.218> 628 20G<92 146 146 199>
VStem: 103 86<37.7419 329 373 642.32> 428 100<97.9571 270.351>
LayerCount: 2
Fore
SplineSet
148 0 m 0
 114 0 93.3623046875 -3 93.3623046875 -3 c 1
 93 0 l 1
 112.478515625 54 129.569335938 125 145.51171875 200 c 2
 197.587890625 445 l 2
 213.529296875 520 224.983398438 588 229.098632812 645 c 1
 231.736328125 648 l 1
 231.736328125 648 249.098632812 645 283.098632812 645 c 0
 318.098632812 645 335.736328125 648 335.736328125 648 c 1
 336.098632812 645 l 1
 316.833007812 592 299.529296875 520 283.587890625 445 c 2
 268.283203125 373 l 1
 346.283203125 373 l 2
 592.283203125 373 585.815429688 272 566.897460938 183 c 0
 530.975585938 14 394 0 249.575195312 -2 c 0
 213.46875 -2.5 177 0 148 0 c 0
258.930664062 329 m 1
 206.854492188 84 l 2
 199.840820312 51 198.014648438 33 253.014648438 33 c 0
 405.014648438 33 451.59375 111 466.897460938 183 c 0
 481.138671875 250 471.930664062 329 343.930664062 329 c 2
 258.930664062 329 l 1
EndSplineSet
EndChar

StartChar: afii10047
Encoding: 1069 1069 92
Width: 604
VWidth: 999
Flags: HMW
HStem: -12 34<194 359> 273 56<309 422> 311 49<155 284> 621 37<189 346>
VStem: 472 89<186 307 344 460>
LayerCount: 2
Fore
SplineSet
537.254882812 307 m 1
 475.028320312 273 431.028320312 273 418.028320312 273 c 0
 356.028320312 273 321.10546875 311 262.10546875 311 c 0
 224.10546875 311 204.704101562 295 196.704101562 295 c 0
 192.704101562 295 188.341796875 298 190.254882812 307 c 0
 195.568359375 332 264.520507812 360 323.520507812 360 c 0
 389.520507812 360 411.930664062 329 469.930664062 329 c 0
 498.930664062 329 523.206054688 335 544.119140625 344 c 1
 577.90625 550 483.998046875 621 402.998046875 621 c 0
 307.998046875 621 212.780273438 540 168.500976562 454 c 1
 139.350585938 458 l 1
 161.616210938 511 179.606445312 558 193.296875 613 c 1
 251.934570312 616 313.862304688 658 418.862304688 658 c 0
 583.862304688 658 677.90625 550 631.78125 333 c 0
 585.018554688 113 442.44921875 -12 272.44921875 -12 c 0
 186.44921875 -12 137.0390625 19 111.139648438 43 c 0
 88.603515625 64 74.193359375 95 79.931640625 122 c 0
 85.4580078125 148 101.072265625 165 119.072265625 165 c 0
 148.072265625 165 157.30859375 152 160.506835938 120 c 0
 169.203125 48 218.463867188 21 290.463867188 21 c 0
 417.463867188 21 506.921875 169 537.254882812 307 c 1
EndSplineSet
EndChar

StartChar: afii10048
Encoding: 1070 1070 93
Width: 905
VWidth: 999
Flags: HW
HStem: -12 44<502.438 657.231> -3 21<94 102 192 200> 302 44<187 285> 614 44<495.389 660.456> 628 20<94 102 192 200>
VStem: 104 86<2.67992 642.32> 285 96<186.432 302 346 446.306> 770 96<184.305 464.996>
LayerCount: 2
Fore
SplineSet
702.509765625 614 m 0
 618.509765625 614 495.142578125 537 450.505859375 327 c 0
 409.6953125 135 480.801757812 32 588.801757812 32 c 0
 691.801757812 32 797.844726562 131 835.892578125 310 c 0
 880.104492188 518 827.509765625 614 702.509765625 614 c 0
198.587890625 445 m 2
 214.529296875 520 226.983398438 588 231.098632812 645 c 1
 233.736328125 648 l 1
 245.311523438 646 272.098632812 645 284.098632812 645 c 0
 296.098632812 645 323.311523438 646 335.736328125 648 c 1
 337.098632812 645 l 1
 317.833007812 592 300.529296875 520 284.587890625 445 c 2
 263.544921875 346 l 1
 359.544921875 346 l 1
 410.591796875 525 556.862304688 658 712.862304688 658 c 0
 895.862304688 658 978.017578125 527 935.930664062 329 c 0
 893.419921875 129 763.874023438 -10 571.44921875 -12 c 0
 413.109375 -13.599609375 309.956054688 108 349.192382812 302 c 1
 254.192382812 302 l 1
 232.51171875 200 l 2
 216.569335938 125 204.116210938 57 200 0 c 1
 197.362304688 -3 l 1
 185.787109375 -1 159 0 147 0 c 0
 135 0 107.787109375 -1 95.3623046875 -3 c 1
 94 0 l 1
 113.478515625 54 130.569335938 125 146.51171875 200 c 2
 198.587890625 445 l 2
EndSplineSet
EndChar

StartChar: afii10049
Encoding: 1071 1071 94
Width: 561
VWidth: 999
Flags: HW
HStem: -3 21G<0 12 112.5 127.5 370 423 423 476> 286 44<273.038 380> 613 39<216.656 397.701>
VStem: 71 97<391.218 564.52> 380 86<2.67993 286 330 603.161>
LayerCount: 2
Fore
SplineSet
427.296875 613 m 0
 366.296875 613 294.68359375 596 269.6015625 478 c 0
 243.032226562 353 305.143554688 330 402.143554688 330 c 2
 450.143554688 330 l 1
 500.944335938 569 l 2
 507.108398438 598 498.296875 613 427.296875 613 c 0
282.966796875 300 m 1
 263.850585938 305.099609375 250.268554688 311.299804688 238.592773438 318 c 0
 190.33203125 345 155.384765625 397 172.814453125 479 c 0
 183.442382812 529 209.157226562 570 252.383789062 604 c 0
 309.94921875 649 373.586914062 652 436.586914062 652 c 0
 461.586914062 652 530.098632812 645 560.098632812 645 c 0
 594.098632812 645 611.736328125 648 611.736328125 648 c 1
 613.098632812 645 l 1
 592.983398438 588 576.529296875 520 560.587890625 445 c 2
 508.51171875 200 l 2
 492.569335938 125 479.478515625 54 476 0 c 1
 474.362304688 -3 l 1
 474.362304688 -3 458 0 423 0 c 0
 389 0 371.362304688 -3 371.362304688 -3 c 1
 370 0 l 1
 390.116210938 57 406.569335938 125 422.51171875 200 c 2
 440.791015625 286 l 1
 415.891601562 286 394.119140625 286.599609375 375.03125 287.599609375 c 1
 339.538085938 254.700195312 302.078125 214.900390625 266.41015625 176 c 0
 200.10546875 104 139.588867188 31 121.362304688 -3 c 1
 103 0 73 0 54 0 c 0
 34 0 22 0 1.3623046875 -3 c 1
 0 0 l 1
 62.15234375 56.7001953125 201.291015625 215.900390625 282.966796875 300 c 1
EndSplineSet
EndChar

StartChar: afii10089
Encoding: 1095 1095 95
Width: 510
VWidth: 999
Flags: HW
HStem: -3 21<323 331 415 423> 137 44<162.252 301.419> 412 20G<57 107 107 157 323 331 415 423>
VStem: 68 80<195.691 426.366> 333 80<2.66467 426.335>
LayerCount: 2
Fore
SplineSet
129.853515625 291 m 0
 145.90234375 366.5 144.920898438 376 148.186523438 429 c 1
 149.82421875 432 l 1
 149.82421875 432 163.186523438 429 198.186523438 429 c 0
 232.186523438 429 246.82421875 432 246.82421875 432 c 1
 248.186523438 429 l 1
 228.071289062 372 226.220703125 368 210.279296875 293 c 0
 193.69921875 215 193.47265625 181 255.47265625 181 c 0
 303.47265625 181 342.416992188 192.5 380.400390625 223 c 1
 386.138671875 250 l 2
 401.23046875 321 411.708984375 375 414.186523438 429 c 1
 416.82421875 432 l 1
 428.399414062 430 452.186523438 429 464.186523438 429 c 0
 476.186523438 429 500.399414062 430 512.82421875 432 c 1
 514.186523438 429 l 1
 493.071289062 372 483.081054688 325 466.138671875 250 c 1
 451.047851562 179 l 2
 435.10546875 104 426.116210938 57 423 0 c 1
 420.362304688 -3 l 1
 408.787109375 -1 385 0 373 0 c 0
 361 0 336.787109375 -1 324.362304688 -3 c 1
 323 0 l 1
 343.45703125 53.900390625 355.276367188 104.799804688 370.94140625 178.5 c 1
 326.889648438 150.5 292.120117188 137 233.120117188 137 c 0
 135.120117188 137 107.323242188 185 129.853515625 291 c 0
EndSplineSet
EndChar

StartChar: afii10090
Encoding: 1096 1096 96
Width: 807
VWidth: 999
Flags: HW
HStem: 0 41<185.326 354.674 451.326 622.533> 412 20G<87 137 137 187 353 403 403 453 619 670 670 720>
VStem: 97 80<55.1837 426.335> 363 80<55.1837 426.335> 629 80<43.5547 426.335>
CounterMasks: 1 38
LayerCount: 2
Fore
SplineSet
751.51171875 200 m 2
 735.67578125 125.5 722.478515625 54 719 0 c 1
 717.362304688 -3 l 1
 717.362304688 -3 700 0 666 0 c 2
 140 0 l 2
 106 0 87.3623046875 -3 87.3623046875 -3 c 1
 87 0 l 1
 106.478515625 54 123.569335938 125 139.51171875 200 c 2
 150.138671875 250 l 2
 166.081054688 325 175.071289062 372 178.186523438 429 c 1
 180.82421875 432 l 1
 180.82421875 432 194.186523438 429 228.186523438 429 c 0
 263.186523438 429 277.82421875 432 277.82421875 432 c 1
 278.186523438 429 l 1
 257.708984375 375 245.868164062 324 230.138671875 250 c 2
 219.51171875 200 l 2
 215.897460938 183 194.579101562 78 196.478515625 54 c 1
 201.565429688 45 204.71484375 41 219.71484375 41 c 2
 337.71484375 41 l 2
 352.71484375 41 357.565429688 45 366.478515625 54 c 1
 378.579101562 78 401.897460938 183 405.51171875 200 c 2
 416.138671875 250 l 2
 432.081054688 325 441.071289062 372 444.186523438 429 c 1
 446.82421875 432 l 1
 446.82421875 432 460.186523438 429 494.186523438 429 c 0
 529.186523438 429 543.82421875 432 543.82421875 432 c 1
 544.186523438 429 l 1
 523.708984375 375 511.868164062 324 496.138671875 250 c 2
 485.51171875 200 l 2
 481.897460938 183 460.579101562 78 462.478515625 54 c 1
 467.565429688 45 470.71484375 41 485.71484375 41 c 2
 617.71484375 41 l 2
 632.71484375 41 623.565429688 45 632.478515625 54 c 1
 644.579101562 78 667.897460938 183 671.51171875 200 c 2
 681.926757812 249 l 2
 698.081054688 325 706.571289062 372 710.186523438 429 c 1
 712.82421875 432 l 1
 712.82421875 432 726.88671875 429 761.186523438 429 c 0
 796.186523438 429 810.82421875 432 810.82421875 432 c 1
 811.186523438 429 l 1
 791.315429688 375.5 777.889648438 324.099609375 761.926757812 249 c 2
 751.51171875 200 l 2
EndSplineSet
EndChar

StartChar: afii10091
Encoding: 1097 1097 97
Width: 813
VWidth: 999
Flags: HW
HStem: 0 41<185.326 354.674 451.326 622.533> 412 20G<87 137 137 187 353 403 403 453 619 670 670 720>
VStem: 97 80<55.1837 426.335> 363 80<55.1837 426.335> 629 80<41.465 426.335> 731 36<-125 -51.0882>
LayerCount: 2
Fore
SplineSet
140 0 m 2
 106 0 87.3623046875 -3 87.3623046875 -3 c 1
 87 0 l 1
 106.478515625 54 123.569335938 125 139.51171875 200 c 2
 150.138671875 250 l 2
 166.081054688 325 175.071289062 372 178.186523438 429 c 1
 180.82421875 432 l 1
 180.82421875 432 194.186523438 429 228.186523438 429 c 0
 263.186523438 429 277.82421875 432 277.82421875 432 c 1
 278.186523438 429 l 1
 257.708984375 375 245.868164062 324 230.138671875 250 c 2
 219.51171875 200 l 2
 215.897460938 183 194.579101562 78 196.478515625 54 c 1
 201.565429688 45 204.71484375 41 219.71484375 41 c 2
 337.71484375 41 l 2
 352.71484375 41 357.565429688 45 366.478515625 54 c 1
 378.579101562 78 401.897460938 183 405.51171875 200 c 2
 416.138671875 250 l 2
 432.081054688 325 441.071289062 372 444.186523438 429 c 1
 446.82421875 432 l 1
 446.82421875 432 460.186523438 429 494.186523438 429 c 0
 529.186523438 429 543.82421875 432 543.82421875 432 c 1
 544.186523438 429 l 1
 523.708984375 375 511.868164062 324 496.138671875 250 c 2
 485.51171875 200 l 2
 481.897460938 183 460.579101562 78 462.478515625 54 c 1
 467.565429688 45 470.71484375 41 485.71484375 41 c 2
 617.71484375 41 l 2
 632.71484375 41 623.565429688 45 632.478515625 54 c 1
 644.579101562 78 667.897460938 183 671.51171875 200 c 2
 681.926757812 249 l 2
 698.081054688 325 706.571289062 372 710.186523438 429 c 1
 712.82421875 432 l 1
 712.82421875 432 726.88671875 429 761.186523438 429 c 0
 796.186523438 429 810.82421875 432 810.82421875 432 c 1
 811.186523438 429 l 1
 791.315429688 375.5 777.889648438 324.099609375 761.926757812 249 c 2
 751.51171875 200 l 2
 728.129882812 90 722.639648438 35 755.801757812 32 c 0
 780.234375 29.7998046875 783.400390625 20.7001953125 781.337890625 11 c 2
 740.430664062 -125 l 1
 737.79296875 -128 l 1
 705.79296875 -128 l 1
 704.430664062 -125 l 1
 708.961914062 -52.400390625 707.700195312 0 628 0 c 2
 140 0 l 2
EndSplineSet
EndChar

StartChar: afii10092
Encoding: 1098 1098 98
Width: 545
VWidth: 999
Flags: HW
HStem: -2 36<257.238 403.141> 219 37<273 400.783> 374 55<34.7075 190>
VStem: 193 80<40.3429 219 256 372.311> 428 86<60.92 197.087>
LayerCount: 2
Fore
SplineSet
454.782226562 126 m 0
 466.047851562 179 457.549804688 219 386.549804688 219 c 2
 319.549804688 219 l 1
 289.791992188 79 l 2
 282.352539062 44 297.2265625 34 343.2265625 34 c 0
 393.2265625 34 437.352539062 44 454.782226562 126 c 0
246.138671875 250 m 2
 261.23046875 321 269.49609375 374 269.49609375 374 c 1
 144.49609375 374 111.158203125 363 111.158203125 363 c 1
 109.795898438 366 l 1
 114.771484375 380 119.66015625 403 123.186523438 429 c 1
 125.612304688 431 l 1
 140.399414062 430 161.186523438 429 180.186523438 429 c 2
 324.186523438 429 l 2
 358.186523438 429 372.82421875 432 372.82421875 432 c 1
 374.186523438 429 l 1
 353.071289062 372 343.994140625 334 328.051757812 259 c 2
 327.4140625 256 l 1
 404.4140625 256 l 2
 500.4140625 256 562.887695312 230 542.907226562 136 c 0
 525.052734375 52 451.575195312 -2 340.575195312 -2 c 0
 298.474609375 -2 275.099609375 0 233 0 c 0
 198 0 183.362304688 -3 183.362304688 -3 c 1
 183 0 l 1
 203.478515625 54 215.318359375 105 231.047851562 179 c 2
 246.138671875 250 l 2
EndSplineSet
EndChar

StartChar: afii10093
Encoding: 1099 1099 99
Width: 681
VWidth: 999
Flags: HW
HStem: -3 21<496 504 588 596> -2 36<165.238 311.141> 219 37<181 308.783> 412 20<91 141 141 191 496 504 588 596>
VStem: 101 80<40.3429 219 256 426.342> 336 86<60.92 197.087> 506 80<2.66467 426.335>
LayerCount: 2
Fore
SplineSet
559.138671875 250 m 2
 574.23046875 321 584.708984375 375 587.186523438 429 c 1
 589.82421875 432 l 1
 601.399414062 430 625.186523438 429 637.186523438 429 c 0
 649.186523438 429 673.399414062 430 685.82421875 432 c 1
 687.186523438 429 l 1
 666.071289062 372 656.081054688 325 639.138671875 250 c 1
 624.047851562 179 l 2
 608.10546875 104 599.116210938 57 596 0 c 1
 593.362304688 -3 l 1
 581.787109375 -1 558 0 546 0 c 0
 534 0 509.787109375 -1 497.362304688 -3 c 1
 496 0 l 1
 516.478515625 54 528.318359375 105 544.047851562 179 c 2
 559.138671875 250 l 2
362.782226562 126 m 0
 374.047851562 179 365.549804688 219 294.549804688 219 c 2
 227.549804688 219 l 1
 197.791992188 79 l 2
 190.352539062 44 205.2265625 34 251.2265625 34 c 0
 301.2265625 34 345.352539062 44 362.782226562 126 c 0
236.051757812 259 m 2
 235.4140625 256 l 1
 312.4140625 256 l 2
 408.4140625 256 470.887695312 230 450.907226562 136 c 0
 433.052734375 52 359.575195312 -2 248.575195312 -2 c 0
 206.474609375 -2 183.099609375 0 141 0 c 0
 106 0 91.3623046875 -3 91.3623046875 -3 c 1
 91 0 l 1
 111.478515625 54 123.318359375 105 139.047851562 179 c 2
 154.138671875 250 l 2
 169.23046875 321 179.708984375 375 182.186523438 429 c 1
 183.82421875 432 l 1
 183.82421875 432 197.186523438 429 232.186523438 429 c 0
 266.186523438 429 280.82421875 432 280.82421875 432 c 1
 282.186523438 429 l 1
 261.071289062 372 251.994140625 334 236.051757812 259 c 2
EndSplineSet
Colour: ff00ff
EndChar

StartChar: afii10094
Encoding: 1100 1100 100
Width: 453
VWidth: 999
Flags: HW
HStem: -2 36<165.238 311.141> 219 37<181 308.783> 412 20G<91 141 141 191>
VStem: 101 80<40.3429 219 256 426.342> 336 86<60.92 197.087>
LayerCount: 2
Fore
SplineSet
362.782226562 126 m 0
 374.047851562 179 365.549804688 219 294.549804688 219 c 2
 227.549804688 219 l 1
 197.791992188 79 l 2
 190.352539062 44 205.2265625 34 251.2265625 34 c 0
 301.2265625 34 345.352539062 44 362.782226562 126 c 0
236.051757812 259 m 2
 235.4140625 256 l 1
 312.4140625 256 l 2
 408.4140625 256 470.887695312 230 450.907226562 136 c 0
 433.052734375 52 359.575195312 -2 248.575195312 -2 c 0
 206.474609375 -2 183.099609375 0 141 0 c 0
 106 0 91.3623046875 -3 91.3623046875 -3 c 1
 91 0 l 1
 111.478515625 54 123.318359375 105 139.047851562 179 c 2
 154.138671875 250 l 2
 169.23046875 321 179.708984375 375 182.186523438 429 c 1
 183.82421875 432 l 1
 183.82421875 432 197.186523438 429 232.186523438 429 c 0
 266.186523438 429 280.82421875 432 280.82421875 432 c 1
 282.186523438 429 l 1
 261.071289062 372 251.994140625 334 236.051757812 259 c 2
EndSplineSet
EndChar

StartChar: afii10095
Encoding: 1101 1101 101
Width: 434
VWidth: 999
Flags: HW
HStem: -10 40<121.873 240.565> 201 44<134.609 315> 399 40<123.448 236.203>
VStem: 302 13<201 247.603>
LayerCount: 2
Fore
SplineSet
352.576171875 245 m 1
 363.23828125 337.5 328.209960938 399 268.810546875 399 c 0
 224.709960938 399 177.645507812 370 147.081054688 325 c 1
 134.29296875 326 l 1
 128.72265625 408 l 1
 131.360351562 411 l 1
 165.76171875 427 226.3125 439 276.3125 439 c 0
 405.3125 439 465.245117188 354 436.336914062 218 c 0
 406.770507812 78.900390625 287.874023438 -10 186.874023438 -10 c 0
 136.874023438 -10 75.4248046875 2 47.826171875 18 c 1
 46.4638671875 21 l 1
 86.8935546875 103 l 1
 100.10546875 104 l 1
 111.541015625 59 142.276367188 30 186.376953125 30 c 0
 256.876953125 30 317.94921875 91.5 344.5234375 201 c 1
 177.723632812 201 l 2
 174.723632812 201 173.936523438 202 174.57421875 205 c 2
 189.2265625 241 l 2
 190.733398438 244.799804688 192.076171875 245 194.076171875 245 c 2
 352.576171875 245 l 1
EndSplineSet
EndChar

StartChar: afii10096
Encoding: 1102 1102 102
Width: 686
VWidth: 999
Flags: HW
HStem: -10 40<408.663 514.586> -3 21<83 91 175 183> 198 39<171 268> 399 40<403.215 515.249> 412 20<83 91 175 183>
VStem: 93 80<2.66467 426.335> 268 85<105.003 198 237 323.327> 564 85<101.559 329.901>
LayerCount: 2
Fore
SplineSet
538.810546875 399 m 0
 464.810546875 399 419.530273438 313 401.038085938 226 c 0
 384.670898438 149 377.376953125 30 471.376953125 30 c 0
 512.376953125 30 577.390625 63 605.448242188 195 c 0
 636.481445312 341 616.810546875 399 538.810546875 399 c 0
146.138671875 250 m 2
 161.23046875 321 171.708984375 375 174.186523438 429 c 1
 176.82421875 432 l 1
 188.399414062 430 212.186523438 429 224.186523438 429 c 0
 236.186523438 429 260.399414062 430 272.82421875 432 c 1
 274.186523438 429 l 1
 253.071289062 372 243.081054688 325 226.138671875 250 c 1
 223.375976562 237 l 1
 319.375976562 237 l 1
 354.669921875 356 437.3125 439 552.3125 439 c 0
 696.3125 439 717.23046875 321 695.125 217 c 0
 673.869140625 117 601.874023438 -10 462.874023438 -10 c 0
 334.874023438 -10 290.618164062 97 310.0859375 198 c 1
 215.0859375 198 l 1
 211.047851562 179 l 2
 195.10546875 104 186.116210938 57 183 0 c 1
 180.362304688 -3 l 1
 168.787109375 -1 145 0 133 0 c 0
 121 0 96.787109375 -1 84.3623046875 -3 c 1
 83 0 l 1
 103.478515625 54 115.318359375 105 131.047851562 179 c 2
 146.138671875 250 l 2
EndSplineSet
EndChar

StartChar: afii10097
Encoding: 1103 1103 103
Width: 444
VWidth: 999
Flags: HW
HStem: -3 21G<12 18 119 141 273 323 323 373> 194 36<151.111 203 243 283> 398 34<147.125 299.24>
VStem: 38 85<253.79 379.633> 283 80<2.65817 178 230 391.204>
LayerCount: 2
Fore
SplineSet
331.887695312 230 m 1
 359.9453125 362 l 2
 366.747070312 394 337.59765625 398 298.59765625 398 c 0
 224.59765625 398 201.220703125 368 191.23046875 321 c 0
 180.602539062 271 194.887695312 230 251.887695312 230 c 2
 331.887695312 230 l 1
204.95703125 194.099609375 m 1
 200.157226562 194.099609375 195.236328125 194 190.236328125 194 c 0
 125.236328125 194 89.8642578125 244 103.892578125 310 c 0
 116.0078125 367 150.82421875 432 292.82421875 432 c 0
 329.82421875 432 366.586914062 429 414.186523438 429 c 0
 449.186523438 429 462.82421875 432 462.82421875 432 c 1
 464.186523438 429 l 1
 443.708984375 375 431.868164062 324 416.3515625 251 c 2
 400.834960938 178 l 2
 385.956054688 108 375.478515625 54 373 0 c 1
 371.362304688 -3 l 1
 371.362304688 -3 358 0 323 0 c 0
 289 0 274.362304688 -3 274.362304688 -3 c 1
 273 0 l 1
 294.116210938 57 303.193359375 95 318.921875 169 c 2
 324.36328125 194.599609375 l 1
 263.890625 187.200195312 245.506835938 161.400390625 211.018554688 113 c 0
 185.579101562 78 166.415039062 49 125.362304688 -3 c 1
 111.787109375 -1 79 0 63 0 c 0
 47 0 21.787109375 -1 13.3623046875 -3 c 1
 12 0 l 1
 77.541015625 59 96.98046875 94 164.583984375 158 c 0
 179.80859375 172.700195312 192.637695312 184.599609375 204.95703125 194.099609375 c 1
EndSplineSet
EndChar

StartChar: uni04AE
Encoding: 1198 1198 104
Width: 582
VWidth: 999
Flags: HW
HStem: -3 21<242.5 246 334 338> 628 20<24.5 36 121.5 157 455 486 503.5 557.5>
VStem: 247 86<-0.370972 307.229>
LayerCount: 2
Fore
SplineSet
393.579101562 285 m 1
 373.53515625 186 345.565429688 45 339.362304688 -3 c 1
 327.787109375 -1 302 0 290 0 c 0
 278 0 251.787109375 -1 239.362304688 -3 c 1
 256.052734375 52 284.622070312 177 305.453125 275 c 1
 281.26953125 340 180.983398438 588 153.736328125 648 c 1
 170.311523438 646 193.098632812 645 210.098632812 645 c 0
 227.098632812 645 250.311523438 646 267.736328125 648 c 1
 299.41796875 543 337.4375 449 377.26953125 340 c 1
 454.612304688 431 545.41796875 543 617.736328125 648 c 1
 629.311523438 646 646.098632812 645 659.098632812 645 c 0
 671.098632812 645 688.311523438 646 701.736328125 648 c 1
 541.4140625 463 451.583007812 365 393.579101562 285 c 1
EndSplineSet
Colour: ff00ff
EndChar

StartChar: uni04C0
Encoding: 1216 1216 105
Width: 294
VWidth: 999
Flags: HW
HStem: -3 21<94 102 192 200> 628 20<94 102 192 200>
VStem: 104 86<2.67992 642.32>
LayerCount: 2
Fore
SplineSet
198.587890625 445 m 2
 214.529296875 520 226.983398438 588 231.098632812 645 c 1
 233.736328125 648 l 1
 245.311523438 646 272.098632812 645 284.098632812 645 c 0
 296.098632812 645 323.311523438 646 335.736328125 648 c 1
 337.098632812 645 l 1
 317.833007812 592 300.529296875 520 284.587890625 445 c 2
 232.51171875 200 l 2
 216.569335938 125 204.116210938 57 200 0 c 1
 197.362304688 -3 l 1
 185.787109375 -1 159 0 147 0 c 0
 135 0 107.787109375 -1 95.3623046875 -3 c 1
 94 0 l 1
 113.478515625 54 130.569335938 125 146.51171875 200 c 2
 198.587890625 445 l 2
EndSplineSet
Colour: ff00ff
EndChar

StartChar: uni04D0
Encoding: 1232 1232 106
Width: 629
VWidth: 999
Flags: HW
HStem: -3 21<22 66.5 90 104.177 499.931 511.5 588 604.5> 230 44<198.642 407.322> 638 20<263 385> 698 31<283.585 374.415>
VStem: 204 69<735.873 804.004> 385 69<737.589 804.004>
DStem2: 16 -3 178.974 228.261 0.407548 0.913184<57.2509 287.455 329.137 596.593> 339 658 306.032 521.764 0.382928 -0.923778<113.228 379.463>
LayerCount: 2
Fore
SplineSet
465.859375 275.5 m 1
 453.774414062 345.200195312 437.946289062 427.400390625 416.912109375 521.799804688 c 1
 414.912109375 521.799804688 l 1
 257.244140625 275.900390625 l 1
 288.859375 275.5 332.340820312 274 361.240234375 274 c 0
 390.940429688 274 432.7890625 274.700195312 465.859375 275.5 c 1
227.526367188 228.299804688 m 1
 173.227539062 140.799804688 124.791992188 58.2998046875 95.3623046875 -3 c 1
 84 0 62 0 51 0 c 0
 40 0 28 0 15.3623046875 -3 c 1
 163.336914062 218 307.674804688 436 450.862304688 658 c 1
 478.862304688 658 l 1
 524.3125 439 583.830078125 98 612.362304688 -3 c 1
 596 0 570 0 553 0 c 0
 536 0 520 0 502.362304688 -3 c 1
 500.981445312 19.2001953125 494.9609375 97.2001953125 473.827148438 228.299804688 c 1
 436.318359375 229.200195312 394.887695312 230 356.887695312 230 c 0
 322.387695312 230 265.717773438 229.200195312 227.526367188 228.299804688 c 1
483.954101562 729 m 0
 516.954101562 729 543.567382812 746 547.180664062 763 c 0
 548.243164062 768 548.518554688 774 548.944335938 776 c 0
 552.131835938 791 565.3203125 806 588.3203125 806 c 0
 615.3203125 806 622.344726562 792 618.306640625 773 c 0
 607.252929688 721 543.364257812 698 477.364257812 698 c 0
 411.364257812 698 357.252929688 721 368.306640625 773 c 0
 372.344726562 792 385.3203125 806 412.3203125 806 c 0
 435.3203125 806 442.131835938 791 438.944335938 776 c 0
 438.518554688 774 436.243164062 768 435.180664062 763 c 0
 431.567382812 746 450.954101562 729 483.954101562 729 c 0
EndSplineSet
LCarets2: 1 0 
Colour: ff00ff
EndChar

StartChar: uni04D1
Encoding: 1233 1233 107
Width: 481
VWidth: 999
Flags: HW
HStem: -10 51<143.58 256.585 377.751 457.24> 394 45<157.262 280.562> 503 31<170.971 245.548>
VStem: 45 81<59.6871 162.517> 87 73<540.553 619.612> 256 73<541.079 620.243> 311 79<78.8114 225 264.049 362.994>
DStem2: 211 243 225 202 0.975441 0.220261<-76.3759 92.604>
LayerCount: 2
Fore
SplineSet
454.408203125 590 m 0
 442.717773438 535 377.916015625 503 313.916015625 503 c 0
 248.916015625 503 200.930664062 536 212.408203125 590 c 0
 216.234375 608 235.422851562 623 258.422851562 623 c 0
 280.422851562 623 289.447265625 609 286.045898438 593 c 0
 285.408203125 590 284.983398438 588 283.345703125 585 c 0
 281.708007812 582 281.0703125 579 280.645507812 577 c 0
 275.96875 555 291.504882812 534 321.504882812 534 c 0
 350.504882812 534 375.755859375 554 380.432617188 576 c 0
 381.0703125 579 381.708007812 582 381.345703125 585 c 0
 380.770507812 587 381.196289062 589 381.833007812 592 c 0
 385.447265625 609 405.422851562 623 423.422851562 623 c 0
 447.422851562 623 458.447265625 609 454.408203125 590 c 0
357.825195312 225 m 1
 267.936523438 202 l 2
 185.47265625 181 157.24609375 147 147.680664062 102 c 0
 141.091796875 71 163.71484375 41 208.71484375 41 c 0
 238.71484375 41 276.541015625 59 309.004882812 80 c 0
 318.280273438 86 325.767578125 93 328.53125 106 c 2
 357.825195312 225 l 1
320.302734375 48 m 1
 316.203125 48 l 1
 253.637695312 3 222.874023438 -10 167.874023438 -10 c 0
 93.8740234375 -10 50.1015625 24 65.830078125 98 c 0
 80.2841796875 166 155.762695312 220 262.651367188 243 c 2
 360.115234375 264 l 2
 363.327148438 265 368.177734375 269 369.666015625 276 c 0
 393.684570312 389 334.747070312 394 298.747070312 394 c 0
 250.747070312 394 208.245117188 354 170.6796875 309 c 1
 157.892578125 310 l 1
 155.133789062 377 l 1
 158.984375 381 l 1
 188.447265625 402 242.3125 439 318.3125 439 c 0
 394.3125 439 477.573242188 412 448.877929688 277 c 0
 446.540039062 266 420.146484375 155 413.982421875 126 c 0
 404.5234375 81.5 405.879882812 57.2998046875 414.102539062 48 c 0
 419.012695312 42.400390625 431.908203125 40.5 441.80859375 40.5 c 0
 449.408203125 40.5 458.206054688 41.900390625 469.9140625 45.7001953125 c 1
 472.063476562 21 l 1
 443.149414062 -4 411.07421875 -10 385.874023438 -10 c 0
 349.274414062 -10 323.391601562 8.900390625 320.302734375 48 c 1
EndSplineSet
LCarets2: 1 0 
Colour: ff00ff
EndChar

StartChar: uni04D2
Encoding: 1234 1234 108
Width: 629
VWidth: 999
Flags: HW
HStem: -3 21<22 66.5 90 104.177 499.931 511.5 588 604.5> 230 44<198.642 407.322> 638 20<263 385> 710 95<207.016 284.984 376.016 453.984>
VStem: 199 94<717.394 797.312> 368 94<717.394 797.312>
DStem2: 16 -3 178.974 228.261 0.407548 0.913184<57.2509 287.455 329.137 596.593> 339 658 306.032 521.764 0.382928 -0.923778<113.228 379.463>
LayerCount: 2
Fore
SplineSet
359.905273438 757 m 0
 365.431640625 783 391.108398438 805 417.108398438 805 c 0
 443.108398438 805 459.431640625 783 453.905273438 757 c 0
 448.37890625 731 422.915039062 710 396.915039062 710 c 0
 370.915039062 710 354.37890625 731 359.905273438 757 c 0
528.905273438 757 m 0
 534.431640625 783 560.108398438 805 586.108398438 805 c 0
 612.108398438 805 628.431640625 783 622.905273438 757 c 0
 617.37890625 731 591.915039062 710 565.915039062 710 c 0
 539.915039062 710 523.37890625 731 528.905273438 757 c 0
465.859375 275.5 m 1
 453.774414062 345.200195312 437.946289062 427.400390625 416.912109375 521.799804688 c 1
 414.912109375 521.799804688 l 1
 257.244140625 275.900390625 l 1
 288.859375 275.5 332.340820312 274 361.240234375 274 c 0
 390.940429688 274 432.7890625 274.700195312 465.859375 275.5 c 1
227.526367188 228.299804688 m 1
 173.227539062 140.799804688 124.791992188 58.2998046875 95.3623046875 -3 c 1
 84 0 62 0 51 0 c 0
 40 0 28 0 15.3623046875 -3 c 1
 163.336914062 218 307.674804688 436 450.862304688 658 c 1
 478.862304688 658 l 1
 524.3125 439 583.830078125 98 612.362304688 -3 c 1
 596 0 570 0 553 0 c 0
 536 0 520 0 502.362304688 -3 c 1
 500.981445312 19.2001953125 494.9609375 97.2001953125 473.827148438 228.299804688 c 1
 436.318359375 229.200195312 394.887695312 230 356.887695312 230 c 0
 322.387695312 230 265.717773438 229.200195312 227.526367188 228.299804688 c 1
EndSplineSet
LCarets2: 1 0 
Colour: ff00ff
EndChar

StartChar: uni04D3
Encoding: 1235 1235 109
Width: 481
VWidth: 999
Flags: HW
HStem: -10 51<143.58 256.585 377.751 457.24> 394 45<157.262 280.562> 527 95<91.0156 168.984 260.016 337.984>
VStem: 45 81<59.6871 162.517> 83 94<534.394 614.312> 252 94<534.394 614.312> 311 79<78.8114 225 264.049 362.994>
DStem2: 211 243 225 202 0.975441 0.220261<-76.3759 92.604>
LayerCount: 2
Fore
SplineSet
205.0078125 574 m 0
 210.534179688 600 236.209960938 622 262.209960938 622 c 0
 288.209960938 622 304.534179688 600 299.0078125 574 c 0
 293.481445312 548 268.017578125 527 242.017578125 527 c 0
 216.017578125 527 199.481445312 548 205.0078125 574 c 0
374.0078125 574 m 0
 379.534179688 600 405.209960938 622 431.209960938 622 c 0
 457.209960938 622 473.534179688 600 468.0078125 574 c 0
 462.481445312 548 437.017578125 527 411.017578125 527 c 0
 385.017578125 527 368.481445312 548 374.0078125 574 c 0
357.825195312 225 m 1
 267.936523438 202 l 2
 185.47265625 181 157.24609375 147 147.680664062 102 c 0
 141.091796875 71 163.71484375 41 208.71484375 41 c 0
 238.71484375 41 276.541015625 59 309.004882812 80 c 0
 318.280273438 86 325.767578125 93 328.53125 106 c 2
 357.825195312 225 l 1
320.302734375 48 m 1
 316.203125 48 l 1
 253.637695312 3 222.874023438 -10 167.874023438 -10 c 0
 93.8740234375 -10 50.1015625 24 65.830078125 98 c 0
 80.2841796875 166 155.762695312 220 262.651367188 243 c 2
 360.115234375 264 l 2
 363.327148438 265 368.177734375 269 369.666015625 276 c 0
 393.684570312 389 334.747070312 394 298.747070312 394 c 0
 250.747070312 394 208.245117188 354 170.6796875 309 c 1
 157.892578125 310 l 1
 155.133789062 377 l 1
 158.984375 381 l 1
 188.447265625 402 242.3125 439 318.3125 439 c 0
 394.3125 439 477.573242188 412 448.877929688 277 c 0
 446.540039062 266 420.146484375 155 413.982421875 126 c 0
 404.5234375 81.5 405.879882812 57.2998046875 414.102539062 48 c 0
 419.012695312 42.400390625 431.908203125 40.5 441.80859375 40.5 c 0
 449.408203125 40.5 458.206054688 41.900390625 469.9140625 45.7001953125 c 1
 472.063476562 21 l 1
 443.149414062 -4 411.07421875 -10 385.874023438 -10 c 0
 349.274414062 -10 323.391601562 8.900390625 320.302734375 48 c 1
EndSplineSet
LCarets2: 1 0 
Colour: ff00ff
EndChar

StartChar: uni04D4
Encoding: 1236 1236 110
Width: 802
VWidth: 999
Flags: HW
HStem: 0 55.6<502.929 751.245> 280 46<218.935 453.333> 291 42<462 667.146> 594.3 50.7<425.796 691.245>
LayerCount: 2
Fore
SplineSet
281.197265625 278.5 m 1
 207.1171875 171.799804688 140.1875 69.099609375 97.3623046875 -3 c 1
 86 0 64 0 53 0 c 0
 42 0 30 0 17.3623046875 -3 c 1
 166.51171875 200 308.1484375 410 503.248046875 645.700195312 c 1
 503.362304688 645.299804688 l 1
 505.736328125 648 l 1
 505.736328125 648 522.098632812 645 556.098632812 645 c 2
 769.098632812 645 l 2
 790.098632812 645 813.311523438 646 829.736328125 648 c 1
 831.098632812 645 l 1
 827.123046875 631 824.209960938 622 822.509765625 614 c 0
 820.596679688 605 819.68359375 596 818.983398438 588 c 1
 816.1328125 584 l 1
 816.1328125 584 741.022460938 594.299804688 635.322265625 594.299804688 c 0
 559.822265625 594.299804688 543.609375 585.299804688 540.349609375 545.5 c 1
 539.5859375 475.099609375 540.1328125 402.400390625 541.481445312 333 c 1
 653.624023438 333.200195312 709.365234375 338.099609375 767.907226562 343 c 1
 770.26953125 340 l 1
 766.356445312 331 763.23046875 321 761.317382812 312 c 0
 759.404296875 303 758.279296875 293 758.366210938 284 c 1
 754.728515625 281 l 1
 694.74609375 287.200195312 597.10546875 290.299804688 542.333007812 290.900390625 c 1
 544.490234375 199.900390625 547.84765625 116.900390625 551.360351562 55.7998046875 c 1
 651.883789062 59.2001953125 766.028320312 66 766.028320312 66 c 2
 767.178710938 62 l 1
 764.478515625 54 760.290039062 39 758.1640625 29 c 0
 756.0390625 19 755.975585938 14 754 0 c 1
 751.362304688 -3 l 1
 735.787109375 -1 713 0 692 0 c 2
 555 0 l 1
 553.5 0 l 1
 500 0 l 2
 483 0 467 0 449.362304688 -3 c 1
 456.950195312 32.7001953125 461.533203125 117.299804688 465.288085938 279.400390625 c 1
 443.172851562 279.799804688 420.815429688 280 399.515625 280 c 0
 368.215820312 280 318.666992188 279.299804688 281.197265625 278.5 c 1
466.216796875 324.700195312 m 1
 467.470703125 384.700195312 468.6796875 453.900390625 469.8984375 533.5 c 1
 467.8984375 533.5 l 1
 417.995117188 469.5 365.012695312 397.599609375 314.229492188 325.700195312 c 1
 343.702148438 325.099609375 379.068359375 324 403.868164062 324 c 0
 421.768554688 324 444.032226562 324.299804688 466.216796875 324.700195312 c 1
EndSplineSet
Colour: ff00ff
EndChar

StartChar: uni04D5
Encoding: 1237 1237 111
Width: 687
VWidth: 999
Flags: HW
HStem: -10 50<135.407 255.127 438.656 562.972> 218 40<209.155 296 375 554.771> 394 45<146.355 264.956 426.84 534.254>
VStem: 39 82<54.0916 159.063> 296 78<112.964 215> 562 84<266.765 365.2>
LayerCount: 2
Fore
SplineSet
341.69921875 215 m 1
 206.149414062 203 154.37109375 157 143.53125 106 c 0
 133.965820312 61 153.501953125 40 200.501953125 40 c 0
 236.501953125 40 283.965820312 61 306.255859375 100 c 0
 316.459960938 117.900390625 331.072265625 165 341.69921875 215 c 1
429.83984375 258 m 1
 571.540039062 266 614.076171875 245 627.041992188 306 c 0
 633.84375 338 620.747070312 394 572.747070312 394 c 0
 509.747070312 394 455.907226562 343 429.83984375 258 c 1
285.747070312 394 m 0
 241.247070312 394 189.39453125 350 153.830078125 305 c 1
 141.041992188 306 l 1
 139.283203125 373 l 1
 143.133789062 377 l 1
 171.991210938 397.5 231.8125 439 304.3125 439 c 0
 328.3125 439 403.674804688 436 426.43359375 369 c 1
 468.998046875 414 526.3125 439 583.3125 439 c 0
 697.3125 439 718.907226562 343 711.6796875 309 c 0
 705.112304688 278.099609375 693.989257812 254 670.375976562 237 c 1
 630.48828125 217.299804688 557.41015625 225.400390625 420.336914062 218 c 1
 397.806640625 112 432.352539062 44 507.352539062 44 c 0
 561.352539062 44 607.3671875 77 644.806640625 112 c 1
 658.854492188 84 l 1
 618.376953125 30 547.874023438 -10 481.874023438 -10 c 0
 390.874023438 -10 367.2265625 34 352.541015625 59 c 1
 297.188476562 15 242.874023438 -10 187.874023438 -10 c 0
 82.8740234375 -10 46.0146484375 33 60.4677734375 101 c 0
 78.1103515625 184 177.651367188 243 350.202148438 255 c 1
 368.897460938 348.599609375 358.546875 394 285.747070312 394 c 0
EndSplineSet
Colour: ff00ff
EndChar

StartChar: uni04D6
Encoding: 1238 1238 112
Width: 538
VWidth: 999
Flags: HW
HStem: 0 56<194.662 417.584> 317 50<190 404.78> 589 56<194.662 419.27> 698 31<228.585 319.415>
VStem: 104 86<58.188 317 367 587.818> 149 69<735.873 804.004> 330 69<737.589 804.004>
LayerCount: 2
Fore
SplineSet
232.51171875 200 m 2
 228.897460938 183 208.004882812 80 209.903320312 56 c 1
 343.903320312 56 494.454101562 68 494.454101562 68 c 1
 495.603515625 64 l 1
 492.903320312 56 488.71484375 41 486.588867188 31 c 0
 484.463867188 21 483.975585938 14 482 0 c 1
 479.362304688 -3 l 1
 463.787109375 -1 441 0 420 0 c 2
 147 0 l 2
 112 0 94.3623046875 -3 94.3623046875 -3 c 1
 94 0 l 1
 113.478515625 54 130.569335938 125 146.51171875 200 c 2
 198.587890625 445 l 2
 214.529296875 520 226.983398438 588 231.098632812 645 c 1
 233.736328125 648 l 1
 233.736328125 648 250.098632812 645 284.098632812 645 c 2
 547.098632812 645 l 2
 568.098632812 645 591.311523438 646 607.736328125 648 c 1
 609.098632812 645 l 1
 605.123046875 631 600.72265625 615 599.021484375 607 c 0
 597.108398438 598 596.196289062 589 595.495117188 581 c 1
 592.645507812 577 l 1
 592.645507812 577 457.196289062 589 323.196289062 589 c 1
 311.094726562 565 288.201171875 462 284.587890625 445 c 2
 268.0078125 367 l 1
 386.0078125 367 433.071289062 372 493.133789062 377 c 1
 495.49609375 374 l 1
 491.583007812 365 487.607421875 351 485.694335938 342 c 0
 483.78125 333 481.805664062 319 481.892578125 310 c 1
 478.254882812 307 l 1
 410.743164062 314 305.380859375 317 257.380859375 317 c 1
 232.51171875 200 l 2
428.954101562 729 m 0
 461.954101562 729 488.567382812 746 492.180664062 763 c 0
 493.243164062 768 493.518554688 774 493.944335938 776 c 0
 497.131835938 791 510.3203125 806 533.3203125 806 c 0
 560.3203125 806 567.344726562 792 563.306640625 773 c 0
 552.252929688 721 488.364257812 698 422.364257812 698 c 0
 356.364257812 698 302.252929688 721 313.306640625 773 c 0
 317.344726562 792 330.3203125 806 357.3203125 806 c 0
 380.3203125 806 387.131835938 791 383.944335938 776 c 0
 383.518554688 774 381.243164062 768 380.180664062 763 c 0
 376.567382812 746 395.954101562 729 428.954101562 729 c 0
EndSplineSet
LCarets2: 1 0 
Colour: ff00ff
EndChar

StartChar: uni04D7
Encoding: 1239 1239 113
Width: 453
VWidth: 999
Flags: HW
HStem: -10 59<180.536 330.136> 233 40<125 322.997> 399 40<187.844 285.398> 503 31<188.971 263.548>
VStem: 34 88<110.038 233 273 312.177> 105 73<540.553 619.612> 274 73<541.079 620.243> 323 89<244.5 350.727>
LayerCount: 2
Fore
SplineSet
472.408203125 590 m 0
 460.717773438 535 395.916015625 503 331.916015625 503 c 0
 266.916015625 503 218.930664062 536 230.408203125 590 c 0
 234.234375 608 253.422851562 623 276.422851562 623 c 0
 298.422851562 623 307.447265625 609 304.045898438 593 c 0
 303.408203125 590 302.983398438 588 301.345703125 585 c 0
 299.708007812 582 299.0703125 579 298.645507812 577 c 0
 293.96875 555 309.504882812 534 339.504882812 534 c 0
 368.504882812 534 393.755859375 554 398.432617188 576 c 0
 399.0703125 579 399.708007812 582 399.345703125 585 c 0
 398.770507812 587 399.196289062 589 399.833007812 592 c 0
 403.447265625 609 423.422851562 623 441.422851562 623 c 0
 465.422851562 623 476.447265625 609 472.408203125 590 c 0
183.028320312 273 m 1
 367.028320312 273 l 2
 377.028320312 273 382.090820312 278 384.00390625 287 c 0
 399.9453125 362 359.810546875 399 323.810546875 399 c 0
 300.810546875 399 222.133789062 377 183.028320312 273 c 1
414.10546875 104 m 1
 428.791992188 79 l 1
 379.739257812 27 307.874023438 -10 235.874023438 -10 c 0
 168.474609375 -10 116.524414062 14.7001953125 90.9033203125 56 c 0
 65.9482421875 96.2001953125 66.3720703125 152.299804688 78.4248046875 209 c 0
 109.669921875 356 237.3125 439 332.3125 439 c 0
 464.3125 439 482.994140625 334 465.138671875 250 c 0
 462.80078125 239 454.525390625 233 443.525390625 233 c 2
 171.525390625 233 l 1
 159.17578125 174.900390625 156.904296875 134.099609375 168.53125 106 c 0
 186.678710938 62 231.21484375 49 265.415039062 49 c 0
 320.415039062 49 371.028320312 66 414.10546875 104 c 1
EndSplineSet
LCarets2: 1 0 
Colour: ff00ff
EndChar

StartChar: uni04D8
Encoding: 1240 1240 114
Width: 644
VWidth: 999
Flags: HW
HStem: -12 34<246.269 393.278> 216 44<122 511> 624 34<207.892 368.818>
VStem: 521 90<221.919 443.038>
LayerCount: 2
Fore
SplineSet
208.166992188 523 m 1
 190.268554688 547 l 1
 284.998046875 621 339.862304688 658 449.862304688 658 c 0
 664.862304688 658 714.08984375 485 680.29296875 326 c 0
 638.844726562 131 506.44921875 -12 313.44921875 -12 c 0
 121.44921875 -12 78.08203125 118 97.2646484375 260 c 1
 575.264648438 260 l 1
 578.602539062 271 581.153320312 283 584.12890625 297 c 0
 623.665039062 483 561.635742188 624 426.635742188 624 c 0
 333.635742188 624 272.219726562 575 208.166992188 523 c 1
167.912109375 216 m 1
 171.280273438 86 229.67578125 22 327.67578125 22 c 0
 433.67578125 22 517.65625 116 556.912109375 216 c 1
 167.912109375 216 l 1
EndSplineSet
Colour: ff00ff
EndChar

StartChar: afii10846
Encoding: 1241 1241 115
Width: 453
VWidth: 999
Flags: HW
HStem: -11 40<142.602 240.156> 155 40<105.003 303> 379 59<97.864 247.464>
VStem: 16 89<77.273 183.5> 306 88<115.823 155 195 317.962>
LayerCount: 2
Fore
SplineSet
335.946289062 155 m 1
 151.946289062 155 l 2
 141.946289062 155 136.883789062 150 134.970703125 141 c 0
 119.028320312 66 159.1640625 29 195.1640625 29 c 0
 218.1640625 29 296.840820312 51 335.946289062 155 c 1
104.868164062 324 m 1
 90.1826171875 349 l 1
 139.235351562 401 211.099609375 438 283.099609375 438 c 0
 350.5 438 402.44921875 413.299804688 428.071289062 372 c 0
 453.026367188 331.799804688 452.6015625 275.700195312 440.549804688 219 c 0
 409.303710938 72 281.662109375 -11 186.662109375 -11 c 0
 54.662109375 -11 35.98046875 94 53.8349609375 178 c 0
 56.1728515625 189 64.4482421875 195 75.4482421875 195 c 2
 347.448242188 195 l 1
 359.797851562 253.099609375 362.0703125 293.900390625 350.443359375 322 c 0
 332.295898438 366 287.758789062 379 253.55859375 379 c 0
 198.55859375 379 147.9453125 362 104.868164062 324 c 1
EndSplineSet
Colour: ff00ff
EndChar

StartChar: uni04DA
Encoding: 1242 1242 116
Width: 644
VWidth: 999
Flags: HW
HStem: -12 34<246.269 393.278> 216 44<122 511> 624 34<207.892 368.818> 704 96<191.332 270.668 380.332 459.668>
VStem: 183 96<712.332 791.668> 372 96<712.332 791.668> 521 90<221.919 443.038>
LayerCount: 2
Fore
SplineSet
531.842773438 752 m 0
 537.369140625 778 564.044921875 800 590.044921875 800 c 0
 616.044921875 800 633.369140625 778 627.842773438 752 c 0
 622.31640625 726 595.639648438 704 569.639648438 704 c 0
 543.639648438 704 526.31640625 726 531.842773438 752 c 0
342.842773438 752 m 0
 348.369140625 778 375.044921875 800 401.044921875 800 c 0
 427.044921875 800 444.369140625 778 438.842773438 752 c 0
 433.31640625 726 406.639648438 704 380.639648438 704 c 0
 354.639648438 704 337.31640625 726 342.842773438 752 c 0
208.166992188 523 m 1
 190.268554688 547 l 1
 284.998046875 621 339.862304688 658 449.862304688 658 c 0
 664.862304688 658 714.08984375 485 680.29296875 326 c 0
 638.844726562 131 506.44921875 -12 313.44921875 -12 c 0
 121.44921875 -12 78.08203125 118 97.2646484375 260 c 1
 575.264648438 260 l 1
 578.602539062 271 581.153320312 283 584.12890625 297 c 0
 623.665039062 483 561.635742188 624 426.635742188 624 c 0
 333.635742188 624 272.219726562 575 208.166992188 523 c 1
167.912109375 216 m 1
 171.280273438 86 229.67578125 22 327.67578125 22 c 0
 433.67578125 22 517.65625 116 556.912109375 216 c 1
 167.912109375 216 l 1
EndSplineSet
LCarets2: 1 0 
Colour: ff00ff
EndChar

StartChar: uni04DB
Encoding: 1243 1243 117
Width: 453
VWidth: 999
Flags: HW
HStem: -11 40<142.602 240.156> 155 40<105.003 303> 379 59<97.864 247.464> 525 95<91.0156 168.984 260.016 337.984>
VStem: 16 89<77.273 183.5> 83 94<532.394 612.312> 252 94<532.394 612.312> 306 88<115.823 155 195 317.962>
LayerCount: 2
Fore
SplineSet
204.58203125 572 m 0
 210.108398438 598 235.78515625 620 261.78515625 620 c 0
 287.78515625 620 304.108398438 598 298.58203125 572 c 0
 293.055664062 546 267.591796875 525 241.591796875 525 c 0
 215.591796875 525 199.055664062 546 204.58203125 572 c 0
373.58203125 572 m 0
 379.108398438 598 404.78515625 620 430.78515625 620 c 0
 456.78515625 620 473.108398438 598 467.58203125 572 c 0
 462.055664062 546 436.591796875 525 410.591796875 525 c 0
 384.591796875 525 368.055664062 546 373.58203125 572 c 0
335.946289062 155 m 1
 151.946289062 155 l 2
 141.946289062 155 136.883789062 150 134.970703125 141 c 0
 119.028320312 66 159.1640625 29 195.1640625 29 c 0
 218.1640625 29 296.840820312 51 335.946289062 155 c 1
104.868164062 324 m 1
 90.1826171875 349 l 1
 139.235351562 401 211.099609375 438 283.099609375 438 c 0
 350.5 438 402.44921875 413.299804688 428.071289062 372 c 0
 453.026367188 331.799804688 452.6015625 275.700195312 440.549804688 219 c 0
 409.303710938 72 281.662109375 -11 186.662109375 -11 c 0
 54.662109375 -11 35.98046875 94 53.8349609375 178 c 0
 56.1728515625 189 64.4482421875 195 75.4482421875 195 c 2
 347.448242188 195 l 1
 359.797851562 253.099609375 362.0703125 293.900390625 350.443359375 322 c 0
 332.295898438 366 287.758789062 379 253.55859375 379 c 0
 198.55859375 379 147.9453125 362 104.868164062 324 c 1
EndSplineSet
LCarets2: 1 0 
Colour: ff00ff
EndChar

StartChar: uni04E0
Encoding: 1248 1248 118
Width: 608
VWidth: 999
Flags: HW
HStem: -211 37<215 357> 605 39<141 167 167 446>
VStem: 475 89<-42 146>
DStem2: 250 252 367 288 0.48636 0.873758<88.8042 404.592>
LayerCount: 2
Fore
SplineSet
304.098632812 645 m 2
 659.098632812 645 l 2
 680.098632812 645 685.823242188 639 684.123046875 631 c 0
 681.998046875 621 672.596679688 605 660.408203125 590 c 2
 428.215820312 288 l 1
 556.477539062 261 598.434570312 162 574.840820312 51 c 0
 545.294921875 -88 387.150390625 -211 227.150390625 -211 c 0
 147.150390625 -211 4.58984375 -176 18.619140625 -110 c 0
 23.5078125 -87 39.2470703125 -60 73.2470703125 -60 c 0
 100.247070312 -60 125.270507812 -74 133.806640625 -95 c 0
 155.391601562 -144 199.015625 -174 254.015625 -174 c 0
 341.015625 -174 463.734375 -53 483.927734375 42 c 0
 517.723632812 201 414.202148438 255 345.202148438 255 c 0
 329.202148438 255 318.202148438 255 303.564453125 252 c 1
 574.596679688 605 l 1
 325.596679688 605 l 1
 251.383789062 604 204.7421875 521 191.389648438 477 c 1
 165.814453125 479 l 1
 226.775390625 667 l 1
 248.712890625 662 280.098632812 645 304.098632812 645 c 2
EndSplineSet
Colour: ff00ff
EndChar

StartChar: uni04E1
Encoding: 1249 1249 119
Width: 389
VWidth: 999
Flags: HW
LayerCount: 2
Fore
SplineSet
64.4541015625 68 m 1
 67.8544921875 84 l 1
 330.55859375 379 l 1
 245.920898438 376 l 2
 221.772460938 375.299804688 197.259765625 374.299804688 172.283203125 373 c 2
 100.220703125 368 l 1
 98.8583984375 371 l 1
 102.432617188 381.700195312 105.322265625 392 107.447265625 402 c 2
 111.186523438 429 l 1
 113.82421875 432 l 1
 128.69921875 430 147.186523438 429 169.186523438 429 c 2
 373.186523438 429 l 2
 379.88671875 429 387.950195312 429.299804688 397.399414062 430 c 2
 455.461914062 435 l 2
 458.76171875 435 460.037109375 433 459.186523438 429 c 1
 453.360351562 423.700195312 440.384765625 409.700195312 420.259765625 387 c 2
 198.333007812 138 l 1
 208.481445312 138.700195312 219.245117188 139 230.544921875 139 c 0
 281.845703125 139 319.083007812 121.299804688 342.280273438 86 c 0
 364.501953125 52.7001953125 370.55078125 12 360.34765625 -36 c 0
 348.295898438 -92.7001953125 320.390625 -139.299804688 276.58984375 -176 c 0
 232.662109375 -213.299804688 182.38671875 -232 125.686523438 -232 c 0
 93.6865234375 -232 65.0263671875 -225.700195312 39.7255859375 -213 c 0
 22.2744140625 -204.299804688 6.9765625 -193 -6.0478515625 -179 c 1
 -9.41015625 -176 l 1
 27.744140625 -100 l 1
 40.95703125 -99 l 1
 53.6669921875 -138 l 1
 58.9677734375 -150.700195312 64.142578125 -160.700195312 69.2900390625 -168 c 0
 82.3134765625 -185.299804688 104.463867188 -194 135.763671875 -194 c 0
 207.763671875 -194 253.818359375 -146.700195312 273.947265625 -52 c 0
 284.298828125 -3.2998046875 281.778320312 33.2998046875 266.328125 58 c 0
 252.3046875 80 228.642578125 91 195.342773438 91 c 0
 148.642578125 91 105.40625 83.2998046875 65.4541015625 68 c 1
 64.4541015625 68 l 1
EndSplineSet
Colour: ff00ff
EndChar

StartChar: uni04E6
Encoding: 1254 1254 120
Width: 741
VWidth: 999
Flags: HW
HStem: -10 44<297.518 470.882> 614 44<271.342 456.336> 704 96<217.332 296.668 406.332 485.668>
VStem: 52 103<199.871 439.073> 209 96<712.332 791.668> 398 96<712.332 791.668> 586 103<198.639 454.348>
LayerCount: 2
Fore
SplineSet
557.842773438 752 m 0
 563.369140625 778 590.044921875 800 616.044921875 800 c 0
 642.044921875 800 659.369140625 778 653.842773438 752 c 0
 648.31640625 726 621.639648438 704 595.639648438 704 c 0
 569.639648438 704 552.31640625 726 557.842773438 752 c 0
368.842773438 752 m 0
 374.369140625 778 401.044921875 800 427.044921875 800 c 0
 453.044921875 800 470.369140625 778 464.842773438 752 c 0
 459.31640625 726 432.639648438 704 406.639648438 704 c 0
 380.639648438 704 363.31640625 726 368.842773438 752 c 0
485.509765625 614 m 0
 389.509765625 614 269.142578125 537 224.505859375 327 c 0
 183.6953125 135 276.2265625 34 396.2265625 34 c 0
 510.2265625 34 613.844726562 131 651.892578125 310 c 0
 696.104492188 518 626.509765625 614 485.509765625 614 c 0
758.930664062 329 m 0
 716.419921875 129 557.874023438 -10 366.874023438 -10 c 0
 194.874023438 -10 76.0185546875 113 117.892578125 310 c 0
 159.553710938 506 328.862304688 658 507.862304688 658 c 0
 687.862304688 658 801.017578125 527 758.930664062 329 c 0
EndSplineSet
LCarets2: 1 0 
Colour: ff00ff
EndChar

StartChar: uni04E7
Encoding: 1255 1255 121
Width: 500
VWidth: 999
Flags: HW
HStem: -10 40<195.326 314.337> 399 40<184.058 317.876> 527 95<132.016 209.984 301.016 378.984>
VStem: 38 88<109.697 316.694> 124 94<534.394 614.312> 293 94<534.394 614.312> 374 88<108.595 325.77>
LayerCount: 2
Fore
SplineSet
81.57421875 205 m 0
 111.756835938 347 216.3125 439 347.3125 439 c 0
 482.3125 439 536.39453125 350 507.487304688 214 c 0
 479.642578125 83 379.874023438 -10 247.874023438 -10 c 0
 114.874023438 -10 56.0673828125 85 81.57421875 205 c 0
331.810546875 399 m 0
 237.810546875 399 191.6796875 309 173.1875 222 c 0
 156.8203125 145 159.376953125 30 265.376953125 30 c 0
 332.376953125 30 395.447265625 100.900390625 415.661132812 196 c 0
 441.380859375 317 437.810546875 399 331.810546875 399 c 0
246.0078125 574 m 0
 251.534179688 600 277.209960938 622 303.209960938 622 c 0
 329.209960938 622 345.534179688 600 340.0078125 574 c 0
 334.481445312 548 309.017578125 527 283.017578125 527 c 0
 257.017578125 527 240.481445312 548 246.0078125 574 c 0
415.0078125 574 m 0
 420.534179688 600 446.209960938 622 472.209960938 622 c 0
 498.209960938 622 514.534179688 600 509.0078125 574 c 0
 503.481445312 548 478.017578125 527 452.017578125 527 c 0
 426.017578125 527 409.481445312 548 415.0078125 574 c 0
EndSplineSet
LCarets2: 1 0 
Colour: ff00ff
EndChar

StartChar: uni04E8
Encoding: 1256 1256 122
Width: 741
VWidth: 999
Flags: HW
HStem: -10 44<297.518 470.882> 266 57<387.324 534.392> 312 58<177.336 340.102> 614 44<271.342 456.336>
VStem: 52 103<199.871 439.073> 100 15<267.333 271.234> 586 103<198.639 454.348>
LayerCount: 2
Fore
SplineSet
758.930664062 329 m 0
 716.419921875 129 557.874023438 -10 366.874023438 -10 c 0
 194.874023438 -10 76.0185546875 113 117.892578125 310 c 0
 159.553710938 506 328.862304688 658 507.862304688 658 c 0
 687.862304688 658 801.017578125 527 758.930664062 329 c 0
661.395507812 366 m 1
 682.28125 535.299804688 613.209960938 614 485.509765625 614 c 0
 391.209960938 614 273.416992188 539.700195312 226.965820312 338.099609375 c 1
 269.598632812 359.900390625 320.24609375 370 351.645507812 370 c 0
 449.645507812 370 469.65625 323 532.65625 323 c 0
 567.456054688 323 623.065429688 338.099609375 661.395507812 366 c 1
655.09375 326 m 1
 601.388671875 279.400390625 543.440429688 266 502.540039062 266 c 0
 410.540039062 266 396.317382812 312 321.317382812 312 c 0
 296.817382812 312 254.874023438 308.5 218.669921875 293.900390625 c 1
 194.729492188 123.400390625 283.327148438 34 396.2265625 34 c 0
 510.2265625 34 613.844726562 131 651.892578125 310 c 0
 653.040039062 315.400390625 654.06640625 320.700195312 655.09375 326 c 1
EndSplineSet
Colour: ff00ff
EndChar

StartChar: uni04E9
Encoding: 1257 1257 123
Width: 500
VWidth: 999
Flags: HMW
HStem: -12 36<202 328> 179 49<204 349> 207 42<118 238> 409 33<183 304>
VStem: 44 79<124 320> 377 79<113 318>
AnchorPoint: "unten_punkt" 223.257 -107 basechar 0
AnchorPoint: "top_punkt" 361.906 550 basechar 0
AnchorPoint: "top_akzent" 373.099 645 basechar 0
LayerCount: 2
Fore
SplineSet
81.57421875 205 m 0
 111.756835938 347 216.3125 439 347.3125 439 c 0
 482.3125 439 536.39453125 350 507.487304688 214 c 0
 479.642578125 83 379.874023438 -10 247.874023438 -10 c 0
 114.874023438 -10 56.0673828125 85 81.57421875 205 c 0
419.478515625 214.900390625 m 1
 394.9453125 201.099609375 349.147460938 179 312.047851562 179 c 0
 269.047851562 179 240.999023438 207 205.999023438 207 c 0
 198.298828125 207 181.982421875 204.099609375 169.536132812 202 c 1
 158.009765625 126.599609375 168.176757812 30 265.376953125 30 c 0
 332.376953125 30 395.447265625 100.900390625 415.661132812 196 c 0
 417.021484375 202.400390625 418.260742188 208.700195312 419.478515625 214.900390625 c 1
424.16015625 242.099609375 m 1
 438.616210938 337.400390625 423.709960938 399 331.810546875 399 c 0
 240.91015625 399 194.712890625 314.799804688 175.094726562 230.5 c 1
 200.3203125 240.5 238.626953125 249 265.926757812 249 c 0
 310.926757812 249 328.67578125 229 366.67578125 229 c 0
 386.67578125 229 408.078125 235.599609375 424.16015625 242.099609375 c 1
EndSplineSet
Colour: ff80cc
EndChar

StartChar: uni04EA
Encoding: 1258 1258 124
Width: 741
VWidth: 999
Flags: HW
HStem: -10 44<297.518 470.882> 266 57<387.324 534.392> 312 58<177.336 340.102> 614 44<271.342 456.336> 706 96<214.332 293.668 403.332 482.668>
VStem: 52 103<199.871 439.073> 100 15<267.333 271.234> 206 96<714.332 793.668> 395 96<714.332 793.668> 586 103<198.639 454.348>
LayerCount: 2
Fore
SplineSet
555.267578125 754 m 0
 560.793945312 780 587.470703125 802 613.470703125 802 c 0
 639.470703125 802 656.793945312 780 651.267578125 754 c 0
 645.741210938 728 619.064453125 706 593.064453125 706 c 0
 567.064453125 706 549.741210938 728 555.267578125 754 c 0
366.267578125 754 m 0
 371.793945312 780 398.470703125 802 424.470703125 802 c 0
 450.470703125 802 467.793945312 780 462.267578125 754 c 0
 456.741210938 728 430.064453125 706 404.064453125 706 c 0
 378.064453125 706 360.741210938 728 366.267578125 754 c 0
758.930664062 329 m 0
 716.419921875 129 557.874023438 -10 366.874023438 -10 c 0
 194.874023438 -10 76.0185546875 113 117.892578125 310 c 0
 159.553710938 506 328.862304688 658 507.862304688 658 c 0
 687.862304688 658 801.017578125 527 758.930664062 329 c 0
661.395507812 366 m 1
 682.28125 535.299804688 613.209960938 614 485.509765625 614 c 0
 391.209960938 614 273.416992188 539.700195312 226.965820312 338.099609375 c 1
 269.598632812 359.900390625 320.24609375 370 351.645507812 370 c 0
 449.645507812 370 469.65625 323 532.65625 323 c 0
 567.456054688 323 623.065429688 338.099609375 661.395507812 366 c 1
655.09375 326 m 1
 601.388671875 279.400390625 543.440429688 266 502.540039062 266 c 0
 410.540039062 266 396.317382812 312 321.317382812 312 c 0
 296.817382812 312 254.874023438 308.5 218.669921875 293.900390625 c 1
 194.729492188 123.400390625 283.327148438 34 396.2265625 34 c 0
 510.2265625 34 613.844726562 131 651.892578125 310 c 0
 653.040039062 315.400390625 654.06640625 320.700195312 655.09375 326 c 1
EndSplineSet
LCarets2: 1 0 
Colour: ff00ff
EndChar

StartChar: uni04EB
Encoding: 1259 1259 125
Width: 500
VWidth: 999
Flags: HW
HStem: -12 36<202 328> 179 49<204 349> 207 42<118 238> 409 33<183 304> 525 95<134.016 211.984 303.016 380.984>
VStem: 44 79<124 320> 126 94<532.394 612.312> 295 94<532.394 612.312> 377 79<113 318>
LayerCount: 2
Fore
SplineSet
81.57421875 205 m 0
 111.756835938 347 216.3125 439 347.3125 439 c 0
 482.3125 439 536.39453125 350 507.487304688 214 c 0
 479.642578125 83 379.874023438 -10 247.874023438 -10 c 0
 114.874023438 -10 56.0673828125 85 81.57421875 205 c 0
247.58203125 572 m 0
 253.108398438 598 278.78515625 620 304.78515625 620 c 0
 330.78515625 620 347.108398438 598 341.58203125 572 c 0
 336.055664062 546 310.591796875 525 284.591796875 525 c 0
 258.591796875 525 242.055664062 546 247.58203125 572 c 0
416.58203125 572 m 0
 422.108398438 598 447.78515625 620 473.78515625 620 c 0
 499.78515625 620 516.108398438 598 510.58203125 572 c 0
 505.055664062 546 479.591796875 525 453.591796875 525 c 0
 427.591796875 525 411.055664062 546 416.58203125 572 c 0
419.478515625 214.900390625 m 1
 394.9453125 201.099609375 349.147460938 179 312.047851562 179 c 0
 269.047851562 179 240.999023438 207 205.999023438 207 c 0
 198.298828125 207 181.982421875 204.099609375 169.536132812 202 c 1
 158.009765625 126.599609375 168.176757812 30 265.376953125 30 c 0
 332.376953125 30 395.447265625 100.900390625 415.661132812 196 c 0
 417.021484375 202.400390625 418.260742188 208.700195312 419.478515625 214.900390625 c 1
424.16015625 242.099609375 m 1
 438.616210938 337.400390625 423.709960938 399 331.810546875 399 c 0
 240.91015625 399 194.712890625 314.799804688 175.094726562 230.5 c 1
 200.3203125 240.5 238.626953125 249 265.926757812 249 c 0
 310.926757812 249 328.67578125 229 366.67578125 229 c 0
 386.67578125 229 408.078125 235.599609375 424.16015625 242.099609375 c 1
EndSplineSet
LCarets2: 1 0 
Colour: ff00ff
EndChar

StartChar: uni04EF
Encoding: 1263 1263 126
Width: 506
VWidth: 999
Flags: HW
HStem: -237 21<109 126.595 183 207> 412 20<35 47.8975 122.5 147.705 377.981 401 461.5 473> 538 44<121.088 399.515>
VStem: 120 281<538.205 582>
LayerCount: 2
Fore
SplineSet
119.82421875 432 m 1
 133.186523438 429 158.186523438 429 171.186523438 429 c 0
 185.186523438 429 207.186523438 429 220.82421875 432 c 1
 233.950195312 317.799804688 257.392578125 206.5 281.3203125 87.599609375 c 1
 283.3203125 87.599609375 l 1
 353.940429688 191.200195312 427.805664062 319 487.82421875 432 c 1
 497.186523438 429 516.186523438 429 526.186523438 429 c 0
 536.186523438 429 559.186523438 429 569.82421875 432 c 1
 522.583007812 365 202.193359375 -112 137.624023438 -237 c 1
 128.26171875 -234 99.6865234375 -232 89.6865234375 -232 c 0
 79.6865234375 -232 64.26171875 -234 53.6240234375 -237 c 1
 114.830078125 -161.700195312 171.99609375 -84.7001953125 219.874023438 -10 c 1
 204.688476562 85.099609375 140.749023438 343.200195312 119.82421875 432 c 1
491.35546875 538 m 2
 247.35546875 538 l 2
 238.35546875 538 236.055664062 546 237.543945312 553 c 0
 240.094726562 565 254.708007812 582 265.708007812 582 c 2
 510.708007812 582 l 2
 520.708007812 582 523.0078125 574 521.732421875 568 c 0
 519.181640625 556 504.35546875 538 491.35546875 538 c 2
EndSplineSet
LCarets2: 1 0 
Colour: ff00ff
EndChar

StartChar: uni04F1
Encoding: 1265 1265 127
Width: 506
VWidth: 999
Flags: HW
HStem: -237 21<109 126.595 183 207> 412 20<35 47.8975 122.5 147.705 377.981 401 461.5 473> 527 95<149.016 226.984 318.016 395.984>
VStem: 141 94<534.394 614.312> 310 94<534.394 614.312>
LayerCount: 2
Fore
SplineSet
119.82421875 432 m 1
 133.186523438 429 158.186523438 429 171.186523438 429 c 0
 185.186523438 429 207.186523438 429 220.82421875 432 c 1
 233.950195312 317.799804688 257.392578125 206.5 281.3203125 87.599609375 c 1
 283.3203125 87.599609375 l 1
 353.940429688 191.200195312 427.805664062 319 487.82421875 432 c 1
 497.186523438 429 516.186523438 429 526.186523438 429 c 0
 536.186523438 429 559.186523438 429 569.82421875 432 c 1
 522.583007812 365 202.193359375 -112 137.624023438 -237 c 1
 128.26171875 -234 99.6865234375 -232 89.6865234375 -232 c 0
 79.6865234375 -232 64.26171875 -234 53.6240234375 -237 c 1
 114.830078125 -161.700195312 171.99609375 -84.7001953125 219.874023438 -10 c 1
 204.688476562 85.099609375 140.749023438 343.200195312 119.82421875 432 c 1
263.0078125 574 m 0
 268.534179688 600 294.209960938 622 320.209960938 622 c 0
 346.209960938 622 362.534179688 600 357.0078125 574 c 0
 351.481445312 548 326.017578125 527 300.017578125 527 c 0
 274.017578125 527 257.481445312 548 263.0078125 574 c 0
432.0078125 574 m 0
 437.534179688 600 463.209960938 622 489.209960938 622 c 0
 515.209960938 622 531.534179688 600 526.0078125 574 c 0
 520.481445312 548 495.017578125 527 469.017578125 527 c 0
 443.017578125 527 426.481445312 548 432.0078125 574 c 0
EndSplineSet
LCarets2: 1 0 
Colour: ff00ff
EndChar

